<svg width="133" height="239" viewBox="0 0 133 239" fill="none" xmlns="http://www.w3.org/2000/svg">
<g clip-path="url(#clip0_1666_13223)">
<path d="M88.0025 52.6935C86.0891 52.5055 84.4776 51.8764 83.215 50.3579C81.6328 48.4561 81.1528 45.8419 81.4078 43.4332C81.6064 41.5562 82.3488 39.6873 83.8577 38.4782C84.9188 37.6275 86.4079 37.117 87.7739 37.2596C89.8111 37.5917 91.5252 38.4365 92.7695 40.1445C92.8545 40.263 92.9366 40.383 93.015 40.5059C93.0942 40.628 93.1696 40.7524 93.2422 40.8782C93.3147 41.004 93.3844 41.132 93.4511 41.2614C93.5177 41.3909 93.5808 41.5218 93.6416 41.655C93.7017 41.7874 93.7581 41.9212 93.8116 42.0565C93.8651 42.1919 93.9157 42.3287 93.9626 42.4662C94.0095 42.6037 94.0527 42.7427 94.093 42.8824C94.1333 43.0221 94.17 43.1632 94.2029 43.3052C94.2359 43.4471 94.2652 43.589 94.2916 43.7323C94.318 43.8757 94.3407 44.0191 94.3597 44.1632C94.3788 44.3073 94.3942 44.4521 94.4067 44.5976C94.4184 44.7425 94.4272 44.888 94.4323 45.0336C94.4374 45.1792 94.4382 45.3247 94.436 45.4703C94.4338 45.6158 94.4279 45.7614 94.4184 45.9062C94.4089 46.0518 94.3957 46.1966 94.3795 46.3407C94.3634 46.4855 94.3429 46.6296 94.3194 46.773C94.0197 48.6163 93.1806 50.4362 91.6197 51.5421C90.5608 52.2919 89.2923 52.6532 88.0032 52.6927L88.0025 52.6935ZM91.5369 46.1454C91.5303 46.0481 91.5215 45.9509 91.5098 45.8536C91.4981 45.7563 91.4842 45.6597 91.468 45.5632C91.4519 45.4666 91.4329 45.3708 91.4123 45.2757C91.3911 45.1806 91.3676 45.0855 91.342 44.9912C91.3163 44.8968 91.2885 44.8032 91.2577 44.7103C91.2269 44.6174 91.1947 44.5252 91.1595 44.4338C91.1243 44.3424 91.087 44.2524 91.0474 44.1624C91.0078 44.0732 90.966 43.9847 90.9221 43.8976C90.8781 43.8106 90.8319 43.7243 90.7836 43.6394C90.7352 43.5546 90.6846 43.4705 90.6326 43.3878C90.5806 43.3052 90.5256 43.224 90.4692 43.1442C89.6037 41.9446 88.4261 41.3265 86.9861 41.1056C86.1602 41.1671 85.4222 41.3244 84.6938 41.7369C83.5228 42.4003 82.713 43.559 82.3715 44.8478C82.3488 44.9363 82.3275 45.0263 82.3085 45.1155C82.2894 45.2055 82.2733 45.2955 82.2587 45.3862C82.2447 45.4769 82.2323 45.5676 82.2227 45.659C82.2132 45.7504 82.2059 45.8419 82.2 45.9333C82.1949 46.0247 82.192 46.1162 82.1912 46.2083C82.1905 46.3005 82.1912 46.3919 82.1956 46.4834C82.1993 46.5748 82.2059 46.667 82.2139 46.7584C82.2227 46.8498 82.233 46.9412 82.2455 47.032C82.2586 47.1227 82.2733 47.2134 82.2909 47.3033C82.3085 47.3933 82.3275 47.4833 82.3495 47.5725C82.3715 47.6617 82.3957 47.7502 82.4213 47.838C82.4477 47.9258 82.4756 48.0136 82.5063 48.0999C82.5364 48.1862 82.5694 48.2725 82.6038 48.3574C82.6382 48.4422 82.6749 48.5263 82.7137 48.6097C82.7526 48.6931 82.7936 48.775 82.8361 48.8562C82.8793 48.9374 82.9241 49.0179 82.971 49.0961C83.7895 50.4793 84.9364 51.1179 86.4409 51.507C87.5687 51.5707 88.5214 51.5721 89.5055 50.9175C90.6099 50.1831 91.2299 48.8752 91.4519 47.6025C91.4695 47.5067 91.4849 47.4101 91.4973 47.3128C91.5098 47.2163 91.5201 47.119 91.5281 47.0217C91.5362 46.9244 91.5413 46.8271 91.545 46.7291C91.5479 46.6318 91.5486 46.5338 91.5464 46.4365C91.545 46.3385 91.5406 46.2412 91.534 46.144L91.5369 46.1454Z" fill="white"/>
<path d="M98.8013 207.806C98.0319 206.94 97.6039 206.151 97.683 204.961C97.7761 203.553 98.6416 202.166 99.732 201.303C99.9944 201.095 100.282 200.923 100.571 200.755C100.732 203.416 100.814 206.078 100.946 208.74C100.157 208.521 99.4521 208.331 98.802 207.805L98.8013 207.806Z" fill="#714F2B"/>
<path d="M91.9721 73.4122C90.1107 70.0233 89.3537 65.2878 90.0323 61.4849C90.708 61.3269 91.4086 61.2084 92.0322 60.8961L92.1348 60.7015C91.8842 60.3738 91.2701 60.2978 90.8802 60.221C90.4053 60.2532 89.9319 60.3007 89.4607 60.3636C88.2662 60.5318 86.1235 60.8903 85.3686 61.8946L85.4874 62.0518C86.5976 62.2237 87.9621 61.8448 89.0503 61.6232C88.8686 64.6119 89.0181 67.2876 89.7048 70.2076C88.4443 69.787 87.2198 69.2801 86.0319 68.6862C80.2088 65.8145 75.968 62.0094 73.8882 55.7539C71.6627 49.0603 71.2538 38.0687 74.5778 31.5784C76.4414 27.9394 80.9585 23.2587 84.3148 20.9649C85.8193 19.9364 87.3693 19.1538 89.1002 18.5876C89.4424 18.7149 89.7927 18.8546 90.154 18.9131C90.7945 19.017 91.4863 18.9614 92 18.5291C92.5672 18.0515 92.6295 17.5329 92.6917 16.827C99.9225 16.2023 106.771 17.1847 112.698 21.7395C117.745 25.6192 120.703 31.9317 121.47 38.1542C122.098 43.2459 121.517 51.0857 118.235 55.2719C121.048 58.4413 122.711 61.6978 122.458 66.0368C122.315 68.5099 121.534 71.0846 119.637 72.7904C117.284 74.9051 113.445 75.3761 110.411 75.1508C105.345 74.7741 99.4982 72.6119 96.1133 68.6803C94.8785 67.2459 93.9632 65.6096 93.0288 63.9748C93.1329 64.6726 93.2861 65.3588 93.4891 66.0346C93.692 66.7098 93.9427 67.3674 94.2402 68.0066C95.6384 71.0144 99.0959 75.5839 101.785 77.5383C101.916 77.6349 102.049 77.7278 102.185 77.817C102.32 77.907 102.458 77.9933 102.598 78.076C102.738 78.1586 102.879 78.2383 103.024 78.3144C103.168 78.3905 103.313 78.4629 103.461 78.5317C103.608 78.6004 103.757 78.6655 103.908 78.727C104.058 78.7884 104.21 78.8462 104.363 78.9003C104.517 78.9544 104.671 79.0042 104.827 79.051C104.983 79.0971 105.14 79.1395 105.298 79.1783C105.457 79.217 105.615 79.2514 105.775 79.2821C105.935 79.3129 106.095 79.3399 106.256 79.3626C106.418 79.3853 106.579 79.4043 106.741 79.4196C106.903 79.435 107.065 79.446 107.227 79.4526C107.39 79.4591 107.553 79.4628 107.715 79.4613C107.877 79.4606 108.04 79.4555 108.202 79.446C108.365 79.4372 108.527 79.424 108.689 79.4072C108.85 79.3904 109.012 79.3692 109.172 79.3443C112.276 78.8469 114.229 76.0535 115.646 75.8187L115.756 75.9525C115.203 77.8777 112.511 80.4561 110.732 81.4326C107.987 82.9387 104.847 82.5861 101.936 81.7391C97.628 80.4854 94.1112 77.3035 91.9736 73.4122H91.9721ZM115.799 60.978C115.976 61.708 116.402 62.0299 117.016 62.4117C117.291 62.4278 117.591 62.457 117.865 62.4117C118.275 62.3437 118.696 62.0072 118.929 61.6737C119.242 61.2267 119.309 60.6555 119.187 60.1317C119.02 59.4156 118.588 59.0609 117.982 58.6973C117.7 58.6922 117.397 58.6776 117.119 58.7281C116.674 58.8092 116.234 59.1684 116 59.5429C115.729 59.9774 115.68 60.4843 115.8 60.9773L115.799 60.978ZM107.243 47.9887C108.369 49.6484 109.953 50.3879 111.866 50.7266C113.262 50.8085 114.566 50.5145 115.717 49.6952C117.397 48.5008 118.349 46.5317 118.634 44.5318C118.944 42.3609 118.55 40.1189 117.2 38.351C116.062 36.8603 114.602 36.0169 112.74 35.7711C111.488 35.736 110.255 36.0015 109.188 36.6774C107.514 37.7395 106.526 39.6691 106.125 41.565C105.675 43.6951 106.007 46.1667 107.243 47.988L107.243 47.9887ZM99.8001 61.4396C100.098 62.0664 100.64 62.3356 101.27 62.5397C101.554 62.539 101.86 62.4958 102.124 62.3868C102.554 62.2098 102.911 61.8039 103.064 61.3686C103.239 60.8712 103.169 60.3058 102.911 59.8501C102.582 59.2701 102.142 59.1201 101.524 58.9629C101.276 58.9877 101.011 59.0206 100.774 59.0974C100.339 59.2372 99.9181 59.6438 99.7422 60.0608C99.5539 60.5062 99.5942 61.0073 99.8001 61.4396ZM94.9965 47.5118C95.0294 47.3494 95.058 47.1871 95.0822 47.0232C95.1071 46.8594 95.1276 46.6955 95.1438 46.5309C95.1606 46.3664 95.1731 46.2018 95.1819 46.0365C95.1907 45.8712 95.1951 45.7058 95.1958 45.5405C95.1958 45.3752 95.1929 45.2099 95.1848 45.0446C95.1775 44.8793 95.1658 44.7147 95.1504 44.5501C95.135 44.3856 95.1152 44.221 95.0917 44.0571C95.0683 43.8933 95.0404 43.7302 95.0089 43.5678C94.9774 43.4054 94.9422 43.2437 94.9027 43.0836C94.8631 42.9234 94.8199 42.7632 94.773 42.6044C94.7253 42.4457 94.6748 42.2892 94.6198 42.1327C94.5648 41.9769 94.5062 41.8218 94.4439 41.6689C94.3816 41.516 94.3149 41.3639 94.2453 41.2139C94.1757 41.064 94.1024 40.9155 94.0248 40.7692C93.9478 40.6229 93.8672 40.4781 93.7829 40.3362C93.6986 40.1935 93.6114 40.0531 93.5206 39.9149C92.2616 38.0365 90.4698 36.9393 88.2611 36.5048C86.698 36.3205 85.2089 36.5384 83.8905 37.4535C82.1105 38.6882 81.097 40.7816 80.7533 42.8714C80.3239 45.482 80.7563 48.2872 82.3296 50.4625C83.615 52.24 85.3408 52.9941 87.4242 53.346C89.0276 53.384 90.5189 53.1002 91.8908 52.2422C93.5799 51.1852 94.6029 49.4275 94.9972 47.5104L94.9965 47.5118Z" fill="#E7BC3D"/>
<path d="M98.6189 192.195C98.4884 192.117 98.3785 192.022 98.2634 191.924C97.5687 191.006 97.3584 190.112 97.5211 188.968C97.7358 187.462 98.5998 185.845 99.8361 184.932C100.081 184.751 100.357 184.599 100.62 184.447C100.646 185.792 100.811 191.776 100.346 192.58C99.7921 192.74 99.0996 192.481 98.6181 192.195H98.6189Z" fill="#714F2B"/>
<path d="M105.181 78.1222C102.399 77.2715 99.2337 74.3844 97.8831 71.8287C97.757 71.5895 97.7746 71.6933 97.7805 71.4893C102.68 74.881 107.542 76.1772 113.486 76.0719C112.994 76.5539 112.526 76.9847 111.953 77.3724C109.744 78.5647 107.602 78.8617 105.181 78.1214V78.1222Z" fill="#E7BC3D"/>
<path d="M96.1346 224.299C97.102 224.012 97.7117 223.536 98.413 222.843C98.564 222.693 98.7494 222.431 98.9252 222.324C100.125 222.841 101.181 223.019 102.475 223.157C104.291 225.176 105.371 226.678 105.307 229.517C104.801 230.309 104.339 230.883 103.375 231.079C102.424 231.272 101.434 230.958 100.565 230.593C100.545 229.463 100.449 228.696 99.65 227.83L99.4675 227.801C98.9956 229.251 100.211 231.933 98.2679 232.767C98.0466 232.862 97.793 232.933 97.5578 232.982C95.2128 232.967 92.4713 232.402 90.7836 230.631C89.0446 228.806 89.3143 225.208 89.1889 222.857C91.2401 223.955 93.7794 224.996 96.1354 224.298L96.1346 224.299Z" fill="#E7BC3D"/>
<path d="M99.5832 165.544C100.254 163.929 100.692 162.055 101.486 160.521C101.206 163.657 101.192 166.835 101.09 169.983C100.921 174.549 100.786 179.117 100.686 183.685C99.0307 184.383 97.9497 185.603 97.2887 187.258C96.7633 188.575 96.4665 190.21 97.0748 191.543C97.1246 191.651 97.1795 191.755 97.2404 191.857C97.3012 191.958 97.3672 192.056 97.4375 192.151C97.5086 192.245 97.5841 192.336 97.6647 192.423C97.7453 192.51 97.8296 192.592 97.919 192.67C98.0084 192.747 98.1014 192.821 98.1974 192.889C98.2942 192.957 98.3938 193.02 98.4972 193.077C98.6005 193.135 98.7068 193.187 98.8152 193.234C98.9237 193.281 99.0351 193.322 99.1479 193.357C99.5649 193.483 100.022 193.516 100.455 193.553C100.482 195.673 100.573 197.816 100.525 199.935C98.854 200.895 97.5364 202.165 97.0249 204.093C96.7215 205.236 96.8476 206.514 97.4668 207.534C98.0062 208.423 98.9347 209.061 99.9467 209.291C100.291 209.37 100.648 209.398 100.999 209.429C101.166 211.884 101.424 214.329 101.774 216.765C101.976 218.114 102.384 219.533 102.462 220.885C102.479 221.185 102.424 221.407 102.292 221.679C101.966 221.923 101.756 222.001 101.343 221.95C100.52 221.848 98.8123 220.894 98.1425 221.408C97.6544 221.782 97.3869 222.47 96.8989 222.884C95.2522 223.646 93.6268 223.625 91.934 223.016C90.8575 222.628 89.863 222.036 89.0665 221.21C88.5857 217.911 88.6041 214.422 88.4157 211.09C87.8742 201.535 87.7496 191.989 87.3949 182.431C93.3227 177.849 96.756 172.351 99.5839 165.544L99.5832 165.544Z" fill="#E7BC3D"/>
<path d="M31.3282 225.488C32.8701 225.214 33.9656 223.94 34.272 223.889C35.9868 224.471 37.6928 225.089 39.431 224.212C39.4713 224.192 39.5102 224.169 39.5497 224.148C40.6512 225.841 42.182 227.963 41.7138 230.099C41.5899 230.662 41.2836 231.146 40.7889 231.453C39.7146 232.121 38.216 231.815 37.0384 231.628C37.0493 230.686 37.0237 229.009 36.2103 228.378C35.9362 228.166 35.7427 228.219 35.4254 228.249L35.2283 228.431C35.5507 229.786 36.4448 231.168 35.5698 232.534C35.4936 232.652 35.41 232.757 35.3126 232.859C33.7311 233.991 32.2384 233.826 30.4107 233.512C29.077 233.282 27.5571 232.812 26.7231 231.681C25.5111 230.039 25.5015 226.027 25.4282 223.943C27.1518 225.179 29.1906 225.87 31.3297 225.489L31.3282 225.488Z" fill="#E7BC3D"/>
<path d="M38.8286 219.337C40.3712 219.554 42.7661 220.049 44.1306 219.133C44.4105 218.945 44.6648 218.618 44.8861 218.366L45.0056 218.329C46.5482 218.677 47.3711 218.788 48.2586 220.207C48.9731 221.35 49.6517 223.029 49.2992 224.374C49.1299 225.021 48.7246 225.569 48.134 225.89C47.6459 226.155 47.0641 226.231 46.5328 226.059C46.1129 225.923 45.8109 225.658 45.6204 225.261C45.3991 224.803 45.3163 224.196 44.911 223.868C44.6047 223.834 44.3775 223.873 44.1167 224.06C44.0126 224.134 43.9965 224.166 43.9283 224.255C44.0009 224.561 44.0829 224.814 44.2105 225.102C44.379 225.486 44.3827 225.724 44.3277 226.141C43.8887 226.856 43.4872 227.192 42.7499 227.585C41.9284 226.051 40.904 224.583 40.1448 223.031C39.5783 221.874 39.228 220.56 38.8286 219.336V219.337Z" fill="#E7BC3D"/>
<path d="M77.9605 229.25C79.9604 228.642 80.0564 227.241 80.6515 226.984C81.7991 227.546 83.0104 227.864 84.1932 228.326C85.2162 230.076 86.067 232.452 85.4822 234.482C85.214 235.412 84.6732 236.107 83.8869 236.659C82.4989 236.697 81.4517 236.418 80.1795 235.897C80.3378 234.929 80.3774 233.696 79.808 232.855C79.5163 232.685 79.4841 232.688 79.1448 232.71C78.9982 232.819 78.8978 232.838 78.8627 233.032C78.5952 234.511 80.2132 235.741 77.9525 237.59C77.8983 237.634 77.8426 237.677 77.7876 237.721C75.9775 238.174 74.026 237.544 72.4754 236.578C71.2003 235.785 70.496 234.733 70.1956 233.272C69.8365 231.526 69.9142 229.595 69.8804 227.816C72.1478 228.991 75.4147 230.023 77.9598 229.249L77.9605 229.25Z" fill="#E7BC3D"/>
<path d="M91.7823 102.576C92.0923 103.483 92.0439 104.522 91.6057 105.38C91.2591 106.059 90.5292 106.78 89.7619 106.952C89.4615 107.019 89.1442 107.038 88.8378 107.062C88.0039 106.704 87.4521 106.183 87.0915 105.34C87.041 105.219 86.9963 105.096 86.9582 104.97C86.92 104.845 86.8885 104.718 86.8629 104.588C86.838 104.459 86.8189 104.33 86.8072 104.199C86.7947 104.068 86.7896 103.937 86.7911 103.806C86.7925 103.675 86.8006 103.544 86.8145 103.414C86.8292 103.284 86.8504 103.154 86.8783 103.026C86.9061 102.898 86.9398 102.771 86.9801 102.646C87.0204 102.521 87.0673 102.399 87.1201 102.279C87.4587 101.53 88.0955 100.883 88.8891 100.627C89.2057 100.524 89.5377 100.511 89.8675 100.517C90.8018 100.964 91.4394 101.577 91.7809 102.576H91.7823Z" fill="#E7BC3D"/>
<path d="M43.6799 201.242C42.9624 202.357 42.4531 204.098 42.7543 205.41C42.7748 205.5 42.7997 205.59 42.829 205.679C42.8584 205.767 42.8928 205.855 42.9309 205.939C42.969 206.024 43.0123 206.107 43.0592 206.187C43.1061 206.268 43.1573 206.346 43.2123 206.421C43.2673 206.497 43.3259 206.569 43.3889 206.638C43.4512 206.707 43.5172 206.773 43.5868 206.835C43.6564 206.898 43.7282 206.957 43.8037 207.012C43.8792 207.067 43.9569 207.118 44.0375 207.165C44.5006 207.434 44.9359 207.476 45.4562 207.539C45.4973 207.543 45.5376 207.552 45.5786 207.557C45.4936 210.876 45.498 214.029 46.3429 217.271L46.329 217.491C45.7112 217.485 45.0414 217.062 44.4478 216.877C43.8037 217.801 43.3721 218.441 42.1724 218.626C41.0446 218.8 39.6852 218.444 38.6051 218.119C36.3516 210.042 38.2394 198.225 40.3023 190.168C40.5316 189.272 40.857 186.988 41.3143 186.349C41.4008 186.229 41.4206 186.226 41.5254 186.153L41.8273 186.165C44.2815 186.839 46.68 187.38 49.1899 187.797C47.9236 191.576 46.8383 195.557 46.2477 199.5C45.0729 199.732 44.335 200.225 43.6813 201.243L43.6799 201.242Z" fill="#E7BC3D"/>
<path d="M43.9393 206.266C43.3383 205.401 43.216 204.64 43.397 203.596C43.5853 202.51 44.1899 201.237 45.1455 200.619C45.4247 200.439 45.7515 200.293 46.071 200.202C45.8908 202.496 45.6958 204.789 45.4863 207.081C44.9425 206.843 44.4112 206.634 43.94 206.266H43.9393Z" fill="#714F2B"/>
<path d="M103.032 16.217L100.869 15.7188C101.154 13.8697 101.5 10.3843 102.086 8.79409L102.214 8.72021C102.95 8.86066 103.647 8.94331 104.396 8.97037C104.058 10.6732 103.779 15.0152 103.322 16.1862L103.032 16.217Z" fill="#E7BC3D"/>
<path d="M76.9039 26.6465C75.7431 25.2808 74.5897 24.0929 73.0815 23.1091C69.923 21.0486 65.9651 20.1065 62.246 20.8913C62.512 23.6021 63.0404 26.6172 64.58 28.9177C66.5411 31.8472 69.2855 32.8434 72.6066 33.4988L71.8181 36.6594C68.6575 35.9843 66.1563 34.9193 63.941 32.4982C60.9577 29.2373 58.4419 23.5056 58.7116 19.0341C58.7512 18.3788 58.875 17.6663 59.4151 17.2311C61.0691 15.8991 65.6419 15.7608 67.6879 15.9766C72.071 16.2663 75.4888 19.4379 78.256 22.5737C78.6063 22.9709 78.9668 23.3834 79.2753 23.8135L79.3838 23.8742C79.2511 24.4067 77.3868 26.133 76.9032 26.645L76.9039 26.6465Z" fill="#E7BC3D"/>
<path d="M63.2522 23.3944C63.1452 22.7639 63.0411 22.1356 62.9927 21.4978C63.8494 21.4275 64.7046 21.3347 65.5649 21.3888C70.3386 21.726 73.3871 23.6768 76.4913 27.2207C75.0836 28.9272 73.9081 30.5525 72.9767 32.5728L72.7745 32.8771C71.3909 33.1141 68.5365 31.9028 67.345 31.0719C64.7984 29.2966 63.7505 26.3305 63.2514 23.3944H63.2522Z" fill="#714F2B"/>
<path d="M79.6586 107.697C81.6416 108.547 83.3095 109.96 84.1046 112.016C84.1339 112.091 84.1618 112.167 84.1882 112.244C84.2138 112.32 84.238 112.397 84.26 112.475C84.282 112.553 84.3018 112.631 84.3201 112.71C84.3377 112.789 84.3538 112.868 84.3684 112.948C84.3824 113.028 84.3941 113.107 84.4044 113.187C84.4146 113.268 84.4219 113.348 84.4278 113.429C84.4337 113.509 84.4373 113.59 84.4395 113.671C84.441 113.751 84.441 113.832 84.4388 113.913C84.4366 113.993 84.4322 114.074 84.4256 114.155C84.419 114.235 84.411 114.316 84.4 114.396C84.3897 114.476 84.3772 114.556 84.3626 114.635C84.3479 114.715 84.3311 114.794 84.3128 114.872C84.2937 114.951 84.2732 115.03 84.2505 115.107C84.2277 115.185 84.2036 115.262 84.1772 115.338C84.1508 115.415 84.1222 115.491 84.0922 115.565C84.0621 115.64 84.0299 115.714 83.9954 115.787C83.5301 116.771 82.7496 117.493 81.8292 118.046C80.5995 118.666 79.512 118.846 78.1402 118.855C78.1116 117.961 79.1603 108.163 79.3948 107.741L79.6586 107.697Z" fill="#714F2B"/>
<path d="M78.2135 133.17C78.6795 133.826 78.8342 134.625 78.6957 135.413C78.4824 136.624 77.6279 137.645 76.6306 138.32C75.1356 139.332 73.5168 139.542 71.769 139.343C70.3525 138.992 69.1587 138.24 68.4032 136.96C67.9759 136.236 67.6945 135.325 67.9547 134.495C68.1584 133.846 68.4684 133.532 69.0759 133.238C70.4719 132.562 73.3944 131.393 74.9062 131.454C76.174 131.647 77.4367 132.076 78.2142 133.169L78.2135 133.17Z" fill="#714F2B"/>
<path d="M88.0149 8.77655C87.3978 8.99965 86.7251 9.12107 86.078 9.21762C85.2016 9.22347 84.564 9.09839 83.925 8.45544C83.3966 7.92367 83.1775 7.16222 83.1951 6.4271C83.2207 5.35989 83.7535 4.34755 84.5354 3.63437C85.4207 2.82684 86.4217 2.54962 87.595 2.61325C88.733 3.0236 89.8909 3.77116 90.3914 4.92175C90.656 5.52959 90.6867 6.21497 90.4251 6.8294C90.0082 7.8081 88.9778 8.42911 88.0156 8.77655H88.0149Z" fill="#E7BC3D"/>
<path d="M52.1073 138.841C52.3653 139.552 52.218 140.296 51.8875 140.955C51.1312 142.461 49.5608 143.392 47.9955 143.882C47.7866 143.948 47.5748 144.005 47.3608 144.054C47.1468 144.103 46.9314 144.143 46.7145 144.175C46.4976 144.206 46.2792 144.229 46.0608 144.243C45.8417 144.257 45.6226 144.262 45.4035 144.259C45.1843 144.256 44.9652 144.244 44.7468 144.223C44.5285 144.202 44.3115 144.172 44.0954 144.134C43.8792 144.096 43.6652 144.049 43.4534 143.994C43.2409 143.938 43.0313 143.875 42.8247 143.802C42.0332 143.399 40.8673 142.724 40.5859 141.827C40.4635 141.437 40.506 141.031 40.6987 140.672C41.6016 138.989 46.3012 137.749 48.2116 137.249C48.8785 137.074 49.519 136.944 50.2093 136.905C51.0506 137.332 51.7739 137.923 52.1081 138.843L52.1073 138.841Z" fill="#714F2B"/>
<path d="M91.7494 93.4612C90.7395 92.718 90.1364 91.9149 89.9554 90.6436C89.7993 89.5435 90.0712 88.2334 90.7564 87.344C91.1939 86.7764 91.8827 86.3148 92.6082 86.2483C92.8171 86.2292 93.0238 86.2409 93.2326 86.2541C94.2087 87.0251 94.6594 88.1742 94.8162 89.3892C94.9621 90.5178 94.7679 91.9661 94.0321 92.8804C93.698 93.2952 93.1403 93.6163 92.6024 93.6448C92.2939 93.6616 92.0322 93.5643 91.7494 93.4612Z" fill="#714F2B"/>
<path d="M124.105 17.0268C125.195 16.8585 126.292 16.8022 127.393 16.8585C127.132 20.4815 126.193 23.7489 123.353 26.1986C123.07 26.4473 122.775 26.6813 122.468 26.9C122.161 27.1195 121.844 27.3221 121.516 27.5094C121.188 27.6966 120.853 27.867 120.508 28.0206C120.164 28.1742 119.812 28.3103 119.454 28.4281C118.837 27.5598 118.274 26.663 117.71 25.7612C116.907 24.5703 115.956 23.4922 115.029 22.3964C117.122 19.4823 120.58 17.5988 124.105 17.0275V17.0268Z" fill="#714F2B"/>
<path d="M119.71 28.9797C122.693 27.9235 125.183 25.8929 126.573 23.0249C127.096 21.9467 127.436 20.8019 127.665 19.6279C127.826 18.4774 127.958 17.3443 127.942 16.1806C123.923 15.8119 119.55 17.0217 116.43 19.6448C115.625 20.3214 114.993 21.0792 114.471 21.9942C113.636 21.2628 112.781 20.63 111.874 19.9937C114.104 15.9531 117.936 13.2335 122.347 11.9396C124.627 11.271 126.808 10.996 129.173 11.2037C129.837 11.2944 130.432 11.4056 131.07 11.6214C132.185 15.3277 131.209 20.1378 129.417 23.4886C129.301 23.7088 129.18 23.926 129.054 24.1411C128.929 24.3561 128.8 24.569 128.667 24.7796C128.533 24.9903 128.396 25.1973 128.255 25.4028C128.114 25.6076 127.968 25.8103 127.82 26.0092C127.671 26.2089 127.518 26.4049 127.361 26.5988C127.204 26.7926 127.044 26.9828 126.88 27.1708C126.716 27.358 126.549 27.5424 126.377 27.7238C126.206 27.9052 126.032 28.0822 125.854 28.257C125.676 28.4311 125.495 28.6022 125.31 28.7698C125.126 28.9373 124.938 29.1011 124.748 29.2613C124.557 29.4215 124.363 29.578 124.167 29.7309C123.969 29.8838 123.77 30.0323 123.568 30.1778C123.366 30.3234 123.16 30.4645 122.952 30.6013C122.744 30.7388 122.534 30.872 122.321 31.0007C122.107 31.1302 121.892 31.2553 121.674 31.376C121.456 31.4966 121.236 31.6137 121.014 31.7263C120.592 30.8076 120.188 29.8735 119.712 28.9811L119.71 28.9797Z" fill="#E7BC3D"/>
<path d="M90.8525 18.0393C90.4633 18.1073 90.094 18.0495 89.7283 17.9091C88.2517 15.8398 87.727 12.4721 86.8762 10.051C87.6588 9.80812 88.4525 9.58502 89.2065 9.26172C89.6638 10.6647 91.8059 16.5025 91.6696 17.4702C91.4394 17.7957 91.2577 17.9683 90.8525 18.04V18.0393Z" fill="#E7BC3D"/>
<path d="M109.264 37.5237C110.465 36.6621 111.727 36.556 113.149 36.6189C114.892 37.1171 116.267 37.9948 117.18 39.6113C118.155 41.3361 118.308 43.7243 117.735 45.6101C117.253 47.1929 116.166 48.6998 114.695 49.4927C114.622 49.5322 114.549 49.5702 114.475 49.606C114.401 49.6419 114.326 49.6763 114.25 49.7077C114.174 49.7399 114.098 49.7699 114.02 49.7984C113.942 49.8262 113.865 49.8525 113.785 49.8774C113.707 49.9015 113.627 49.9235 113.547 49.944C113.467 49.9644 113.387 49.982 113.306 49.9981C113.226 50.0142 113.144 50.0281 113.062 50.0398C112.98 50.0515 112.899 50.0617 112.817 50.069C112.735 50.0771 112.652 50.0822 112.57 50.0859C112.488 50.0895 112.405 50.091 112.323 50.0903C112.24 50.0903 112.158 50.0866 112.075 50.0822C111.993 50.0771 111.911 50.0705 111.829 50.061C111.747 50.0522 111.665 50.0413 111.584 50.0281C111.503 50.0149 111.421 49.9996 111.341 49.9827C111.26 49.9652 111.18 49.9462 111.1 49.9249C111.02 49.9037 110.941 49.8803 110.863 49.8547C110.298 49.677 109.797 49.3756 109.317 49.0355C110.562 49.4817 111.727 49.8006 113.007 49.2176C113.662 48.9192 114.165 48.4664 114.614 47.9142C115.387 46.4483 115.603 44.9181 115.12 43.3052C114.708 41.9286 113.759 40.6112 112.472 39.9281C111.52 39.4226 110.485 39.3429 109.47 39.7086C107.871 40.2857 107.287 41.44 106.599 42.8663C106.511 43.047 106.551 42.979 106.411 43.1443C106.764 41.1474 107.537 38.7621 109.263 37.5237H109.264Z" fill="white"/>
<path d="M100.231 6.1493C99.7789 5.4193 99.724 4.5591 99.9665 3.74571C100.279 2.69533 101.023 1.89365 102.002 1.42186C102.532 1.16658 103.169 0.992491 103.761 1.01517C104.999 1.20096 106.032 1.59375 106.809 2.63828C107.378 3.40339 107.673 4.37989 107.52 5.33006C107.386 6.16612 106.895 6.88003 106.197 7.35109C105.377 7.90554 104.424 8.05475 103.453 8.0511C102.208 7.79435 100.929 7.27794 100.23 6.1493H100.231Z" fill="#E7BC3D"/>
<path d="M13.8232 163.898L13.6664 163.693C13.8349 162.806 14.3457 161.94 14.781 161.159C16.7779 157.582 19.5238 154.293 22.9388 151.983C24.3898 151.001 26.0034 150.03 27.7556 149.746C26.918 150.948 26.1625 152.199 25.4875 153.498C20.3233 155.477 17.2828 159.457 14.9224 164.316L13.8225 163.897L13.8232 163.898Z" fill="#E7BC3D"/>
<path d="M51.6017 161.652C52.8035 161.124 53.9533 161.126 55.2269 161.223C56.335 161.562 57.5624 162.031 58.1472 163.107C58.4895 163.738 58.5078 164.471 58.2733 165.141C57.8827 166.258 56.8479 167.132 55.7941 167.609C54.7103 168.099 53.6338 168.149 52.4664 168.038C51.28 167.659 50.1631 167.14 49.5659 165.967C49.2192 165.285 49.1782 164.517 49.4325 163.797C49.7879 162.791 50.6453 162.073 51.6017 161.652Z" fill="#714F2B"/>
<path d="M34.0169 210.598C33.8358 210.526 33.6651 210.44 33.5017 210.335C32.6641 209.407 32.2434 208.433 32.2969 207.164C32.3431 206.073 32.7667 204.898 33.5889 204.15C34.266 203.535 34.9798 203.37 35.8716 203.414C36.2527 203.605 36.5422 203.675 36.7671 204.043C36.8397 206.103 36.5194 208.17 36.5238 210.237C35.7023 210.605 34.916 210.954 34.0169 210.598Z" fill="#714F2B"/>
<path d="M29.6163 186.374C29.8493 186.352 30.0824 186.355 30.3147 186.384C31.1919 187.115 31.6741 187.908 31.7825 189.065C31.8705 190.005 31.6784 191.116 31.035 191.845C30.6071 192.331 30.0941 192.631 29.4433 192.641C29.3151 192.643 29.1869 192.638 29.0586 192.636C28.2144 191.996 27.7923 191.205 27.6296 190.16C27.4816 189.209 27.6084 188.074 28.1873 187.277C28.5119 186.831 29.0535 186.428 29.6156 186.374L29.6163 186.374Z" fill="#714F2B"/>
<path d="M36.1157 152.582C37.3388 151.571 38.6893 151.274 40.2356 151.309C41.5224 151.528 42.9419 151.986 43.7385 153.094C44.1789 153.707 44.3006 154.422 44.1621 155.158C43.9569 156.245 43.1794 157.122 42.2677 157.703C40.945 158.547 39.5636 158.734 38.0349 158.761C36.9877 158.664 35.8936 158.323 35.1799 157.503C35.1168 157.43 35.0567 157.354 35.001 157.275C34.9454 157.196 34.8941 157.114 34.8464 157.03C34.7988 156.946 34.7556 156.86 34.7174 156.77C34.6786 156.682 34.6442 156.592 34.6148 156.5C34.5855 156.408 34.5599 156.315 34.5401 156.22C34.5196 156.126 34.5042 156.03 34.4939 155.934C34.4837 155.839 34.4778 155.742 34.4764 155.645C34.4756 155.549 34.4793 155.452 34.4881 155.356C34.5804 154.253 35.2839 153.27 36.1164 152.581L36.1157 152.582Z" fill="#714F2B"/>
<path d="M30.4701 176.388C30.2224 176.458 29.9571 176.465 29.7021 176.474C28.7641 175.92 28.2562 175.272 27.9763 174.209C27.6223 172.865 27.8275 171.213 28.5325 170.012C28.948 169.303 29.6368 168.639 30.4679 168.471C30.6621 168.432 30.8636 168.422 31.0607 168.414C31.9342 168.806 32.423 169.2 32.7535 170.122C33.2416 171.487 33.0115 173.377 32.3527 174.65C31.9709 175.388 31.3004 176.151 30.4708 176.387L30.4701 176.388Z" fill="#714F2B"/>
<path d="M39.7204 140.678C39.9871 142.013 40.3374 143.099 41.5151 143.926C43.0892 145.031 45.4628 145.151 47.3029 144.789C49.1562 144.425 51.1627 143.46 52.1996 141.822C52.7302 140.985 52.9881 139.988 52.7507 139.011C52.495 137.957 51.8032 137.25 51.0564 136.517C56.4449 135.312 61.996 135.009 67.3515 133.616C67.1624 135.205 67.191 136.632 68.2111 137.968C69.1535 139.203 70.6323 139.932 72.1654 140.089C72.287 140.1 72.4087 140.109 72.5311 140.114C72.6534 140.119 72.7751 140.122 72.8975 140.12C73.0198 140.12 73.1422 140.116 73.2639 140.109C73.3855 140.102 73.5079 140.092 73.6296 140.079C73.7512 140.067 73.8721 140.051 73.993 140.032C74.114 140.013 74.2341 139.991 74.3536 139.967C74.473 139.942 74.5925 139.914 74.7105 139.883C74.8292 139.853 74.9464 139.819 75.063 139.783C75.1795 139.746 75.2953 139.707 75.4103 139.665C75.5254 139.623 75.639 139.578 75.7511 139.53C75.8639 139.482 75.9746 139.432 76.0845 139.379C76.1944 139.325 76.3029 139.27 76.4106 139.21C76.5176 139.152 76.6239 139.09 76.7279 139.027C76.832 138.963 76.9346 138.897 77.0357 138.827C77.1368 138.758 77.2358 138.687 77.3332 138.613C77.4307 138.539 77.526 138.463 77.6198 138.384C78.6128 137.533 79.3045 136.369 79.3683 135.045C79.4167 134.045 79.1191 133.095 78.4325 132.355C77.5912 131.449 76.4026 131.008 75.2359 130.692C76.5938 127.936 77.386 122.717 77.9048 119.66C80.0593 119.647 81.9383 119.353 83.5351 117.741C84.6417 116.624 85.2096 115.036 85.1451 113.473C85.0682 111.613 84.0312 109.908 82.6572 108.698C81.6833 107.841 80.5972 107.357 79.3573 107.001C79.8131 101.409 80.1378 95.8588 80.2081 90.247C81.9705 90.1146 83.5183 89.5623 84.6842 88.1623C85.7402 86.894 86.1352 85.1823 85.9498 83.5622C85.7175 81.5375 84.6366 79.447 83.0082 78.1962C82.1904 77.5678 81.3301 77.2628 80.3598 76.96C80.3459 75.9601 80.033 66.6157 80.0652 66.514C80.0828 66.4591 80.1341 66.4218 80.1693 66.3765C83.1453 68.6542 86.4789 70.1194 89.9642 71.4279C91.6145 75.7611 94.5912 79.1441 98.5844 81.4702C98.133 90.5432 97.491 99.7692 98.3477 108.836C99.8661 124.904 105.008 141.618 101.151 157.693C100.518 160.331 99.537 162.875 98.5192 165.385C96.2789 170.911 93.0428 176.147 88.5813 180.159C87.5444 181.092 86.4268 181.967 85.3005 182.789C85.3972 181.37 85.8428 178.728 85.3664 177.477L85.1305 177.273C84.8498 177.417 84.7846 177.543 84.6974 177.849C84.2452 179.438 84.2943 181.487 84.1514 183.155C83.8737 186.396 83.4772 189.684 83.401 192.936C81.492 193.289 79.7823 193.968 78.6193 195.617C77.8301 196.737 77.3267 198.247 77.5993 199.62C77.748 200.367 78.1467 201.031 78.8113 201.426C79.6709 201.938 80.7423 201.872 81.6738 201.616C82.1164 201.496 82.5451 201.34 82.9606 201.146C82.8485 206.341 82.9547 211.531 83.2779 216.718C83.4421 218.769 83.6304 220.818 83.8422 222.865C83.9653 224.099 84.2306 225.462 84.1126 226.696C83.8839 226.901 83.7367 226.852 83.434 226.841C82.3589 226.804 80.9124 225.471 80.0051 226.247C79.712 226.498 79.5053 227.095 79.3434 227.444C77.5839 228.544 75.8398 228.67 73.8538 228.219C72.4805 227.907 70.9943 227.297 69.89 226.412C69.7397 222.786 69.5954 219.132 69.6188 215.504C71.2083 215.793 72.8161 215.893 74.2224 214.929C74.284 214.887 74.3441 214.843 74.4034 214.797C74.4628 214.751 74.5207 214.704 74.5771 214.655C74.6335 214.606 74.6892 214.557 74.7434 214.505C74.7977 214.454 74.8504 214.4 74.9017 214.346C74.953 214.292 75.0029 214.236 75.0512 214.179C75.0996 214.122 75.1465 214.064 75.1919 214.005C75.2374 213.946 75.2813 213.886 75.3238 213.825C75.3664 213.763 75.4074 213.7 75.4462 213.637C75.4851 213.573 75.5232 213.509 75.5583 213.443C75.5943 213.377 75.628 213.311 75.6602 213.244C75.6925 213.176 75.7232 213.108 75.7518 213.04C75.7804 212.971 75.8075 212.901 75.8324 212.83C75.8573 212.76 75.8808 212.689 75.9028 212.618C75.924 212.547 75.9438 212.475 75.9621 212.402C75.9797 212.329 75.9958 212.256 76.0098 212.183C76.0237 212.11 76.0361 212.036 76.0464 211.962C76.0567 211.889 76.0647 211.817 76.0713 211.744C76.0779 211.67 76.0823 211.597 76.0852 211.523C76.0882 211.45 76.0889 211.376 76.0874 211.303C76.0867 211.23 76.0838 211.156 76.0787 211.083C76.0735 211.01 76.0669 210.937 76.0589 210.864C76.0501 210.79 76.0398 210.717 76.0274 210.645C76.0149 210.572 76.001 210.5 75.9848 210.428C75.9687 210.357 75.9511 210.285 75.9314 210.214C75.9116 210.143 75.8903 210.073 75.8669 210.003C75.8434 209.934 75.8185 209.864 75.7921 209.796C75.765 209.728 75.7364 209.66 75.7064 209.593C75.6763 209.526 75.6441 209.46 75.6104 209.395C75.5767 209.33 75.5415 209.265 75.5041 209.201C75.4675 209.137 75.4286 209.075 75.3883 209.013C75.348 208.952 75.3063 208.891 75.263 208.832C75.2198 208.772 75.1751 208.714 75.1289 208.657C74.4401 207.812 73.4676 207.319 72.3816 207.239C71.5293 207.176 70.6602 207.356 69.8394 207.562C69.9735 201.048 69.9581 194.574 69.8878 188.06C69.8599 185.502 70.0937 182.704 69.7478 180.177C69.7016 179.839 69.676 179.7 69.4407 179.448L69.0831 179.399C68.3862 180.149 68.7885 185.97 68.8149 187.234C59.5909 188.106 50.4738 187.627 41.5715 184.931C42.1724 182.192 44.0983 174.263 42.7169 172.057L42.4465 171.963C42.1416 172.141 42.0742 172.316 41.9196 172.619C42.7367 180.015 39.4888 187.922 38.0408 195.142C37.7344 196.667 37.5095 198.214 37.2947 199.755C37.1599 200.723 37.1035 201.772 36.792 202.702C36.5158 202.776 36.6433 202.786 36.4608 202.73C35.5345 202.444 34.5152 202.744 33.6885 203.199C32.6853 203.752 32.1218 204.672 31.8191 205.758C31.4417 207.113 31.5582 208.622 32.294 209.84C32.6648 210.455 33.3118 211.177 34.0373 211.357C34.8574 211.559 35.8401 211.291 36.6513 211.107C36.803 214.713 37.4142 217.979 38.5669 221.401C38.7076 221.819 39.1283 222.691 38.8359 223.021C38.5405 223.354 38.1514 223.462 37.7198 223.483C36.4432 223.546 35.1674 222.943 33.9567 222.623C32.2038 223.939 31.7861 224.758 29.3414 224.424C28.1814 224.266 26.3596 223.774 25.6583 222.792C24.3993 221.032 26.1837 206.576 26.7861 203.873C27.011 202.858 27.2968 201.861 27.6442 200.882C27.0264 198.819 26.3478 196.804 25.8847 194.698C23.931 185.815 22.2755 169.706 24.0666 160.763C24.614 158.031 25.6949 155.212 27.0264 152.767C29.7657 147.738 34.6749 143.333 39.7211 140.679L39.7204 140.678ZM88.5161 99.9864C88.3915 100.042 88.2706 100.104 88.1526 100.172C88.0347 100.24 87.9203 100.314 87.8097 100.394C87.699 100.474 87.5928 100.558 87.4909 100.649C87.389 100.74 87.2916 100.835 87.1992 100.935C87.1069 101.035 87.0204 101.14 86.9384 101.249C86.857 101.358 86.7808 101.471 86.7104 101.588C86.6401 101.704 86.5763 101.824 86.5184 101.947C86.454 102.085 86.3968 102.225 86.3462 102.368C86.2957 102.511 86.2524 102.656 86.2173 102.804C86.1813 102.951 86.1528 103.1 86.1322 103.25C86.1117 103.4 86.0985 103.551 86.0927 103.703C86.0868 103.854 86.089 104.006 86.0985 104.157C86.1081 104.309 86.1249 104.459 86.1498 104.609C86.174 104.758 86.2063 104.906 86.2458 105.053C86.2854 105.199 86.3323 105.343 86.3858 105.485C86.805 106.574 87.5334 107.292 88.585 107.764C89.1178 107.794 89.6278 107.784 90.1327 107.596C91.0817 107.243 91.808 106.53 92.2293 105.615C92.7416 104.502 92.7225 103.274 92.2902 102.139C91.8974 101.106 91.1528 100.13 90.1401 99.6521C89.7048 99.6594 89.312 99.6997 88.8972 99.8401C88.7682 99.8833 88.6407 99.9323 88.5169 99.9886L88.5161 99.9864ZM95.0456 92.5445C95.7212 91.0392 95.6751 89.1564 95.0712 87.6357C94.663 86.6094 94.1383 85.9767 93.13 85.5291C92.7782 85.5313 92.4059 85.5298 92.063 85.6125C91.2107 85.8165 90.4588 86.4529 90.0016 87.1829C89.2519 88.3788 88.9829 89.9595 89.3427 91.3274C89.6982 92.6769 90.4962 93.581 91.6878 94.262C92.2608 94.4083 92.7218 94.4851 93.2927 94.2839C94.1149 93.9935 94.696 93.325 95.0463 92.5452L95.0456 92.5445ZM92.4367 127.97C93.0105 126.518 92.9197 124.926 92.2425 123.526C91.5639 122.123 90.5453 121.278 89.0987 120.772C88.2677 120.738 87.6309 120.824 86.8973 121.238C85.6654 121.933 84.896 123.221 84.5728 124.569C84.1925 126.15 84.3295 127.991 85.2492 129.366C85.9908 130.476 86.9406 130.916 88.2003 131.177C88.6576 131.146 89.1031 131.069 89.5325 130.902C90.8824 130.376 91.9069 129.311 92.4375 127.97H92.4367ZM81.8921 152.052C82.699 153.162 83.667 153.566 84.9685 153.782C85.5724 153.688 86.1755 153.554 86.7361 153.304C88.5249 152.508 89.6447 150.842 90.2786 149.052C90.7886 147.613 90.9931 146.025 90.2786 144.614C89.449 142.975 87.8617 142.165 86.2011 141.613C85.0675 141.48 84.0576 141.65 83.0954 142.296C81.791 143.17 81.0098 144.677 80.7357 146.191C80.3942 148.081 80.7467 150.476 81.8921 152.052ZM66.4574 161.634C67.2848 162.967 68.557 163.588 70.0211 163.959C71.5725 164.14 73.0455 164.103 74.4511 163.324C75.625 162.672 76.5762 161.583 76.9375 160.279C77.2219 159.254 77.0159 158.171 76.4531 157.278C75.5635 155.865 74.1271 155.236 72.5582 154.899C71.0017 154.776 69.5265 154.844 68.1246 155.627C67.0986 156.199 66.1782 157.131 65.8792 158.294C65.5905 159.418 65.8506 160.657 66.4574 161.633V161.634ZM63.3393 151.305C64.5081 150.628 65.4908 149.563 65.825 148.231C65.8572 148.103 65.8829 147.975 65.9019 147.844C65.921 147.714 65.9335 147.584 65.9393 147.452C65.9452 147.321 65.9444 147.19 65.9371 147.059C65.9298 146.928 65.9159 146.797 65.8953 146.668C65.8748 146.538 65.8477 146.409 65.8147 146.282C65.781 146.155 65.7415 146.03 65.6953 145.907C65.6491 145.784 65.5971 145.663 65.5385 145.546C65.4798 145.428 65.4161 145.313 65.3465 145.202C64.4913 143.841 63.1282 143.334 61.6391 142.988C60.1405 142.854 58.7159 143.026 57.3792 143.772C56.2082 144.427 55.213 145.47 54.8583 146.787C54.5798 147.823 54.7645 148.956 55.3105 149.874C56.0982 151.198 57.4393 151.816 58.8727 152.181C60.4512 152.333 61.9469 152.109 63.3393 151.303V151.305ZM49.1863 166.756C50.0525 168.044 51.4895 168.486 52.9295 168.772C54.445 168.829 55.7384 168.652 57.0245 167.765C58.0072 167.088 58.8485 166.072 59.0479 164.868C59.0654 164.76 59.0786 164.651 59.0852 164.542C59.0918 164.433 59.094 164.324 59.0896 164.215C59.086 164.106 59.0764 163.997 59.0618 163.888C59.0471 163.78 59.0266 163.673 59.0017 163.567C58.976 163.46 58.9453 163.356 58.9093 163.252C58.8734 163.149 58.8324 163.048 58.7862 162.948C58.7401 162.85 58.6888 162.753 58.6331 162.659C58.5774 162.565 58.5166 162.474 58.4521 162.386C57.5778 161.182 56.1569 160.729 54.755 160.496C53.3311 160.419 51.9505 160.56 50.6922 161.303C49.6948 161.891 48.9349 162.828 48.6828 163.968C48.4703 164.93 48.6344 165.936 49.187 166.757L49.1863 166.756ZM34.4682 157.658C35.2883 158.769 36.5744 159.22 37.8825 159.434C39.3921 159.549 40.9486 159.272 42.2743 158.526C43.4285 157.876 44.4478 156.817 44.7944 155.512C45.0363 154.601 44.919 153.626 44.4149 152.822C43.6051 151.532 42.1526 151.014 40.7463 150.674C39.0586 150.524 37.4955 150.75 36.0673 151.726C34.9812 152.467 34.0637 153.586 33.8402 154.91C33.6797 155.86 33.893 156.877 34.4682 157.658ZM33.4848 173.383C33.8124 171.97 33.8329 170.225 32.9989 168.984C32.4735 168.203 31.8176 167.882 30.9148 167.7C30.5989 167.734 30.297 167.783 29.9944 167.887C28.8929 168.263 28.0663 169.303 27.6156 170.335C26.9817 171.786 26.8733 173.57 27.5006 175.04C27.9601 176.118 28.6496 176.728 29.713 177.175C30.2926 177.158 30.8107 177.113 31.3134 176.799C32.4918 176.064 33.1792 174.7 33.4841 173.383L33.4848 173.383ZM27.2815 191.495C27.675 192.4 28.2752 193.025 29.1978 193.374C29.5048 193.376 29.8375 193.369 30.1336 193.273C31.0189 192.988 31.7033 192.186 32.0624 191.358C32.582 190.163 32.582 188.708 32.0521 187.515C31.6212 186.545 31.0276 186.031 30.0486 185.668C29.7262 185.668 29.3957 185.715 29.0893 185.821C28.262 186.106 27.612 186.806 27.2609 187.591C26.7223 188.795 26.759 190.293 27.2815 191.495Z" fill="#E7BC3D"/>
<path d="M3.55637 175.531C4.26135 174.066 4.39839 172.342 4.74135 170.767C5.57164 166.952 7.96064 164.451 12.0747 164.582C12.1223 164.583 12.1692 164.59 12.2169 164.595C13.3982 164.771 14.474 164.989 15.2148 166.028C16.1617 167.357 16.0444 169.497 15.7381 171.032C15.7073 171.179 15.6729 171.325 15.6355 171.47C15.5974 171.616 15.5563 171.76 15.5109 171.903C15.4655 172.047 15.4171 172.189 15.3651 172.329C15.313 172.47 15.2574 172.609 15.198 172.748C15.1394 172.886 15.0763 173.023 15.0104 173.157C14.9444 173.293 14.8756 173.426 14.803 173.557C14.7305 173.689 14.655 173.818 14.5758 173.946C14.4967 174.074 14.4146 174.2 14.3296 174.324C14.2446 174.448 14.1559 174.569 14.0651 174.688C13.9742 174.807 13.8796 174.924 13.7822 175.039C13.6847 175.154 13.585 175.266 13.4825 175.376C13.3799 175.485 13.2743 175.592 13.1659 175.697C13.0582 175.801 12.9475 175.903 12.8339 176.002C12.7211 176.101 12.6053 176.197 12.4873 176.29C12.3693 176.384 12.2491 176.474 12.1267 176.561C12.0043 176.648 11.8798 176.733 11.753 176.814C9.72454 178.141 7.42275 178.712 5.01469 178.713C3.75937 178.691 2.6572 178.457 1.45757 178.099C2.23436 177.321 3.07271 176.535 3.55637 175.53V175.531Z" fill="#714F2B"/>
<path d="M73.0932 208.024C74.0378 208.428 74.7493 208.956 75.1671 209.926C75.5503 210.816 75.5254 211.867 75.1531 212.756C74.7904 213.623 74.059 214.384 73.1789 214.731C72.7297 214.908 72.2717 214.981 71.7961 215.042C71.0544 215.052 70.4308 215.06 69.824 214.592C69.2693 213.688 69.6936 209.878 69.7749 208.659C70.9159 207.907 71.7799 207.914 73.0939 208.024H73.0932Z" fill="#714F2B"/>
<path d="M80.675 77.9327C82.4536 78.5179 83.6356 79.5873 84.4901 81.2514C85.2566 82.7458 85.5893 84.562 85.0214 86.1763C84.7129 87.0555 84.194 87.6963 83.5088 88.3114C82.6844 88.8725 81.4906 89.5622 80.4625 89.4445L80.2419 89.3033C80.1576 87.8989 79.9949 78.7695 80.2947 78.0029C80.45 77.943 80.505 77.9144 80.675 77.9327Z" fill="#714F2B"/>
<path d="M79.86 201.127C79.4702 201.043 79.1734 200.815 78.8612 200.58C78.2947 199.798 78.0448 199.02 78.2031 198.044C78.4149 196.734 79.2906 195.525 80.3605 194.768C81.3125 194.095 82.216 193.847 83.3644 193.765C83.4494 195.818 83.2596 198.095 83.0163 200.138C82.0959 200.765 81.0164 201.376 79.8593 201.127H79.86Z" fill="#714F2B"/>
<path d="M68.0829 156.495C69.2327 155.672 70.606 155.426 71.994 155.534C73.4296 155.753 74.8351 156.281 75.7196 157.501C76.226 158.2 76.4459 159.031 76.2736 159.883C76.0465 161.008 75.2023 161.981 74.2415 162.568C73.1547 163.232 72.0878 163.343 70.8508 163.37C69.4994 163.224 68.3064 162.894 67.4028 161.796C66.7418 160.993 66.3783 159.88 66.5352 158.843C66.6817 157.871 67.2966 157.058 68.0829 156.495V156.495Z" fill="#714F2B"/>
<path d="M83.0405 143.229C83.8429 142.527 84.704 142.283 85.7497 142.36C87.1927 142.704 88.607 143.242 89.4402 144.561C90.1115 145.623 90.1152 146.874 89.8257 148.06C89.3999 149.807 88.3022 151.632 86.709 152.531C86.2898 152.768 85.8186 152.905 85.3606 153.046C84.2768 153.032 83.4985 152.829 82.7312 152.022C81.569 150.8 81.2612 148.935 81.3418 147.306C81.4158 145.808 81.876 144.248 83.0405 143.229Z" fill="#714F2B"/>
<path d="M88.3359 130.438C87.3312 130.299 86.6988 130.053 86.0642 129.234C85.1826 128.096 84.9737 126.485 85.1972 125.097C85.3885 123.907 85.9447 122.723 86.9677 122.031C87.5386 121.644 88.1095 121.502 88.7895 121.492C90.0734 121.9 91.0554 122.69 91.6651 123.906C91.701 123.978 91.7355 124.05 91.7677 124.123C91.8 124.196 91.8307 124.27 91.8593 124.346C91.8879 124.42 91.9143 124.496 91.9385 124.572C91.9627 124.648 91.9854 124.725 92.0059 124.803C92.0264 124.88 92.0447 124.958 92.0616 125.036C92.0784 125.114 92.0924 125.193 92.1048 125.272C92.1173 125.351 92.1275 125.43 92.1356 125.51C92.1437 125.59 92.1503 125.67 92.1539 125.749C92.1583 125.829 92.1598 125.909 92.1598 125.989C92.1598 126.069 92.1576 126.149 92.1539 126.229C92.1503 126.309 92.1437 126.389 92.1349 126.468C92.1268 126.548 92.1166 126.628 92.1041 126.707C92.0916 126.786 92.077 126.865 92.0609 126.943C92.044 127.021 92.0257 127.099 92.0052 127.176C91.9846 127.254 91.9619 127.331 91.937 127.407C91.9128 127.483 91.8857 127.559 91.8571 127.634C91.4365 128.742 90.5608 129.679 89.4615 130.14C89.0988 130.292 88.7229 130.373 88.3359 130.438Z" fill="#714F2B"/>
<path d="M55.9356 149.554C55.8748 149.454 55.8191 149.35 55.7692 149.244C55.7194 149.138 55.6747 149.029 55.6359 148.918C55.597 148.807 55.564 148.695 55.5369 148.581C55.5098 148.467 55.4886 148.351 55.4739 148.235C55.4593 148.119 55.4505 148.002 55.4475 147.884C55.4446 147.767 55.4483 147.649 55.4578 147.532C55.4673 147.415 55.4827 147.299 55.5047 147.184C55.5259 147.068 55.5538 146.955 55.5875 146.842C55.9371 145.68 56.8956 144.749 57.9538 144.202C59.0486 143.636 60.172 143.524 61.3805 143.614C62.7259 143.903 64.0963 144.371 64.8606 145.604C64.9163 145.695 64.9669 145.788 65.0123 145.884C65.0578 145.98 65.0988 146.078 65.1347 146.178C65.1706 146.278 65.2014 146.38 65.2263 146.483C65.252 146.586 65.2718 146.691 65.2864 146.796C65.3011 146.902 65.3106 147.007 65.3143 147.114C65.3179 147.22 65.3172 147.326 65.3099 147.433C65.3025 147.539 65.2908 147.644 65.2732 147.749C65.2556 147.854 65.2322 147.958 65.2043 148.06C64.89 149.233 63.971 150.17 62.9318 150.752C61.7234 151.429 60.4857 151.579 59.1234 151.524C57.8549 151.211 56.6472 150.725 55.9356 149.555V149.554Z" fill="#714F2B"/>
<path d="M0.217867 177.254C0.952888 176.469 1.92461 176.538 2.58489 175.466C3.6145 173.797 3.72956 171.767 4.15826 169.899C5.16443 165.515 8.21517 163.528 12.5637 163.574C13.4439 162.059 14.1349 160.461 15.0964 158.987C17.8386 154.787 22.4986 150.024 27.4811 148.693C28.0014 148.554 28.5429 148.462 29.0772 148.398C36.2149 139.743 44.7119 136.548 55.4661 134.695C58.3454 134.199 61.2627 133.897 64.1303 133.336C66.1939 132.932 68.2868 132.41 70.297 131.799C71.8608 131.323 73.4313 130.715 75.0332 130.394C78.3947 116.803 79.3466 102.597 79.7108 88.6446C79.9131 80.9211 79.9805 73.0601 79.3041 65.3585C74.0813 60.7072 72.0455 54.056 71.6424 47.2505C71.5376 45.6508 71.5186 44.0496 71.5845 42.447C71.6505 40.8451 71.8015 39.2512 72.0382 37.6647C67.2338 36.6026 64.3018 34.7374 61.6006 30.5344C59.578 27.3876 57.389 21.8549 58.1688 18.0578C58.3395 17.2247 58.711 16.6183 59.4292 16.1502C61.8226 14.5914 67.0718 14.4993 69.8016 15.1517C74.4924 16.2738 77.3511 19.7504 80.4224 23.1532C82.9213 20.7313 85.6459 19.0336 88.8154 17.6197C87.9302 15.2227 87.2354 12.7584 86.4543 10.3263C85.1835 10.1946 84.1459 9.95763 83.3141 8.88531C82.6304 8.0039 82.4135 6.87818 82.5747 5.78757C82.5871 5.70564 82.6011 5.62372 82.6179 5.54253C82.634 5.46134 82.6524 5.38014 82.6729 5.29968C82.6934 5.21922 82.7154 5.13949 82.7403 5.05976C82.7645 4.98077 82.7916 4.90177 82.8202 4.8235C82.8488 4.74524 82.8788 4.66843 82.9118 4.59163C82.944 4.51483 82.9785 4.43949 83.0144 4.36488C83.051 4.29027 83.0891 4.21639 83.1287 4.14324C83.169 4.0701 83.2108 3.99841 83.254 3.92819C83.2973 3.85724 83.3427 3.78775 83.3903 3.71973C83.4372 3.65097 83.4863 3.58441 83.5369 3.51784C83.5875 3.45201 83.6395 3.38691 83.693 3.32401C83.7465 3.26037 83.8022 3.19893 83.8586 3.13821C83.9158 3.0775 83.9744 3.01899 84.0337 2.9612C84.0938 2.90342 84.1547 2.84782 84.2177 2.79296C84.2807 2.7381 84.3445 2.68544 84.4097 2.63424C84.4749 2.58304 84.5416 2.5333 84.6097 2.48575C85.6254 1.7616 86.8419 1.43537 88.0789 1.66139C89.409 1.90424 90.591 2.6079 91.3253 3.75484C91.8009 4.498 91.9973 5.27408 92.1827 6.12112C91.8185 7.32656 91.3444 8.04267 90.443 8.93578C91.2945 11.2706 91.9446 13.6954 92.8357 16.0097C95.3529 15.5884 97.7536 15.4889 100.305 15.5277C100.726 13.1197 101.178 10.7169 101.661 8.32062C100.552 7.53869 99.508 6.69531 99.2347 5.28652C99.0104 4.13081 99.3915 2.89464 100.083 1.96202C100.861 0.91384 102.118 0.191155 103.417 0.0360855C103.758 -0.00487636 104.095 -0.0136539 104.437 0.016336C105.998 0.324281 107.364 1.03307 108.274 2.38627C108.93 3.36131 109.214 4.53165 108.936 5.68663C108.653 6.86428 107.842 7.75813 106.812 8.355C106.434 8.57371 106.041 8.74999 105.637 8.9153C105.069 11.4228 105.045 14.0216 104.518 16.5269C106.952 17.2584 109.183 18.2341 111.449 19.3796C114.405 14.6719 118.771 11.689 124.209 10.4514C126.171 10.0052 129.933 9.71186 131.678 10.771C132.303 11.1506 132.591 11.7834 132.746 12.4739C133.644 16.4442 132.052 21.9339 129.84 25.2591C128.308 27.5632 126.236 29.7144 123.973 31.3127C123.222 31.8437 122.375 32.2467 121.642 32.7902C123.896 39.3551 123.685 47.1664 120.662 53.4694C120.39 54.0362 120.082 54.587 119.783 55.14C122.653 58.4009 124.143 61.879 123.841 66.2663C123.647 69.1036 122.563 71.9922 120.353 73.8735C119.54 74.5647 118.53 74.8844 117.594 75.3686C115.92 78.5929 113.741 81.8603 110.108 83.0241C107.02 84.013 102.929 83.2655 99.9976 82.068C99.6861 85.5425 99.4992 89.0243 99.4362 92.5119C99.2625 98.8163 99.2537 105.102 99.9939 111.376C101.239 121.933 103.553 132.419 103.906 143.062C104.005 146.01 103.838 148.984 103.541 151.917C103.365 153.66 103.073 155.385 103.001 157.137C102.422 171.094 101.75 185.049 101.945 199.021C102.007 203.592 102.28 208.149 102.765 212.694C102.946 214.35 103.152 216.002 103.385 217.653C103.628 219.294 104.085 220.902 103.898 222.571C105.368 224.559 107.184 226.45 106.804 229.151C106.67 230.107 106.188 230.953 105.382 231.498C104.373 232.181 102.944 232.337 101.778 232.033C101.497 231.96 101.232 231.836 100.969 231.714C100.339 232.826 99.7433 233.68 98.4308 234.041C96.4668 234.581 93.6323 233.439 91.949 232.444C90.4782 231.575 89.5607 230.61 89.1386 228.921C88.715 227.227 88.6571 225.394 88.5186 223.656C88.2922 220.904 88.1038 218.149 87.9536 215.392C87.3263 204.667 86.9343 193.933 86.7774 183.192C86.3451 183.486 85.9171 183.8 85.4561 184.048C84.7578 191.732 84.2697 199.568 84.3195 207.285C84.3415 210.634 84.568 214.022 84.8274 217.362C85.0333 220.019 86.0124 225.879 85.4129 228.24C86.4982 230.308 87.4655 232.968 86.6844 235.303C86.381 236.21 85.7779 237.016 84.8867 237.409C83.4174 238.057 81.7261 237.458 80.3073 236.961C79.8024 237.818 79.2052 238.581 78.2049 238.869C76.4717 239.366 73.8944 238.338 72.398 237.463C71.2782 236.807 70.1314 235.792 69.8001 234.495C68.9999 231.354 69.1611 227.832 69.0886 224.602C69.0057 220.88 68.8489 217.178 68.8958 213.452C68.9449 209.569 69.1846 205.689 69.2688 201.807C69.367 197.284 69.156 192.769 69.1545 188.248C62.9284 188.717 56.8753 188.854 50.6866 187.958C48.516 193.955 47.0071 200.813 47.0013 207.215C46.9742 210.281 46.8752 213.412 47.5963 216.418C48.3057 219.376 51.6144 221.104 50.7548 224.562C50.5965 225.199 50.3371 225.843 49.8622 226.312C49.251 226.917 48.3423 227.129 47.5033 227.091C46.8818 227.063 46.2575 226.997 45.6382 226.938C44.8343 227.745 44.262 228.197 43.1371 228.518C43.2016 229.805 43.217 231.068 42.2526 232.069C41.5689 232.778 40.5693 232.988 39.6188 232.979C38.7753 232.971 37.978 232.823 37.1675 232.597C36.5226 233.667 35.7818 234.355 34.5477 234.684C32.4218 235.25 29.138 234.573 27.2913 233.415C25.8044 232.482 25.5149 230.738 25.1873 229.131C23.7422 222.044 24.6876 207.74 26.8032 200.784C23.5847 191.505 21.6793 172.596 23.0731 162.724C23.4608 159.976 24.2545 157.453 25.2658 154.879C22.1227 156.445 19.9557 158.531 18.0951 161.517C17.4392 162.568 16.8779 163.693 16.1553 164.699C17.3601 166.261 17.6151 168.331 17.3725 170.244C17.0127 173.087 15.7229 175.485 13.4439 177.24C10.8563 179.234 7.25077 180.26 4.00217 179.807C2.80547 179.641 0.795338 178.96 0.0222096 177.966C-0.0100346 177.62 -0.0408168 177.529 0.218602 177.252L0.217867 177.254ZM48.5922 137.247C46.6818 137.746 41.9822 138.987 41.0793 140.67C40.8866 141.029 40.8441 141.434 40.9665 141.825C41.2479 142.722 42.4138 143.397 43.2053 143.8C43.4126 143.872 43.6222 143.936 43.834 143.991C44.0465 144.047 44.2605 144.094 44.476 144.132C44.6922 144.17 44.9091 144.2 45.1275 144.22C45.3458 144.242 45.5649 144.253 45.7841 144.257C46.0032 144.261 46.2223 144.255 46.4414 144.241C46.6605 144.227 46.8782 144.204 47.0951 144.172C47.312 144.141 47.5274 144.1 47.7414 144.051C47.9554 144.002 48.1672 143.945 48.3761 143.879C49.9414 143.389 51.5118 142.46 52.2681 140.952C52.5986 140.294 52.7459 139.549 52.4879 138.839C52.1538 137.919 51.4305 137.329 50.5892 136.901C49.8989 136.94 49.2584 137.07 48.5915 137.245L48.5922 137.247ZM69.4572 133.237C68.8497 133.532 68.5389 133.845 68.3359 134.494C68.0758 135.324 68.3572 136.236 68.7844 136.96C69.54 138.239 70.7337 138.992 72.1503 139.342C73.8988 139.541 75.5169 139.331 77.0118 138.32C78.0092 137.645 78.8637 136.623 79.0769 135.412C79.2162 134.624 79.0608 133.825 78.5947 133.169C77.8172 132.076 76.5545 131.647 75.2868 131.454C73.7757 131.393 70.8532 132.562 69.4564 133.238L69.4572 133.237ZM78.5214 118.855C79.8933 118.846 80.9808 118.666 82.2105 118.046C83.1309 117.493 83.9114 116.77 84.3767 115.787C84.4111 115.714 84.4427 115.639 84.4734 115.565C84.5035 115.49 84.5321 115.414 84.5584 115.338C84.5848 115.262 84.609 115.185 84.6317 115.107C84.6544 115.029 84.675 114.951 84.6933 114.872C84.7116 114.794 84.7285 114.714 84.7431 114.635C84.7578 114.555 84.7702 114.475 84.7805 114.396C84.7907 114.315 84.7995 114.235 84.8061 114.154C84.8127 114.074 84.8171 113.993 84.8193 113.912C84.8215 113.832 84.8223 113.751 84.8201 113.67C84.8186 113.589 84.8142 113.508 84.8083 113.428C84.8025 113.348 84.7944 113.267 84.7849 113.187C84.7746 113.106 84.7629 113.026 84.749 112.947C84.7351 112.868 84.7189 112.789 84.7013 112.71C84.683 112.631 84.6632 112.552 84.6412 112.475C84.6193 112.397 84.5951 112.32 84.5694 112.243C84.5431 112.166 84.5152 112.091 84.4859 112.016C83.6908 109.96 82.0229 108.546 80.0399 107.696L79.776 107.74C79.5415 108.162 78.4929 117.961 78.5214 118.855ZM79.6573 23.8137C79.3488 23.3836 78.9875 22.9703 78.638 22.5739C75.8708 19.4388 72.4522 16.2665 68.0699 15.9768C66.0239 15.7611 61.4511 15.8986 59.7971 17.2313C59.257 17.6665 59.1332 18.379 59.0936 19.0343C58.8239 23.5058 61.3397 29.2375 64.323 32.4984C66.5383 34.9188 69.0395 35.9845 72.2001 36.6596L72.9886 33.499C69.6675 32.8436 66.9231 31.8474 64.962 28.9179C63.4216 26.6174 62.8933 23.6023 62.628 20.8915C66.3471 20.1067 70.305 21.0488 73.4635 23.1093C74.9717 24.0931 76.1251 25.281 77.2859 26.6467C77.7703 26.1346 79.6346 24.4077 79.7665 23.8759L79.6581 23.8152L79.6573 23.8137ZM73.1565 32.8765L73.3587 32.5722C74.2909 30.5519 75.4656 28.9266 76.8733 27.2201C73.7691 23.6762 70.7205 21.7254 65.9469 21.3882C65.0866 21.3341 64.2314 21.427 63.3747 21.4972C63.4224 22.135 63.5264 22.7633 63.6342 23.3939C64.1332 26.3299 65.1819 29.2967 67.7277 31.0713C68.9193 31.9015 71.7736 33.1135 73.1572 32.8765H73.1565ZM90.805 6.82917C91.0674 6.21474 91.0359 5.53009 90.7713 4.92152C90.2708 3.77093 89.1129 3.02337 87.9749 2.61302C86.8016 2.54939 85.7998 2.82661 84.9153 3.63415C84.1341 4.34732 83.6006 5.35966 83.575 6.42687C83.5574 7.16199 83.7765 7.92344 84.3049 8.45521C84.9439 9.09816 85.5822 9.22398 86.4579 9.21739C87.105 9.12084 87.7785 8.99869 88.3948 8.77632C89.3562 8.42888 90.3866 7.80787 90.8043 6.82917H90.805ZM89.5878 9.26055C88.8337 9.58386 88.0401 9.80695 87.2574 10.0498C88.1082 12.4709 88.6337 15.8386 90.1096 17.9079C90.4752 18.0483 90.8446 18.1061 91.2337 18.0381C91.6397 17.9671 91.8214 17.7938 92.0508 17.4683C92.1871 16.4998 90.0451 10.662 89.5878 9.25982V9.26055ZM106.579 7.3507C107.277 6.87891 107.767 6.165 107.902 5.32967C108.055 4.37951 107.761 3.403 107.191 2.63789C106.414 1.59337 105.381 1.20057 104.143 1.01551C103.551 0.992837 102.914 1.16693 102.384 1.42221C101.405 1.894 100.661 2.69568 100.349 3.74606C100.106 4.55944 100.161 5.41964 100.613 6.14964C101.312 7.27829 102.59 7.7947 103.836 8.05144C104.806 8.0551 105.76 7.90588 106.58 7.35143L106.579 7.3507ZM104.777 8.97016C104.028 8.94309 103.331 8.86117 102.595 8.72L102.467 8.79388C101.882 10.3841 101.535 13.8695 101.251 15.7186L103.413 16.2168L103.703 16.186C104.16 15.0142 104.439 10.673 104.777 8.97016ZM122.053 31.3741C122.271 31.2534 122.486 31.1283 122.7 30.9989C122.913 30.8701 123.123 30.7363 123.331 30.5995C123.539 30.462 123.745 30.3208 123.947 30.176C124.149 30.0311 124.349 29.8819 124.546 29.729C124.743 29.5762 124.936 29.4196 125.127 29.2594C125.317 29.0993 125.505 28.9354 125.69 28.7679C125.874 28.6004 126.055 28.4292 126.233 28.2551C126.411 28.0811 126.586 27.9033 126.757 27.7219C126.927 27.5412 127.095 27.3569 127.259 27.1689C127.423 26.9817 127.583 26.7908 127.74 26.5969C127.897 26.4031 128.049 26.2071 128.199 26.0074C128.348 25.8077 128.493 25.6058 128.634 25.401C128.775 25.1962 128.913 24.9884 129.046 24.7778C129.179 24.5671 129.308 24.355 129.434 24.1392C129.559 23.9242 129.68 23.7069 129.796 23.4867C131.588 20.1359 132.564 15.3266 131.45 11.6195C130.811 11.4037 130.217 11.2926 129.553 11.2018C127.187 10.9941 125.007 11.2691 122.727 11.9377C118.316 13.2317 114.484 15.9512 112.254 19.9918C113.161 20.6289 114.016 21.2609 114.85 21.9924C115.373 21.0773 116.005 20.3203 116.81 19.6429C119.93 17.0199 124.303 15.8101 128.323 16.1787C128.339 17.3425 128.206 18.4755 128.046 19.6261C127.817 20.8001 127.476 21.9441 126.954 23.023C125.564 25.8911 123.074 27.9223 120.091 28.9778C120.566 29.8702 120.97 30.8043 121.392 31.723C121.614 31.6104 121.835 31.4941 122.053 31.3726L122.053 31.3741ZM115.41 22.3954C116.337 23.4911 117.289 24.5693 118.092 25.7601C118.655 26.6628 119.219 27.5595 119.835 28.427C120.193 28.3085 120.544 28.1732 120.89 28.0196C121.234 27.866 121.57 27.6956 121.897 27.5083C122.225 27.3211 122.542 27.1177 122.849 26.899C123.156 26.6803 123.452 26.4462 123.734 26.1975C126.574 23.7486 127.514 20.4804 127.774 16.8575C126.672 16.8012 125.576 16.8575 124.486 17.0257C120.961 17.597 117.504 19.4813 115.41 22.3947V22.3954ZM102.316 81.7389C105.228 82.5859 108.367 82.9385 111.112 81.4324C112.891 80.4559 115.582 77.8775 116.136 75.9523L116.026 75.8184C114.609 76.0525 112.656 78.846 109.552 79.3441C109.392 79.369 109.23 79.3902 109.068 79.407C108.906 79.4238 108.745 79.437 108.582 79.4458C108.42 79.4545 108.257 79.4597 108.095 79.4611C107.932 79.4618 107.769 79.4589 107.607 79.4523C107.444 79.445 107.283 79.4341 107.121 79.4194C106.959 79.4048 106.797 79.3858 106.636 79.3624C106.475 79.3397 106.314 79.3126 106.155 79.2819C105.995 79.2512 105.836 79.2168 105.678 79.178C105.52 79.1393 105.363 79.0969 105.207 79.0508C105.051 79.0047 104.896 78.9542 104.743 78.9001C104.589 78.846 104.438 78.7882 104.287 78.7267C104.137 78.6653 103.988 78.6002 103.84 78.5314C103.693 78.4627 103.547 78.3903 103.404 78.3142C103.26 78.2381 103.118 78.1591 102.978 78.0757C102.838 77.9931 102.7 77.9068 102.565 77.8168C102.429 77.7268 102.296 77.6339 102.165 77.5381C99.4765 75.5836 96.0191 71.0142 94.6201 68.0064C94.3218 67.3671 94.0719 66.7096 93.869 66.0344C93.666 65.3593 93.5128 64.6724 93.4087 63.9746C94.3431 65.6094 95.2584 67.2464 96.4932 68.6801C99.8781 72.6117 105.724 74.7739 110.791 75.1506C113.824 75.3759 117.664 74.9048 120.017 72.7902C121.914 71.0844 122.694 68.5097 122.838 66.0366C123.091 61.6976 121.428 58.4418 118.615 55.2717C121.897 51.0855 122.478 43.2457 121.85 38.154C121.083 31.9307 118.125 25.619 113.078 21.7393C107.151 17.1837 100.302 16.2021 93.0716 16.8268C93.0101 17.5327 92.9471 18.0513 92.3799 18.5289C91.8662 18.9605 91.1751 19.0161 90.5339 18.9129C90.1719 18.8544 89.8216 18.7154 89.4801 18.5874C87.7491 19.1536 86.1992 19.9362 84.6947 20.9647C81.3392 23.2593 76.822 27.9399 74.9577 31.5782C71.6336 38.0677 72.0426 49.0601 74.2681 55.7537C76.3479 62.0092 80.5887 65.8142 86.4118 68.686C87.5997 69.2799 88.8242 69.7875 90.0847 70.2081C89.398 67.2881 89.2478 64.6124 89.4302 61.6237C88.342 61.8453 86.9775 62.225 85.8673 62.0523L85.7485 61.8951C86.5034 60.8908 88.6461 60.5331 89.8406 60.3641C90.3126 60.3012 90.7852 60.2537 91.2601 60.2215C91.65 60.2983 92.2641 60.3744 92.5147 60.7021L92.4121 60.8966C91.7885 61.209 91.0879 61.3275 90.4122 61.4855C89.7336 65.2883 90.4899 70.0245 92.352 73.4127C94.4897 77.304 98.0065 80.4859 102.315 81.7396L102.316 81.7389ZM113.868 76.0723C107.922 76.1776 103.061 74.8814 98.1618 71.4897C98.1567 71.6937 98.1384 71.5899 98.2644 71.8291C99.615 74.3848 102.78 77.2719 105.563 78.1226C107.983 78.8628 110.125 78.5658 112.334 77.3735C112.908 76.9859 113.374 76.555 113.868 76.073V76.0723ZM91.1641 230.632C92.8518 232.402 95.5933 232.967 97.9383 232.983C98.1743 232.932 98.4278 232.862 98.6484 232.767C100.591 231.933 99.3761 229.251 99.8481 227.802L100.031 227.83C100.829 228.696 100.925 229.463 100.946 230.594C101.813 230.958 102.805 231.272 103.755 231.079C104.72 230.883 105.182 230.309 105.688 229.517C105.751 226.679 104.671 225.176 102.856 223.158C101.561 223.019 100.505 222.841 99.3058 222.324C99.1299 222.43 98.9452 222.693 98.7935 222.843C98.0922 223.536 97.4825 224.013 96.5152 224.299C94.1592 224.997 91.6206 223.956 89.5695 222.858C89.6948 225.209 89.4251 228.807 91.1641 230.632V230.632ZM88.7971 211.089C88.9862 214.421 88.9678 217.909 89.4478 221.209C90.2444 222.035 91.2396 222.627 92.3154 223.015C94.0082 223.624 95.6336 223.645 97.2802 222.882C97.769 222.468 98.0365 221.781 98.5238 221.406C99.1936 220.893 100.901 221.847 101.724 221.948C102.137 222 102.348 221.922 102.674 221.678C102.806 221.406 102.861 221.183 102.843 220.883C102.766 219.531 102.358 218.113 102.155 216.764C101.806 214.328 101.548 211.883 101.38 209.428C101.029 209.397 100.672 209.369 100.328 209.29C99.316 209.059 98.3875 208.422 97.8482 207.533C97.2289 206.512 97.1029 205.235 97.4063 204.092C97.9178 202.164 99.2354 200.893 100.906 199.934C100.954 197.815 100.864 195.673 100.836 193.552C100.404 193.515 99.9463 193.482 99.5293 193.356C99.4164 193.32 99.305 193.279 99.1966 193.233C99.0881 193.186 98.9819 193.134 98.8785 193.076C98.7752 193.018 98.6755 192.955 98.5788 192.887C98.4821 192.819 98.389 192.746 98.3003 192.669C98.2117 192.59 98.1267 192.509 98.046 192.421C97.9654 192.334 97.89 192.244 97.8189 192.149C97.7478 192.055 97.6826 191.957 97.6217 191.855C97.5609 191.754 97.506 191.65 97.4561 191.542C96.8486 190.208 97.1447 188.573 97.6701 187.257C98.3304 185.602 99.412 184.382 101.067 183.684C101.167 179.115 101.302 174.548 101.471 169.982C101.573 166.834 101.586 163.657 101.868 160.52C101.073 162.053 100.635 163.927 99.9646 165.542C97.1366 172.349 93.7033 177.847 87.7755 182.429C88.1302 191.987 88.2548 201.533 88.7964 211.088L88.7971 211.089ZM100.951 200.756C100.662 200.923 100.374 201.095 100.112 201.303C99.0222 202.167 98.1567 203.554 98.0636 204.961C97.9845 206.152 98.4125 206.94 99.1819 207.806C99.8319 208.332 100.537 208.522 101.326 208.741C101.194 206.079 101.111 203.417 100.951 200.757V200.756ZM101.002 184.448C100.738 184.599 100.462 184.751 100.217 184.932C98.9804 185.846 98.1171 187.462 97.9024 188.968C97.739 190.113 97.95 191.007 98.6448 191.925C98.7598 192.023 98.8697 192.118 99.0002 192.195C99.4816 192.481 100.174 192.74 100.728 192.58C101.193 191.777 101.028 185.792 101.002 184.448H101.002ZM70.5776 233.273C70.8781 234.734 71.5823 235.785 72.8575 236.579C74.4081 237.545 76.3596 238.174 78.1697 237.722C78.2246 237.678 78.2803 237.635 78.3346 237.591C80.5946 235.742 78.9765 234.512 79.2447 233.033C79.2799 232.838 79.3803 232.819 79.5269 232.71C79.8662 232.688 79.8977 232.686 80.1901 232.856C80.7595 233.697 80.7199 234.93 80.5616 235.897C81.8338 236.419 82.881 236.698 84.269 236.66C85.0553 236.108 85.5961 235.413 85.8643 234.483C86.4491 232.453 85.599 230.077 84.5753 228.327C83.3925 227.864 82.1812 227.547 81.0336 226.985C80.4385 227.242 80.3425 228.642 78.3426 229.251C75.7975 230.024 72.5314 228.992 70.2633 227.818C70.297 229.597 70.2193 231.528 70.5784 233.274L70.5776 233.273ZM49.5698 187.796C47.0599 187.38 44.6606 186.838 42.2072 186.165L41.9052 186.153C41.8004 186.225 41.7807 186.228 41.6942 186.349C41.2369 186.987 40.9108 189.272 40.6821 190.167C38.6193 198.225 36.7315 210.042 38.9849 218.118C40.0651 218.444 41.4245 218.799 42.5523 218.625C43.7527 218.44 44.1836 217.8 44.8277 216.876C45.4213 217.062 46.0918 217.485 46.7089 217.49L46.7228 217.271C45.8779 214.029 45.8735 210.876 45.9585 207.557C45.9174 207.551 45.8771 207.544 45.8361 207.539C45.3158 207.476 44.8805 207.433 44.4173 207.164C44.3367 207.117 44.2591 207.066 44.1836 207.011C44.1081 206.956 44.0363 206.898 43.9667 206.835C43.897 206.773 43.8318 206.707 43.7688 206.637C43.7065 206.568 43.6479 206.496 43.5922 206.421C43.5372 206.346 43.4859 206.268 43.439 206.187C43.3921 206.106 43.3489 206.024 43.3108 205.939C43.2727 205.854 43.2382 205.767 43.2089 205.678C43.1796 205.59 43.1547 205.501 43.1342 205.409C42.833 204.098 43.3423 202.356 44.0597 201.241C44.7141 200.224 45.4521 199.731 46.6261 199.498C47.2167 195.557 48.3028 191.574 49.5684 187.796L49.5698 187.796ZM46.4517 200.202C46.1322 200.294 45.8053 200.439 45.5261 200.62C44.5712 201.237 43.9659 202.511 43.7776 203.597C43.5966 204.64 43.719 205.401 44.3199 206.267C44.7911 206.635 45.3231 206.843 45.8661 207.081C46.0757 204.79 46.2707 202.497 46.4509 200.202H46.4517ZM43.1312 227.586C43.8685 227.193 44.27 226.857 44.709 226.142C44.764 225.726 44.761 225.487 44.5918 225.103C44.465 224.814 44.3829 224.563 44.3096 224.256C44.3778 224.166 44.3939 224.135 44.498 224.061C44.7588 223.874 44.986 223.836 45.2923 223.869C45.6976 224.198 45.7811 224.804 46.0017 225.263C46.1922 225.659 46.4942 225.924 46.9141 226.061C47.4454 226.233 48.0272 226.156 48.5153 225.891C49.1059 225.57 49.5112 225.022 49.6805 224.375C50.033 223.03 49.3544 221.351 48.6399 220.208C47.7524 218.789 46.9295 218.678 45.3869 218.33L45.2674 218.367C45.0461 218.619 44.7918 218.947 44.5119 219.134C43.1474 220.051 40.7525 219.556 39.2099 219.339C39.61 220.563 39.9603 221.877 40.5261 223.034C41.2853 224.585 42.3097 226.054 43.1312 227.587V227.586ZM27.1022 231.68C27.9369 232.811 29.4568 233.281 30.7898 233.511C32.6174 233.825 34.1102 233.99 35.6916 232.858C35.7884 232.756 35.8726 232.651 35.9489 232.533C36.8246 231.167 35.9305 229.786 35.6074 228.43L35.8045 228.248C36.1218 228.219 36.316 228.165 36.5893 228.377C37.4035 229.008 37.4284 230.685 37.4174 231.627C38.5943 231.814 40.0937 232.12 41.168 231.452C41.6627 231.145 41.969 230.662 42.0928 230.098C42.5618 227.962 41.0302 225.841 39.9288 224.147C39.8892 224.168 39.8504 224.191 39.8101 224.212C38.0718 225.088 36.3658 224.471 34.651 223.888C34.3454 223.939 33.2491 225.213 31.7073 225.487C29.5682 225.868 27.5294 225.177 25.8058 223.941C25.8791 226.026 25.8887 230.036 27.1007 231.679L27.1022 231.68ZM24.4472 160.762C22.6562 169.704 24.3116 185.813 26.2653 194.696C26.7285 196.803 27.4071 198.818 28.0248 200.881C27.6782 201.86 27.3924 202.857 27.1667 203.872C26.5651 206.575 24.7799 221.03 26.0389 222.791C26.7402 223.772 28.562 224.265 29.7221 224.423C32.166 224.756 32.5837 223.938 34.3374 222.621C35.5487 222.942 36.8238 223.545 38.1004 223.482C38.532 223.461 38.9212 223.354 39.2165 223.02C39.5089 222.69 39.0883 221.818 38.9476 221.4C37.7941 217.979 37.1829 214.713 37.032 211.107C36.2215 211.29 35.238 211.559 34.418 211.356C33.6918 211.176 33.0454 210.455 32.6746 209.84C31.9388 208.621 31.8223 207.112 32.1997 205.758C32.5024 204.672 33.0652 203.752 34.0684 203.199C34.895 202.744 35.9137 202.444 36.8407 202.73C37.0232 202.786 36.8957 202.775 37.1719 202.701C37.4841 201.772 37.5398 200.723 37.6746 199.754C37.8894 198.214 38.1151 196.667 38.4207 195.141C39.8687 187.922 43.1166 180.014 42.2995 172.619C42.4541 172.316 42.5215 172.14 42.8264 171.963L43.0968 172.056C44.4774 174.262 42.5523 182.191 41.9514 184.931C50.8537 187.627 59.9708 188.106 69.1948 187.234C69.1684 185.97 68.7661 180.148 69.463 179.399L69.8206 179.448C70.0566 179.699 70.0815 179.838 70.1277 180.177C70.4736 182.704 70.2398 185.502 70.2677 188.059C70.338 194.574 70.3534 201.048 70.2193 207.562C71.0408 207.356 71.9099 207.176 72.7615 207.239C73.8475 207.318 74.82 207.811 75.5088 208.656C75.555 208.713 75.5997 208.772 75.6429 208.831C75.6862 208.89 75.7279 208.951 75.7682 209.013C75.8085 209.074 75.8466 209.137 75.884 209.201C75.9214 209.264 75.9566 209.329 75.9903 209.394C76.024 209.459 76.0555 209.526 76.0863 209.593C76.1163 209.66 76.1449 209.727 76.172 209.796C76.1984 209.865 76.224 209.933 76.2468 210.003C76.2702 210.072 76.2915 210.143 76.3113 210.214C76.331 210.285 76.3486 210.355 76.3647 210.428C76.3809 210.5 76.3948 210.571 76.4073 210.644C76.4197 210.717 76.43 210.79 76.4388 210.863C76.4476 210.936 76.4542 211.009 76.4586 211.083C76.4637 211.156 76.4666 211.23 76.4673 211.303C76.4688 211.376 76.4673 211.45 76.4651 211.523C76.4622 211.596 76.4578 211.67 76.4512 211.743C76.4446 211.816 76.4366 211.889 76.4263 211.962C76.416 212.036 76.4036 212.11 76.3897 212.183C76.3757 212.256 76.3596 212.329 76.342 212.401C76.3244 212.474 76.3047 212.546 76.2827 212.618C76.2614 212.69 76.238 212.761 76.2123 212.83C76.1874 212.9 76.1603 212.97 76.1317 213.039C76.1031 213.108 76.0723 213.176 76.0401 213.243C76.0079 213.311 75.9734 213.377 75.9382 213.442C75.9023 213.508 75.865 213.572 75.8261 213.636C75.7873 213.7 75.7462 213.763 75.7037 213.824C75.6612 213.886 75.6173 213.945 75.5718 214.005C75.5264 214.064 75.4795 214.122 75.4311 214.179C75.3828 214.236 75.3329 214.291 75.2816 214.346C75.2303 214.4 75.1776 214.452 75.1233 214.504C75.0691 214.556 75.0142 214.606 74.957 214.655C74.8998 214.704 74.8419 214.751 74.7833 214.796C74.724 214.842 74.6639 214.886 74.6023 214.929C73.1953 215.893 71.5882 215.792 69.9987 215.504C69.9745 219.132 70.1196 222.786 70.2699 226.412C71.3742 227.297 72.8604 227.907 74.2337 228.219C76.2196 228.67 77.9638 228.544 79.7233 227.444C79.8852 227.094 80.0919 226.497 80.385 226.246C81.2922 225.47 82.7388 226.803 83.8139 226.84C84.1158 226.851 84.2638 226.9 84.4925 226.696C84.6112 225.461 84.3452 224.097 84.2221 222.864C84.0103 220.818 83.822 218.769 83.6578 216.718C83.3339 211.532 83.2284 206.341 83.3405 201.146C82.9257 201.339 82.4963 201.496 82.0536 201.615C81.1222 201.872 80.0508 201.937 79.1912 201.426C78.5266 201.03 78.1279 200.367 77.9792 199.619C77.7065 198.247 78.2093 196.736 78.9992 195.617C80.1615 193.968 81.8712 193.288 83.7809 192.936C83.8571 189.684 84.2536 186.395 84.5313 183.155C84.6742 181.487 84.6251 179.437 85.0773 177.849C85.1645 177.542 85.2297 177.417 85.5104 177.273L85.7463 177.477C86.2227 178.728 85.7764 181.369 85.6804 182.789C86.8075 181.967 87.925 181.091 88.9612 180.159C93.4227 176.146 96.6588 170.91 98.8991 165.384C99.9162 162.874 100.898 160.33 101.531 157.692C105.388 141.617 100.246 124.903 98.7276 108.836C97.8709 99.7687 98.5129 90.5428 98.9643 81.4697C94.9719 79.1429 91.9944 75.7599 90.3441 71.4275C86.8588 70.1196 83.5244 68.6545 80.5492 66.376C80.5147 66.4221 80.4627 66.4594 80.4451 66.5135C80.4129 66.6145 80.7258 75.9596 80.7397 76.9595C81.71 77.2616 82.5703 77.5674 83.3881 78.1957C85.0165 79.4465 86.0974 81.5363 86.3297 83.5617C86.5151 85.1819 86.1201 86.8935 85.0641 88.1619C83.8982 89.5626 82.3504 90.1141 80.588 90.2465C80.5177 95.8583 80.193 101.408 79.7372 107.001C80.9779 107.356 82.0639 107.84 83.0371 108.698C84.4111 109.907 85.4481 111.613 85.525 113.473C85.5903 115.036 85.0223 116.624 83.915 117.741C82.3175 119.352 80.4385 119.647 78.2847 119.659C77.7659 122.716 76.9745 127.935 75.6158 130.692C76.7825 131.007 77.9711 131.448 78.8124 132.355C79.499 133.094 79.7966 134.044 79.7482 135.044C79.6844 136.368 78.9926 137.533 77.9997 138.383C77.9059 138.462 77.8106 138.538 77.7131 138.612C77.6157 138.686 77.5167 138.758 77.4156 138.827C77.3145 138.895 77.2126 138.962 77.1078 139.026C77.0038 139.09 76.8982 139.151 76.7905 139.21C76.6835 139.268 76.5751 139.325 76.4644 139.378C76.3545 139.431 76.2431 139.482 76.131 139.529C76.0189 139.577 75.9053 139.622 75.7902 139.665C75.6752 139.707 75.5601 139.746 75.4429 139.783C75.3263 139.819 75.2084 139.853 75.0904 139.883C74.9717 139.914 74.8529 139.941 74.7335 139.966C74.614 139.991 74.4938 140.012 74.3729 140.031C74.252 140.05 74.1311 140.066 74.0095 140.079C73.8878 140.091 73.7662 140.101 73.6438 140.108C73.5214 140.115 73.3998 140.119 73.2774 140.12C73.155 140.121 73.0333 140.118 72.911 140.112C72.7886 140.107 72.6669 140.099 72.5453 140.088C71.0122 139.93 69.5341 139.202 68.591 137.967C67.5709 136.631 67.543 135.203 67.7314 133.615C62.3752 135.008 56.8248 135.31 51.4363 136.516C52.1831 137.249 52.8748 137.955 53.1306 139.009C53.3673 139.987 53.1094 140.984 52.5795 141.821C51.5426 143.459 49.5361 144.424 47.6828 144.788C45.8427 145.15 43.4691 145.03 41.895 143.925C40.7173 143.098 40.367 142.012 40.1003 140.677C35.0541 143.331 30.1449 147.736 27.4056 152.765C26.0741 155.21 24.9932 158.028 24.4457 160.761L24.4472 160.762ZM37.1477 204.043C36.9228 203.674 36.6333 203.605 36.2522 203.414C35.3604 203.371 34.6466 203.535 33.9695 204.15C33.1465 204.897 32.7237 206.072 32.6775 207.163C32.624 208.432 33.0454 209.407 33.8823 210.334C34.0464 210.44 34.2165 210.526 34.3975 210.598C35.2966 210.954 36.0829 210.605 36.9044 210.237C36.9 208.169 37.2203 206.102 37.1477 204.043ZM70.2046 214.593C70.8114 215.061 71.4351 215.053 72.1767 215.043C72.6523 214.981 73.111 214.909 73.5595 214.732C74.4396 214.384 75.171 213.624 75.5337 212.757C75.906 211.867 75.9309 210.817 75.5477 209.927C75.1299 208.955 74.4184 208.429 73.4738 208.024C72.1598 207.915 71.2958 207.909 70.1548 208.659C70.0735 209.879 69.6492 213.689 70.2039 214.593H70.2046ZM83.7457 193.764C82.5974 193.847 81.6938 194.094 80.7419 194.768C79.6712 195.525 78.7963 196.733 78.5845 198.044C78.4262 199.02 78.6761 199.798 79.2425 200.58C79.5547 200.816 79.8515 201.043 80.2414 201.127C81.3985 201.375 82.4772 200.765 83.3984 200.138C83.6417 198.095 83.8315 195.818 83.7465 193.764H83.7457ZM80.6232 89.3029L80.8438 89.4441C81.8719 89.5626 83.0657 88.8721 83.8901 88.3111C84.5753 87.6959 85.0934 87.0552 85.4027 86.1759C85.9699 84.5616 85.6379 82.7447 84.8714 81.251C84.0176 79.5862 82.8348 78.5175 81.0563 77.9324C80.8863 77.9141 80.832 77.9426 80.6759 78.0026C80.3762 78.7692 80.5389 87.8985 80.6232 89.3029ZM25.8696 153.498C26.5438 152.198 27.3001 150.948 28.1377 149.746C26.3855 150.03 24.7718 151.001 23.3208 151.983C19.9059 154.293 17.1593 157.581 15.1631 161.159C14.727 161.939 14.2163 162.806 14.0484 163.693L14.2053 163.897L15.3052 164.317C17.6656 159.457 20.7061 155.478 25.8703 153.499L25.8696 153.498ZM5.396 178.712C7.80405 178.712 10.1059 178.14 12.1343 176.814C12.2611 176.732 12.3857 176.648 12.508 176.561C12.6304 176.474 12.7506 176.383 12.8686 176.29C12.9866 176.197 13.1016 176.1 13.2152 176.002C13.3288 175.903 13.4387 175.801 13.5472 175.697C13.6556 175.592 13.7604 175.485 13.8638 175.376C13.9664 175.266 14.066 175.154 14.1635 175.039C14.261 174.924 14.3548 174.807 14.4464 174.688C14.538 174.569 14.6259 174.447 14.7109 174.324C14.7959 174.2 14.8787 174.074 14.9571 173.946C15.0363 173.818 15.1118 173.689 15.1843 173.557C15.2569 173.425 15.3265 173.292 15.3917 173.157C15.4577 173.022 15.5199 172.886 15.5793 172.747C15.6387 172.609 15.6944 172.47 15.7464 172.329C15.7984 172.188 15.8475 172.046 15.8922 171.903C15.9377 171.76 15.9787 171.616 16.0168 171.47C16.0549 171.325 16.0886 171.178 16.1194 171.031C16.4257 169.497 16.543 167.357 15.5962 166.028C14.8553 164.989 13.7795 164.771 12.5982 164.594C12.5513 164.59 12.5036 164.583 12.456 164.581C8.34194 164.45 5.95294 166.951 5.12265 170.767C4.77969 172.342 4.64265 174.066 3.93768 175.531C3.45401 176.536 2.6164 177.321 1.83888 178.099C3.03851 178.457 4.1414 178.692 5.396 178.713V178.712Z" fill="#010101"/>
<path d="M101.155 59.0975C101.392 59.0207 101.658 58.9878 101.905 58.9629C102.523 59.1202 102.963 59.2708 103.292 59.8502C103.55 60.3059 103.62 60.8713 103.445 61.3687C103.292 61.8039 102.935 62.2098 102.505 62.3869C102.241 62.4959 101.935 62.539 101.651 62.5397C101.021 62.3349 100.48 62.0665 100.181 61.4396C99.9754 61.0073 99.9351 60.5063 100.123 60.0608C100.299 59.6439 100.721 59.2379 101.155 59.0975Z" fill="#010101"/>
<path d="M117.499 58.7289C117.778 58.6784 118.081 58.6923 118.363 58.6982C118.969 59.061 119.4 59.4157 119.567 60.1326C119.689 60.6563 119.622 61.2276 119.309 61.6745C119.076 62.0073 118.656 62.3438 118.245 62.4125C117.971 62.4579 117.672 62.4293 117.396 62.4125C116.783 62.0307 116.356 61.7096 116.18 60.9789C116.06 60.4859 116.108 59.979 116.38 59.5445C116.613 59.17 117.055 58.8101 117.499 58.7296L117.499 58.7289Z" fill="#010101"/>
<path d="M112.246 50.7268C110.334 50.3882 108.749 49.6479 107.624 47.989C106.388 46.1676 106.056 43.6953 106.506 41.566C106.907 39.6701 107.895 37.7397 109.569 36.6784C110.636 36.0025 111.869 35.737 113.121 35.7721C114.983 36.0179 116.443 36.8612 117.581 38.352C118.931 40.1192 119.326 42.3618 119.016 44.5328C118.73 46.5326 117.777 48.5017 116.098 49.6962C114.946 50.5154 113.643 50.8095 112.247 50.7276L112.246 50.7268ZM113.196 50.0692C113.278 50.0612 113.36 50.0517 113.442 50.04C113.523 50.0283 113.604 50.0144 113.686 49.9983C113.766 49.9822 113.847 49.9639 113.927 49.9442C114.007 49.9237 114.087 49.9017 114.165 49.8776C114.244 49.8535 114.322 49.8271 114.4 49.7986C114.477 49.7708 114.554 49.7401 114.63 49.7079C114.706 49.6757 114.781 49.6421 114.855 49.6062C114.929 49.5704 115.002 49.5324 115.074 49.4929C116.546 48.7 117.633 47.1939 118.114 45.6103C118.687 43.7238 118.534 41.3363 117.559 39.6115C116.646 37.995 115.272 37.1173 113.528 36.6191C112.107 36.5562 110.845 36.663 109.643 37.5239C107.918 38.7623 107.144 41.1476 106.791 43.1445C106.931 42.9785 106.891 43.0472 106.979 42.8665C107.667 41.4402 108.251 40.2859 109.85 39.7088C110.865 39.3431 111.901 39.4228 112.853 39.9283C114.139 40.6114 115.088 41.9288 115.5 43.3054C115.982 44.9183 115.766 46.4485 114.994 47.9144C114.545 48.4673 114.042 48.9194 113.387 49.2178C112.107 49.8008 110.943 49.4819 109.698 49.0357C110.177 49.3758 110.679 49.6772 111.243 49.8549C111.322 49.8805 111.401 49.9039 111.481 49.9251C111.561 49.9464 111.64 49.9661 111.721 49.9829C111.802 50.0005 111.883 50.0151 111.964 50.0283C112.046 50.0415 112.127 50.0524 112.209 50.0612C112.291 50.07 112.373 50.0773 112.455 50.0824C112.537 50.0875 112.62 50.0897 112.703 50.0905C112.785 50.0905 112.868 50.0897 112.95 50.0861C113.032 50.0824 113.115 50.0773 113.197 50.0692H113.196ZM110.614 42.4591C110.738 42.9668 111.119 43.1584 111.542 43.3742C111.611 43.3691 111.68 43.3654 111.749 43.3588C112.206 43.312 112.632 43.1679 112.903 42.7671C113.097 42.4811 113.168 42.2258 113.087 41.8827C112.965 41.3671 112.571 41.1725 112.148 40.934C111.594 41.0072 111.139 41.1227 110.796 41.5989C110.612 41.8557 110.537 42.1446 110.613 42.4584L110.614 42.4591Z" fill="#010101"/>
<path d="M112.148 40.9346C112.571 41.173 112.965 41.3676 113.087 41.8833C113.168 42.2263 113.097 42.4809 112.903 42.7676C112.632 43.1677 112.206 43.3118 111.749 43.3594C111.68 43.3667 111.611 43.3696 111.542 43.3747C111.118 43.1582 110.737 42.9666 110.614 42.4597C110.537 42.1459 110.612 41.8569 110.797 41.6002C111.139 41.1233 111.593 41.0084 112.149 40.9353L112.148 40.9346Z" fill="#FEFEFE"/>
<path d="M95.5249 46.5308C95.508 46.6954 95.4875 46.8592 95.4633 47.0231C95.4391 47.1869 95.4098 47.3493 95.3776 47.5117C94.9833 49.4281 93.9596 51.1858 92.2711 52.2435C90.9 53.1015 89.408 53.3853 87.8046 53.3473C85.7204 52.9947 83.9954 52.2413 82.71 50.4639C81.1366 48.2885 80.705 45.4833 81.1337 42.8727C81.4774 40.783 82.4909 38.6895 84.2709 37.4548C85.5893 36.5405 87.0784 36.3225 88.6415 36.5061C90.8502 36.9406 92.642 38.0371 93.9009 39.9162C93.9918 40.0544 94.0797 40.1949 94.1633 40.3375C94.2476 40.4801 94.3282 40.6242 94.4051 40.7705C94.4821 40.9168 94.5553 41.0653 94.6257 41.2153C94.6953 41.3652 94.762 41.5166 94.8243 41.6702C94.8866 41.8231 94.9452 41.9782 95.0002 42.134C95.0551 42.2898 95.1064 42.447 95.1533 42.6058C95.2002 42.7645 95.2442 42.924 95.283 43.0849C95.3226 43.2458 95.3578 43.4067 95.3893 43.5691C95.4208 43.7315 95.4487 43.8946 95.4721 44.0584C95.4956 44.2223 95.5153 44.3869 95.5307 44.5515C95.5461 44.716 95.5579 44.8813 95.5652 45.0459C95.5725 45.2112 95.5762 45.3765 95.5762 45.5418C95.5762 45.7072 95.571 45.8725 95.5622 46.0378C95.5535 46.2031 95.541 46.3677 95.5241 46.5322L95.5249 46.5308ZM94.8126 45.0342C94.8074 44.8887 94.7994 44.7438 94.7869 44.5983C94.7752 44.4534 94.7591 44.3086 94.74 44.1638C94.721 44.0197 94.6982 43.8756 94.6719 43.7329C94.6455 43.5896 94.6162 43.4477 94.5832 43.3058C94.5502 43.1639 94.5136 43.0234 94.4733 42.883C94.433 42.7433 94.3897 42.6043 94.3428 42.4668C94.2959 42.3293 94.2454 42.1925 94.1919 42.0572C94.1384 41.9218 94.0812 41.788 94.0219 41.6556C93.9618 41.5232 93.898 41.3923 93.8313 41.2621C93.7646 41.1326 93.695 41.0046 93.6225 40.8788C93.5499 40.753 93.4737 40.6286 93.3953 40.5065C93.3161 40.3843 93.2348 40.2636 93.1498 40.1451C91.9055 38.4372 90.1914 37.5923 88.1541 37.2602C86.7882 37.1176 85.2991 37.6289 84.2379 38.4789C82.7298 39.6872 81.9867 41.5568 81.7881 43.4338C81.5338 45.8425 82.0131 48.4567 83.5953 50.3585C84.8579 51.8763 86.4694 52.5061 88.3828 52.6941C89.6725 52.6546 90.9403 52.294 91.9993 51.5435C93.5602 50.4375 94.3993 48.6169 94.699 46.7744C94.7224 46.631 94.7422 46.4869 94.7591 46.3421C94.7759 46.198 94.7884 46.0524 94.7979 45.9076C94.8074 45.7628 94.8133 45.6172 94.8155 45.4716C94.8177 45.3261 94.8162 45.1805 94.8118 45.0349L94.8126 45.0342Z" fill="#010101"/>
<path d="M91.9121 47.024C91.9041 47.1213 91.8938 47.2185 91.8813 47.3151C91.8689 47.4124 91.8535 47.5089 91.8359 47.6048C91.6139 48.8768 90.9939 50.1854 89.8895 50.9197C88.9053 51.5744 87.9527 51.5729 86.8249 51.5093C85.3204 51.1194 84.1735 50.4816 83.3549 49.0984C83.308 49.0194 83.2633 48.9397 83.2201 48.8585C83.1776 48.7773 83.1366 48.6954 83.0977 48.612C83.0589 48.5286 83.0222 48.4445 82.9878 48.3596C82.9526 48.2748 82.9204 48.1885 82.8903 48.1021C82.8596 48.0151 82.8317 47.9281 82.8053 47.8403C82.7789 47.7525 82.7555 47.664 82.7335 47.5748C82.7115 47.4855 82.6925 47.3956 82.6749 47.3056C82.6573 47.2156 82.6426 47.1249 82.6294 47.0342C82.617 46.9435 82.606 46.8521 82.5979 46.7606C82.5899 46.6692 82.5833 46.5778 82.5796 46.4856C82.5759 46.3942 82.5745 46.302 82.5752 46.2106C82.5752 46.1184 82.5789 46.027 82.584 45.9356C82.5891 45.8441 82.5965 45.7527 82.6067 45.6613C82.6163 45.5698 82.6287 45.4791 82.6426 45.3884C82.6566 45.2977 82.6734 45.2078 82.6925 45.1178C82.7115 45.0278 82.732 44.9386 82.7555 44.8501C83.097 43.5612 83.906 42.4026 85.0778 41.7392C85.8062 41.3266 86.5435 41.1694 87.3701 41.1079C88.8101 41.3281 89.9877 41.9469 90.8532 43.1465C90.9096 43.2262 90.9638 43.3074 91.0166 43.3901C91.0686 43.4727 91.1192 43.5561 91.1676 43.6417C91.2159 43.7265 91.2621 43.8129 91.3061 43.8999C91.35 43.9869 91.3918 44.0754 91.4314 44.1647C91.471 44.2539 91.5083 44.3446 91.5435 44.4361C91.5787 44.5275 91.6109 44.6197 91.6417 44.7126C91.6725 44.8055 91.7003 44.8991 91.726 44.9934C91.7516 45.0878 91.7751 45.1829 91.7963 45.278C91.8176 45.3738 91.8359 45.4696 91.852 45.5654C91.8681 45.662 91.8821 45.7585 91.8938 45.8558C91.9055 45.9531 91.9143 46.0504 91.9209 46.1477C91.9275 46.245 91.9319 46.343 91.9334 46.4403C91.9348 46.5376 91.9348 46.6356 91.9319 46.7329C91.929 46.8309 91.9231 46.9282 91.915 47.0254L91.9121 47.024ZM89.4139 43.9116C89.3348 43.3776 88.9398 43.1114 88.5375 42.8166C88.3418 42.7939 88.1491 42.7742 87.9512 42.7786C87.5372 42.7873 87.1202 42.919 86.8446 43.2467C86.6343 43.4969 86.5303 43.7317 86.5808 44.0637C86.6614 44.5889 87.0095 44.8486 87.4104 45.1368C87.5445 45.1551 87.6793 45.1748 87.8142 45.1865C88.3037 45.2282 88.802 45.1017 89.1479 44.7352C89.3582 44.5129 89.4579 44.2152 89.4132 43.9109L89.4139 43.9116Z" fill="#010101"/>
<path d="M87.8156 45.1867C87.6808 45.175 87.546 45.1553 87.4119 45.137C87.011 44.8488 86.6629 44.5891 86.5823 44.0639C86.531 43.7319 86.6358 43.4971 86.8461 43.2469C87.1217 42.9192 87.5386 42.7875 87.9527 42.7788C88.1498 42.7751 88.3433 42.7948 88.5389 42.8168C88.9413 43.1116 89.3362 43.3778 89.4154 43.9118C89.4601 44.2153 89.3604 44.5138 89.1501 44.7361C88.8035 45.1026 88.3059 45.2292 87.8164 45.1875L87.8156 45.1867Z" fill="#FEFEFE"/>
<path d="M29.4697 185.82C29.776 185.714 30.1065 185.667 30.429 185.667C31.408 186.031 32.0016 186.545 32.4325 187.515C32.9623 188.707 32.9623 190.163 32.4428 191.358C32.083 192.186 31.3985 192.988 30.514 193.273C30.2179 193.368 29.8859 193.376 29.5782 193.374C28.6555 193.026 28.0554 192.4 27.6618 191.495C27.1393 190.293 27.102 188.794 27.6413 187.59C27.9923 186.806 28.6431 186.106 29.4697 185.82ZM28.0107 190.159C28.1733 191.205 28.5954 191.995 29.4397 192.635C29.5679 192.638 29.6954 192.642 29.8244 192.64C30.4751 192.63 30.9881 192.33 31.4161 191.845C32.0595 191.115 32.2515 190.005 32.1636 189.064C32.0551 187.908 31.5729 187.114 30.6957 186.384C30.4634 186.355 30.2311 186.351 29.9973 186.374C29.4345 186.429 28.8937 186.831 28.5691 187.277C27.9894 188.074 27.8634 189.21 28.0114 190.16L28.0107 190.159Z" fill="#010101"/>
<path d="M92.6699 102.138C93.1023 103.272 93.1213 104.501 92.6091 105.614C92.1877 106.529 91.4622 107.241 90.5125 107.594C90.0068 107.782 89.4975 107.793 88.9648 107.763C87.9124 107.29 87.184 106.572 86.7656 105.483C86.7113 105.341 86.6652 105.197 86.6256 105.051C86.586 104.905 86.5538 104.756 86.5296 104.607C86.5047 104.457 86.4878 104.307 86.4783 104.156C86.4688 104.004 86.4673 103.853 86.4724 103.701C86.4783 103.55 86.4915 103.399 86.512 103.249C86.5333 103.099 86.5611 102.95 86.597 102.803C86.6329 102.655 86.6761 102.51 86.726 102.367C86.7765 102.224 86.8337 102.083 86.8982 101.946C86.9561 101.823 87.0206 101.703 87.0902 101.586C87.1605 101.47 87.2368 101.356 87.3181 101.247C87.4002 101.138 87.4867 101.034 87.579 100.934C87.6713 100.833 87.7688 100.738 87.8707 100.648C87.9725 100.557 88.0788 100.472 88.1894 100.392C88.3001 100.313 88.4144 100.239 88.5324 100.171C88.6504 100.103 88.7713 100.041 88.8959 99.9849C89.0204 99.9293 89.1472 99.8796 89.2762 99.8364C89.691 99.6967 90.0838 99.6565 90.5191 99.6484C91.5318 100.126 92.2764 101.103 92.6692 102.135L92.6699 102.138ZM89.2718 100.627C88.4782 100.883 87.8406 101.53 87.5028 102.28C87.45 102.399 87.4031 102.522 87.3628 102.647C87.3225 102.772 87.2881 102.898 87.2609 103.026C87.2331 103.154 87.2118 103.284 87.1972 103.415C87.1825 103.545 87.1752 103.676 87.1737 103.807C87.1723 103.938 87.1781 104.069 87.1899 104.2C87.2016 104.33 87.2206 104.46 87.2456 104.589C87.2705 104.717 87.3027 104.845 87.3408 104.971C87.3789 105.096 87.4236 105.219 87.4742 105.341C87.834 106.185 88.3858 106.705 89.2205 107.063C89.5268 107.038 89.8441 107.02 90.1446 106.953C90.9119 106.781 91.641 106.06 91.9884 105.381C92.4266 104.523 92.475 103.483 92.165 102.576C91.8235 101.577 91.1867 100.965 90.2516 100.517C89.9218 100.512 89.5899 100.525 89.2733 100.627H89.2718Z" fill="#010101"/>
<path d="M92.0682 94.2612C90.8766 93.5803 90.0786 92.6762 89.7232 91.3266C89.3634 89.9588 89.6323 88.3781 90.382 87.1822C90.84 86.4522 91.5911 85.8158 92.4434 85.6117C92.7864 85.5298 93.1594 85.5305 93.5104 85.5283C94.5188 85.9752 95.0435 86.6087 95.4516 87.6349C96.0562 89.1556 96.1017 91.0384 95.426 92.5445C95.0764 93.3242 94.4946 93.9928 93.6724 94.2832C93.1015 94.4851 92.6405 94.4075 92.0675 94.2612H92.0682ZM94.4132 92.8802C95.149 91.9659 95.3432 90.5184 95.1974 89.389C95.0405 88.174 94.5898 87.0242 93.6137 86.2539C93.4049 86.2408 93.1982 86.2291 92.9894 86.2481C92.2639 86.3146 91.575 86.7755 91.1375 87.3438C90.4523 88.2333 90.1797 89.544 90.3365 90.6434C90.5176 91.914 91.1207 92.7179 92.1305 93.461C92.4126 93.5642 92.675 93.6614 92.9835 93.6446C93.5221 93.6161 94.0791 93.295 94.4132 92.8802Z" fill="#010101"/>
<path d="M31.6946 176.799C31.1911 177.112 30.6738 177.157 30.0941 177.174C29.0301 176.727 28.3412 176.117 27.8817 175.039C27.2544 173.569 27.3636 171.785 27.9968 170.335C28.4475 169.303 29.2741 168.263 30.3755 167.886C30.6782 167.783 30.9801 167.734 31.2959 167.699C32.1988 167.881 32.8554 168.202 33.3801 168.984C34.214 170.224 34.1935 171.97 33.8659 173.382C33.5611 174.699 32.8737 176.063 31.6953 176.798L31.6946 176.799ZM33.1339 170.123C32.8041 169.199 32.3153 168.807 31.441 168.415C31.2439 168.423 31.0417 168.432 30.8482 168.472C30.0172 168.64 29.329 169.303 28.9128 170.012C28.2078 171.213 28.0026 172.866 28.3566 174.209C28.6365 175.273 29.1444 175.921 30.0824 176.475C30.3374 176.464 30.6027 176.458 30.8504 176.388C31.6799 176.153 32.3505 175.388 32.7323 174.651C33.3911 173.379 33.6212 171.488 33.1331 170.123L33.1339 170.123Z" fill="#010101"/>
<path d="M88.5807 131.177C87.3209 130.916 86.3712 130.476 85.6296 129.366C84.7099 127.991 84.5729 126.15 84.9532 124.568C85.2764 123.221 86.0458 121.933 87.2777 121.237C88.0105 120.823 88.6481 120.738 89.4791 120.771C90.9257 121.277 91.9451 122.122 92.6229 123.525C93.3 124.926 93.3909 126.518 92.8171 127.97C92.2873 129.31 91.2621 130.376 89.9122 130.902C89.4835 131.069 89.0379 131.146 88.5799 131.177H88.5807ZM92.2375 127.633C92.266 127.559 92.2924 127.482 92.3173 127.406C92.3422 127.33 92.365 127.253 92.3855 127.176C92.406 127.098 92.4243 127.021 92.4412 126.943C92.458 126.864 92.472 126.785 92.4844 126.706C92.4969 126.627 92.5071 126.548 92.5152 126.468C92.524 126.388 92.5298 126.308 92.5342 126.229C92.5386 126.149 92.5401 126.069 92.5401 125.989C92.5401 125.909 92.5386 125.829 92.5342 125.749C92.5298 125.669 92.524 125.589 92.5159 125.51C92.5079 125.43 92.4976 125.35 92.4851 125.272C92.4727 125.193 92.4588 125.114 92.4419 125.036C92.4258 124.957 92.4067 124.879 92.3862 124.802C92.3657 124.725 92.343 124.648 92.3188 124.572C92.2946 124.496 92.2675 124.421 92.2396 124.345C92.2111 124.271 92.181 124.197 92.148 124.123C92.1158 124.05 92.0814 123.977 92.0455 123.906C91.4357 122.69 90.4545 121.899 89.1699 121.492C88.4898 121.501 87.9189 121.643 87.3481 122.03C86.325 122.723 85.7688 123.907 85.5776 125.096C85.3548 126.485 85.5629 128.095 86.4445 129.234C87.0798 130.053 87.7115 130.299 88.7162 130.438C89.1032 130.372 89.4784 130.292 89.8419 130.139C90.9411 129.678 91.8161 128.741 92.2375 127.633Z" fill="#010101"/>
<path d="M51.0719 161.302C52.3302 160.56 53.7108 160.418 55.1347 160.495C56.5359 160.728 57.9575 161.181 58.8318 162.385C58.897 162.473 58.9571 162.564 59.0128 162.658C59.0685 162.752 59.1198 162.849 59.166 162.948C59.2121 163.047 59.2532 163.148 59.2891 163.251C59.325 163.354 59.3558 163.459 59.3814 163.566C59.4071 163.672 59.4268 163.779 59.4415 163.888C59.4562 163.996 59.4657 164.105 59.4694 164.214C59.473 164.324 59.4715 164.433 59.465 164.542C59.4576 164.651 59.4452 164.759 59.4276 164.867C59.229 166.07 58.387 167.087 57.4043 167.764C56.1182 168.651 54.8247 168.829 53.3092 168.771C51.8692 168.486 50.4322 168.042 49.566 166.756C49.0134 165.934 48.8493 164.929 49.0618 163.967C49.3139 162.827 50.0738 161.89 51.0712 161.301L51.0719 161.302ZM49.9471 165.966C50.5443 167.14 51.6611 167.66 52.8476 168.038C54.015 168.149 55.0915 168.1 56.1753 167.609C57.2284 167.132 58.2631 166.258 58.6545 165.141C58.889 164.471 58.8706 163.738 58.5284 163.107C57.9443 162.03 56.7161 161.562 55.6081 161.223C54.3345 161.126 53.1847 161.123 51.9828 161.652C51.0265 162.073 50.1691 162.79 49.8137 163.797C49.5594 164.517 49.6004 165.285 49.9471 165.966Z" fill="#010101"/>
<path d="M36.4485 151.726C37.8767 150.75 39.4391 150.524 41.1275 150.674C42.5338 151.014 43.9863 151.532 44.796 152.822C45.3002 153.626 45.4175 154.601 45.1756 155.513C44.829 156.817 43.8104 157.876 42.6555 158.526C41.3298 159.272 39.774 159.549 38.2637 159.435C36.9548 159.221 35.6695 158.77 34.8494 157.658C34.2742 156.878 34.0609 155.86 34.2214 154.91C34.4449 153.588 35.3631 152.468 36.4485 151.726ZM34.8736 155.935C34.8839 156.031 34.9 156.126 34.9198 156.221C34.9403 156.315 34.9652 156.409 34.9945 156.5C35.0239 156.592 35.0583 156.682 35.0971 156.771C35.136 156.859 35.1792 156.946 35.2261 157.031C35.2737 157.115 35.325 157.197 35.3807 157.276C35.4364 157.355 35.4965 157.431 35.5595 157.504C36.2733 158.324 37.3674 158.665 38.4146 158.762C39.9433 158.735 41.3247 158.548 42.6474 157.703C43.559 157.122 44.3358 156.244 44.5418 155.158C44.681 154.422 44.5593 153.707 44.1182 153.095C43.3216 151.987 41.9021 151.528 40.6153 151.31C39.0698 151.275 37.7184 151.572 36.4954 152.582C35.6629 153.271 34.9594 154.254 34.867 155.357C34.8582 155.453 34.8546 155.55 34.8553 155.647C34.856 155.743 34.8619 155.84 34.8729 155.936L34.8736 155.935Z" fill="#010101"/>
<path d="M55.6916 149.876C55.1456 148.957 54.9609 147.825 55.2394 146.789C55.5941 145.471 56.5893 144.429 57.7603 143.774C59.097 143.028 60.5216 142.856 62.0202 142.99C63.5093 143.336 64.8724 143.843 65.7276 145.204C65.7972 145.315 65.8617 145.43 65.9196 145.547C65.9782 145.665 66.0302 145.785 66.0764 145.909C66.1226 146.032 66.1621 146.157 66.1959 146.284C66.2296 146.411 66.2559 146.539 66.2765 146.67C66.297 146.8 66.3109 146.93 66.3182 147.061C66.3256 147.192 66.3263 147.323 66.3204 147.454C66.3146 147.585 66.3021 147.716 66.2831 147.846C66.264 147.977 66.2384 148.105 66.2061 148.233C65.8719 149.565 64.8892 150.63 63.7204 151.307C62.328 152.113 60.8331 152.337 59.2538 152.185C57.8204 151.82 56.4786 151.202 55.6916 149.878V149.876ZM63.3122 150.751C64.3506 150.17 65.2696 149.232 65.5847 148.059C65.6125 147.957 65.636 147.853 65.6536 147.748C65.6712 147.644 65.6836 147.538 65.6902 147.432C65.6968 147.326 65.6983 147.22 65.6946 147.113C65.6909 147.007 65.6814 146.901 65.6668 146.795C65.6521 146.69 65.6316 146.585 65.6067 146.482C65.581 146.379 65.551 146.277 65.5151 146.177C65.4792 146.077 65.4381 145.979 65.3927 145.883C65.3472 145.787 65.2967 145.694 65.241 145.603C64.4767 144.371 63.1063 143.902 61.7608 143.613C60.5524 143.523 59.429 143.635 58.3341 144.201C57.2759 144.748 56.3174 145.679 55.9686 146.841C55.9349 146.954 55.907 147.068 55.8858 147.183C55.8638 147.299 55.8484 147.415 55.8389 147.531C55.8293 147.648 55.8257 147.765 55.8286 147.883C55.8315 148 55.8403 148.117 55.855 148.234C55.8697 148.35 55.8909 148.466 55.918 148.58C55.9451 148.694 55.9781 148.807 56.0169 148.918C56.0558 149.029 56.1005 149.137 56.1503 149.244C56.2009 149.35 56.2558 149.453 56.3167 149.554C57.0282 150.724 58.2359 151.21 59.5045 151.524C60.8668 151.578 62.1038 151.428 63.3129 150.751H63.3122Z" fill="#010101"/>
<path d="M68.5058 155.626C69.9084 154.843 71.3828 154.775 72.9393 154.899C74.5083 155.235 75.9446 155.864 76.8343 157.278C77.3964 158.171 77.603 159.254 77.3187 160.278C76.9574 161.583 76.0069 162.672 74.8322 163.323C73.4267 164.103 71.9537 164.14 70.4023 163.959C68.9381 163.588 67.6659 162.966 66.8386 161.634C66.2318 160.657 65.9717 159.418 66.2604 158.294C66.5594 157.131 67.4798 156.199 68.5058 155.626ZM67.7839 161.795C68.6875 162.893 69.8805 163.223 71.2319 163.369C72.4689 163.342 73.5351 163.231 74.6226 162.567C75.5834 161.98 76.4276 161.007 76.6547 159.882C76.827 159.03 76.6071 158.2 76.1007 157.5C75.2169 156.281 73.8107 155.752 72.3751 155.533C70.9864 155.425 69.6138 155.671 68.464 156.494C67.6777 157.056 67.0628 157.87 66.9163 158.841C66.7594 159.878 67.1229 160.992 67.7839 161.795V161.795Z" fill="#010101"/>
<path d="M83.4766 142.295C84.4388 141.65 85.4486 141.48 86.5823 141.613C88.2429 142.165 89.8302 142.975 90.6597 144.613C91.3742 146.025 91.1698 147.613 90.6597 149.052C90.0258 150.842 88.9053 152.507 87.1172 153.304C86.5566 153.553 85.9535 153.689 85.3497 153.782C84.0482 153.566 83.0809 153.161 82.2733 152.052C81.1279 150.475 80.7754 148.081 81.1169 146.191C81.391 144.676 82.1729 143.17 83.4766 142.295ZM83.1124 152.022C83.8796 152.829 84.6579 153.032 85.7417 153.046C86.1998 152.905 86.671 152.768 87.0901 152.531C88.6833 151.632 89.7811 149.808 90.2068 148.06C90.4963 146.873 90.4926 145.622 89.8214 144.561C88.9881 143.243 87.5738 142.704 86.1309 142.36C85.0851 142.283 84.2241 142.527 83.4216 143.229C82.2572 144.248 81.7977 145.808 81.7229 147.306C81.6423 148.935 81.9501 150.8 83.1124 152.022Z" fill="#010101"/>
</g>
<defs>
<clipPath id="clip0_1666_13223">
<rect width="133" height="239" fill="white" transform="matrix(-1 0 0 1 133 0)"/>
</clipPath>
</defs>
</svg>
