<svg width="466" height="507" viewBox="0 0 466 507" fill="none" xmlns="http://www.w3.org/2000/svg">
<g clip-path="url(#clip0_1660_7789)">
<path d="M77.5764 186.928C77.1456 186.928 76.727 186.971 76.3208 187.057C76.727 186.977 77.1456 186.928 77.5764 186.928Z" fill="white"/>
<path d="M61.1735 183.037C54.4401 188.411 52.1135 197.332 51.4303 205.557C50.7964 213.098 51.061 220.757 51.5534 228.336C53.8738 228.114 56.2188 228.022 58.5577 228.028C58.4284 222.659 58.2869 217.291 58.293 211.929C58.293 205.631 58.7485 199.173 61.0689 193.244C63.3831 187.334 68.0116 181.959 73.7111 179.515C73.6495 179.497 73.5941 179.484 73.5326 179.478C69.1564 178.622 64.5833 180.315 61.1735 183.037Z" fill="white"/>
<path d="M84.4207 288.059C82.9558 287.492 81.534 286.846 80.1799 286.101C71.003 281.077 66.6145 269.762 70.289 259.905C72.1416 254.949 75.5576 251.36 79.8907 248.448C84.0821 245.629 87.7935 242.926 90.2801 238.9C90.2617 238.13 90.237 237.354 90.2124 236.585C84.4884 232.909 77.4164 231.746 70.6829 231.112C67.4824 230.804 64.251 230.564 61.0197 230.478C60.2257 230.453 59.4133 230.435 58.6193 230.435C56.3112 230.435 54.0031 230.521 51.7197 230.73C50.9257 230.798 50.1317 230.89 49.3377 231.001C47.9406 231.18 46.5557 231.413 45.1708 231.715C44.6354 231.912 44.106 232.128 43.5644 232.337C41.8103 233.02 39.9207 233.568 38.6836 235.064C38.6036 235.169 38.5235 235.267 38.4497 235.378C38.4189 235.427 38.3758 235.477 38.3389 235.514C37.7419 236.308 37.1879 237.114 36.6648 237.939C32.8672 243.936 30.9099 250.905 31.1192 258.169C31.6116 275.296 43.2505 290.133 58.1023 297.7C67.0269 302.249 76.8686 304.521 86.9072 305.395C83.0235 300.218 82.685 293.92 84.433 288.053L84.4207 288.059Z" fill="white"/>
<path d="M131.875 243.61C131.309 243.61 130.656 244.004 130.182 244.268C129.216 244.786 128.354 245.463 127.622 246.269C127.585 246.306 127.554 246.343 127.517 246.38C128.182 246.054 128.871 245.758 129.561 245.494C130.256 245.241 132.343 245.019 132.78 244.57C133.229 244.108 132.527 243.604 131.881 243.604L131.875 243.61Z" fill="white"/>
<path d="M200.219 177.133C193.455 174.701 184.986 177.582 179.809 182.132C172.608 188.473 169.426 198.138 168.312 207.41C167.259 216.201 167.475 225.171 167.561 234.049C169.998 233.107 172.694 232.682 175.224 232.22C175.544 232.165 175.87 232.11 176.19 232.054C175.082 219.298 174.713 206.08 180.388 194.284C184.309 186.133 191.541 179.343 200.219 177.133Z" fill="white"/>
<path d="M37.0586 83.7276C33.9442 81.5605 30.8914 80.7971 27.9371 81.0003C27.894 81.0865 27.8263 81.1788 27.7463 81.2589C20.0157 89.3853 20.1142 101.113 20.3357 111.604C20.3665 113.149 17.9723 113.143 17.9415 111.604C17.7199 101.323 17.8245 90.1734 24.201 81.7391C18.9201 83.4752 14.0824 87.797 10.0324 91.891C8.94302 92.9868 7.25658 91.3 8.33984 90.198C13.393 85.082 19.6649 79.7074 26.5522 78.6793C29.9312 78.1807 33.4518 78.7286 37.0463 80.8587C39.9699 82.601 42.5673 84.9219 44.8199 87.6C47.8112 81.9299 51.2457 76.4014 55.1171 71.23C50.7964 68.2196 45.934 66.1325 40.3638 65.5784C27.18 64.2856 11.2819 71.1808 5.0285 83.2412C1.48328 90.0872 2.38805 96.7607 4.15451 103.982C5.53936 109.622 6.45029 115.359 7.75513 121.023C9.02304 126.502 10.6787 132.019 13.8793 136.704C17.0921 141.407 21.7883 144.639 27.1923 146.234C29.4819 126.699 34.7444 107.559 43.5951 89.9579C41.6871 87.563 39.5021 85.4329 37.0525 83.7214L37.0586 83.7276Z" fill="white"/>
<path d="M207.599 192.007C207.599 187.931 204.3 184.625 200.219 184.625C199.456 184.625 198.717 184.742 198.022 184.957C198.717 184.742 199.45 184.625 200.213 184.625C204.294 184.625 207.593 187.931 207.593 192.007H207.599Z" fill="white"/>
<path d="M269.862 93.2079C275.881 96.3046 281.445 100.146 285.341 105.89C285.914 106.734 285.12 107.583 284.307 107.694C282.843 107.885 281.39 108.082 279.931 108.273C284.03 112.514 287.366 117.39 289.841 122.765C290.124 123.387 289.951 124.39 289.12 124.526C288.302 124.661 287.483 124.797 286.659 124.932C290.136 131.741 293.607 138.556 297.079 145.371C297.516 146.215 296.974 147.107 296.051 147.175C294.74 147.274 293.435 147.372 292.13 147.464C293.583 149.613 294.943 151.823 296.205 154.07C297.639 154.415 299.067 154.723 300.482 154.945C307.216 155.985 314.46 156.04 321.003 153.855C321.797 153.59 322.579 153.295 323.348 152.962C323.348 152.962 323.366 152.962 323.373 152.95C336.045 147.464 339.837 133.994 342.33 121.589C343.69 114.848 345.524 108.131 346.693 101.365C348.035 93.6265 345.936 86.0357 340.969 79.9531C331.675 68.5453 313.359 62.4319 299.239 66.8892C296.611 67.7203 294.161 68.8285 291.866 70.1644C291.17 70.5646 290.499 70.9832 289.828 71.4265C281.661 76.838 275.432 85.0814 269.862 93.2079ZM289.594 112.49C291.102 106.438 293.54 100.645 296.913 95.3996C298.347 93.1648 299.947 90.9362 301.744 88.8861C302.298 88.252 302.877 87.6363 303.474 87.0453C305.172 85.3338 307.037 83.8009 309.093 82.5819C312.651 80.4641 316.547 79.6822 320.43 80.1194C322.258 80.3225 324.08 80.8027 325.871 81.5353C331.651 83.9056 336.138 88.3936 340.459 92.7523C341.548 93.8482 339.849 95.5474 338.766 94.4454C334.704 90.339 330.512 86.048 325.09 83.7947C324.296 83.4685 323.489 83.1914 322.689 82.9821C330.051 92.2414 330.149 104.702 329.909 116.116C329.872 117.661 327.478 117.661 327.515 116.116C327.761 104.603 327.866 91.7058 319.372 82.7974C319.255 82.6866 319.175 82.5635 319.119 82.4342C315.605 82.2803 312.164 83.2899 309.025 85.4816C307.456 86.5774 305.979 87.8272 304.612 89.2185C304.009 89.8034 303.431 90.4314 302.871 91.0778C297.46 97.3019 293.817 105.472 291.915 113.13C291.546 114.62 289.231 113.986 289.607 112.49H289.594Z" fill="white"/>
<path d="M37.4957 232.885C38.3389 232.097 39.3175 231.531 40.3946 231.045C40.7147 230.897 41.0471 230.762 41.3856 230.626C41.4348 230.608 41.4841 230.589 41.5333 230.571C41.8964 230.423 42.2719 230.275 42.6412 230.134C42.5919 230.054 42.5365 229.974 42.4873 229.893C38.0065 222.604 35.6738 214.312 34.609 205.84C32.3502 187.808 34.0982 166.593 42.5735 149.644C43.0043 148.776 43.4598 147.927 43.9276 147.083C45.9956 143.353 48.4206 139.862 51.2334 136.698C50.7533 134.407 50.9564 131.914 51.8428 129.784C53.2276 126.447 55.8188 123.904 58.6993 121.805C61.826 119.54 65.2851 117.44 69.2304 117.243C69.6366 117.225 69.9382 117.379 70.1228 117.619C73.8404 118.197 76.7947 120.906 77.281 124.225C87.0488 121.534 98.343 123.467 107.655 126.386C112.062 127.777 116.488 129.181 121.048 130.036C126.323 131.021 131.684 130.991 136.99 130.239C147.422 128.768 157.381 125.013 167.604 122.593C176.406 120.506 185.423 119.041 194.458 118.364C194.926 116.277 196.501 114.565 198.385 113.389C205.715 108.79 213.286 113.371 220.142 116.541C223.571 118.13 226.87 119.78 229.178 122.883C231.215 125.616 232.311 129.07 231.831 132.487C231.621 134.001 231.055 135.405 230.243 136.642C232.101 139.012 233.837 141.481 235.431 144.036C239.912 151.208 243.34 159.051 245.525 167.221C247.981 176.4 248.578 185.82 248.369 195.288C248.067 208.826 248.356 225.128 241.088 237.22C245.162 238.863 248.861 241.326 251.803 244.675C258.438 252.211 260.463 262.676 258.881 272.404C258.42 275.229 257.663 278.055 256.573 280.721C260.254 278.295 263.83 275.679 267.283 272.908C267.677 272.588 268.064 272.274 268.452 271.948C269.283 271.271 270.102 270.581 270.914 269.879C287.335 255.757 300.55 238.051 309.192 218.159C317.636 198.717 321.668 177.484 321.095 156.337C314.977 158.245 308.336 158.344 302.027 157.562C300.575 157.383 299.134 157.149 297.707 156.878C299.178 159.723 300.507 162.647 301.689 165.645C301.953 166.298 301.406 166.901 300.852 167.116C300.273 167.35 299.713 167.504 299.147 167.597C301.578 172.263 302.797 177.398 302.723 182.711C302.698 184.256 300.304 184.256 300.328 182.711C300.402 177.133 298.974 171.832 296.1 167.049C295.663 166.328 296.205 165.153 297.128 165.239C297.78 165.306 298.359 165.288 298.937 165.183C297.676 162.111 296.248 159.132 294.666 156.226C294.124 155.228 293.558 154.243 292.973 153.264C291.712 151.14 290.364 149.06 288.923 147.028C288.351 146.228 289.133 145.286 289.957 145.224C291.355 145.12 292.758 145.021 294.155 144.916C290.708 138.15 287.255 131.385 283.815 124.619C283.495 123.997 283.716 122.987 284.523 122.858L287.028 122.452C284.375 117.126 280.854 112.367 276.515 108.261C275.684 107.473 276.417 106.346 277.365 106.217C278.965 106.008 280.565 105.798 282.159 105.583C278.565 101.003 273.702 97.8135 268.514 95.1848C267.8 94.8215 267.074 94.4645 266.347 94.1258C264.144 93.0793 261.91 92.125 259.712 91.1831C258.303 90.5797 259.521 88.5112 260.925 89.1084C263.184 90.0749 265.467 91.0661 267.695 92.1373C273.419 83.8077 279.943 75.2687 288.228 69.6171C264.292 42.9598 228.864 31.2934 193.664 29.4711C192.488 29.4095 191.313 29.3603 190.137 29.3233C189.294 28.4922 188.439 27.6672 187.571 26.8546C183.847 23.3516 179.939 20.0518 175.784 17.0659C161.634 6.86469 143.815 0.0679977 126.169 3.27549C122.636 3.91576 118.827 5.0978 116.358 7.86819C113.324 11.2788 115.22 15.1574 118.703 17.2567C121.128 18.7158 123.867 19.7131 126.588 20.6428C127.954 21.1107 129.315 21.5662 130.638 22.0526C131.66 22.422 132.681 22.8037 133.709 23.1792C131.364 23.093 128.982 23.0622 126.594 23.1115C121.338 23.2223 116.057 23.7579 111.053 25.1123C105.483 26.6145 92.2374 33.1711 97.3706 40.645C97.5121 40.842 97.6722 41.0513 97.8383 41.2606C98.2446 41.7531 98.6754 42.221 99.1493 42.6458C103.55 46.7275 110.468 48.0389 116.377 47.257C117.282 47.1462 118.162 46.9738 119.005 46.7645C119.504 46.6352 119.898 46.8014 120.156 47.0908C119.184 47.7988 118.285 48.6176 117.472 49.5164C114.697 52.5885 112.961 56.6024 112.801 60.7827C112.69 63.7747 113.638 69.7341 117.663 69.8819C119.688 69.9557 121.732 68.0226 123.178 66.8036C124.92 65.3138 126.471 63.6085 127.843 61.7677C128.761 60.5426 130.841 61.7492 129.918 62.9805C128.176 65.3199 126.225 67.4377 123.941 69.2539C122.218 70.6329 120.279 72.172 117.983 72.2644C113.576 72.4306 111.09 67.6348 110.567 63.8855C109.865 58.8742 111.318 53.869 114.186 49.8488C108.628 50.052 103.027 48.4944 98.5154 45.1269C97.8076 44.5913 97.1182 44.0002 96.4966 43.3415C85.2454 46.549 75.1267 52.9517 66.7068 61.3183C63.7279 64.2733 60.952 67.4131 58.3608 70.713C57.8684 71.3348 57.3945 71.9504 56.9206 72.5845C52.926 77.8975 49.4116 83.5922 46.328 89.5455C45.9094 90.352 45.5032 91.1585 45.1031 91.9834C37.6742 107.054 32.9841 123.621 30.4791 139.837C30.1221 142.164 29.8082 144.498 29.5251 146.843C29.4328 147.637 29.3466 148.432 29.2604 149.226C26.3122 177.108 29.1927 205.89 37.4464 232.769C37.4649 232.812 37.4772 232.855 37.4834 232.898L37.4957 232.885Z" fill="white"/>
<path d="M218.074 118.209C214.369 116.504 210.356 114.01 206.195 113.758C203.266 113.586 198.126 115.026 196.932 118.209C196.698 118.843 196.612 119.563 196.742 120.339C196.754 120.407 196.766 120.487 196.785 120.548C197.536 124.199 201.881 125.689 204.755 127.228C210.935 130.547 215.219 138.267 222.641 138.919C222.684 138.919 222.728 138.919 222.771 138.938H222.783C224.432 138.691 225.971 137.873 227.171 136.666C227.75 136.087 228.248 135.416 228.642 134.677C228.642 134.677 228.642 134.677 228.642 134.665C230.341 131.452 229.492 127.548 227.516 124.667C225.251 121.355 221.583 119.834 218.068 118.203L218.074 118.209Z" fill="white"/>
<path d="M67.6177 119.946C67.4823 119.964 67.3653 119.958 67.2484 119.934C62.7184 121.011 57.8437 124.766 55.3879 128.257C54.2554 129.864 53.5168 132.148 53.4306 134.352C53.3875 135.454 53.5168 136.544 53.8492 137.516C54.5262 139.536 56.0711 141.069 58.7915 141.303C61.5674 141.537 63.7032 139.388 65.4635 137.529C67.4638 135.411 69.4088 133.238 71.3783 131.095C73.2371 129.082 75.736 126.823 74.8189 123.794C73.8649 120.636 70.572 119.644 67.6115 119.946H67.6177Z" fill="white"/>
<path d="M107.2 245.032C106.763 244.798 106.166 244.435 105.655 244.435C105.07 244.435 104.43 244.89 104.836 245.315C105.236 245.721 107.138 245.918 107.766 246.152C108.394 246.392 109.022 246.657 109.625 246.959C109.594 246.922 109.563 246.891 109.526 246.854C108.862 246.115 108.074 245.5 107.2 245.026V245.032Z" fill="white"/>
<path d="M158.612 341.885C158.347 344.434 158.107 346.988 157.873 349.55C157.202 357.067 156.55 364.54 156.722 371.971C156.741 373.129 156.79 374.286 156.864 375.443C156.07 376.484 155.362 377.592 154.728 378.743C153.214 381.471 152.1 384.444 151.177 387.412C149.01 394.356 147.392 401.491 145.564 408.534C142.732 419.431 139.901 430.322 137.07 441.219C137.057 441.262 137.051 441.305 137.039 441.348V441.36C136.99 441.526 136.885 441.687 136.744 441.847C135.562 443.041 134.472 444.315 133.451 445.645C125.751 455.643 121.879 468.843 112.573 477.277C111.804 477.979 111.004 478.637 110.154 479.272C108.973 479.075 107.785 478.908 106.591 478.779C105.889 478.699 105.187 478.625 104.486 478.582C100.867 478.299 93.4315 478.176 93.45 483.569C93.4685 488.309 99.8326 488.882 103.23 489.005C107.434 489.159 111.681 489.159 115.86 488.642C124.742 487.54 131.697 483.347 138.067 477.234C141.957 473.503 145.736 469.643 149.49 465.764C150.05 465.186 150.604 464.619 151.165 464.041L151.189 464.071C151.731 464.65 152.229 465.272 152.716 465.918C155.239 469.261 157.344 473.257 161.105 475.184C163.333 476.323 166.712 476.403 168.294 474.106C170.029 471.594 168.232 468.541 166.896 466.3C165.696 464.274 164.631 462.323 164.318 459.959C163.979 457.416 164.422 454.861 164.404 452.319C164.404 451.869 164.379 451.42 164.361 450.977C164.311 450.047 164.213 449.124 164.077 448.206C163.973 447.523 163.844 446.846 163.69 446.175C163.456 445.128 163.154 444.1 162.81 443.084C162.059 440.905 161.055 438.793 159.824 436.798C159.012 435.481 161.092 434.28 161.892 435.592C162.816 437.082 163.61 438.639 164.281 440.24C171.87 425.846 181.256 412.419 192.212 400.383C195.197 397.108 198.927 393.999 200.262 389.628C201.148 386.722 201.382 383.521 201.53 380.362C185.755 369.164 171.334 356.309 158.637 341.891L158.612 341.885Z" fill="white"/>
<path d="M314.158 481.001C317.974 479.136 321.957 477.591 326.025 476.378C335.393 473.57 345.124 472.481 354.861 472.616C351.1 468.596 347.567 464.336 344.053 460.125C333.522 447.516 322.72 433.96 317.414 418.298C310.182 417.59 302.987 416.605 295.817 415.429C293.675 415.072 291.527 414.703 289.385 414.327C291.379 418.698 293.792 422.897 296.438 426.911C301.787 435.031 308.065 442.493 314.318 449.917C317.119 453.248 319.975 456.566 323.009 459.682C323.846 460.543 324.689 461.381 325.557 462.206C324.363 462.119 323.169 462.058 321.969 462.021C315.414 461.799 308.853 462.169 302.39 463.308C296.186 464.403 290.074 466.183 284.332 468.818C281.642 470.049 278.528 471.379 276.737 473.835C275.666 475.288 274.927 477.554 275.967 479.228C276.047 479.345 276.127 479.462 276.226 479.573C276.306 479.24 276.417 478.908 276.558 478.576C279.205 472.284 287.428 473.139 292.69 470.985C294.124 470.4 294.727 472.721 293.324 473.293C289.588 474.826 285.2 474.555 281.661 476.562C280.085 477.455 278.645 478.883 278.448 480.675C278.398 481.112 278.423 481.561 278.54 482.035C278.632 482.405 278.762 482.743 278.922 483.045C279.463 484.042 280.362 484.677 281.402 484.941C281.427 484.289 281.599 483.667 281.931 483.088C283.261 480.792 286.966 479.924 289.33 479.357C292.629 478.563 296.001 478.422 299.362 478.853C300.87 479.05 300.888 481.451 299.362 481.247C295.657 480.773 291.982 480.995 288.4 482.097C286.849 482.571 284.283 483.218 283.907 484.886C283.827 485.249 283.846 485.662 284.012 486.13C284.153 486.548 284.369 486.893 284.627 487.176C285.021 487.607 285.538 487.89 286.111 488.063C286.129 488.063 286.141 488.063 286.16 488.063C286.498 488.13 286.831 488.192 287.169 488.253C287.169 488.253 287.188 488.253 287.194 488.253C288.616 488.518 290.044 488.728 291.471 488.906C296.094 489.472 300.735 489.633 305.382 489.571C305.492 489.078 305.652 488.604 305.837 488.149C307.357 484.603 310.859 482.614 314.171 480.989L314.158 481.001Z" fill="white"/>
<path d="M444.55 193.023C412.637 171.672 357.723 184.465 351.026 226.323C347.561 247.975 359.403 267.331 373.227 282.876C380.17 290.688 388.454 297.473 394.696 305.882C399.355 312.168 402.457 319.925 401.835 327.608C404.771 331.912 407.091 336.634 408.538 341.817C410.28 348.048 410.741 354.438 410.181 360.754C417.069 354.758 422.503 346.983 424.891 338.111C427.286 329.221 426.246 319.691 422.996 311.152C416.785 294.868 403.688 282.365 393.643 268.488C383.506 254.495 372.482 232.159 386.042 216.676C396.474 204.769 417.998 206.733 429.809 215.481C433.231 218.024 436.29 221.632 437.207 225.892C438.026 229.696 437.558 233.655 437.558 237.497C437.558 241.338 437.811 246.153 441.497 248.424C446.04 251.219 452.478 248.301 455.98 245.051C463.261 238.26 464.874 227.271 462.652 217.944C460.165 207.558 453.346 198.908 444.563 193.023H444.55Z" fill="white"/>
<path d="M162.674 310.69C163.265 310.37 163.85 310.037 164.422 309.68C164.785 309.453 165.142 309.219 165.505 308.966C166.435 308.326 167.333 307.63 168.189 306.879C172.417 303.161 175.495 298.155 175.926 292.424C176.036 290.897 178.437 290.891 178.32 292.424C177.889 298.137 175.224 303.198 171.334 307.187C177.501 307.753 183.693 308.024 189.891 307.895C202.422 307.63 215.022 305.611 226.833 301.338C230.797 299.904 234.674 298.205 238.299 296.068C240.195 294.96 242.017 293.729 243.734 292.362C244.75 291.543 245.802 290.762 246.818 289.955C246.83 289.931 246.842 289.906 246.855 289.887C246.916 289.783 247.015 289.703 247.113 289.623C248.252 288.668 249.341 287.646 250.394 286.594C251.108 285.707 251.773 284.778 252.37 283.799C252.505 283.583 252.634 283.362 252.757 283.14C252.948 282.82 253.12 282.487 253.299 282.155C255.816 277.205 257.047 271.467 257.016 265.896C257.016 265.342 256.998 264.788 256.973 264.234C256.407 252.9 249.975 243.363 239.734 239.275C238.97 238.968 238.176 238.697 237.37 238.444C236.908 238.309 236.434 238.18 235.961 238.056C234.459 237.687 235.105 235.372 236.595 235.742C237.333 235.926 238.059 236.136 238.767 236.363C242.374 230.521 243.968 223.577 244.756 216.724C245.765 207.976 246.085 199.012 246.024 190.215C245.962 181.387 244.842 172.694 242.177 164.266C239.229 154.951 234.625 146.227 228.667 138.532C226.242 140.828 222.795 141.992 219.392 141.111C218.924 140.994 218.659 140.686 218.573 140.329C216.043 139.314 213.821 137.645 211.716 135.755C209.913 134.136 208.208 132.381 206.239 130.953C204.534 129.722 202.632 128.872 200.785 127.893C197.917 126.373 195.012 124.15 194.415 120.752C193.159 120.863 191.941 120.992 190.777 121.109C180.443 122.149 170.269 124.175 160.274 126.976C150.949 129.593 141.587 132.652 131.838 133.133C122.673 133.588 114.112 130.904 105.464 128.207C96.909 125.535 86.3472 124.058 77.4534 126.656C77.361 126.681 77.2687 126.693 77.1825 126.705C76.9487 127.709 76.487 128.737 75.7423 129.746C73.268 133.126 70.049 136.174 67.1624 139.221C64.9774 141.53 62.3492 143.845 58.9702 143.728C55.7081 143.617 53.4492 141.838 52.1875 139.4C51.8859 139.751 51.5905 140.108 51.3012 140.477C49.7378 142.429 48.3161 144.454 47.0358 146.566C46.5004 147.452 45.9833 148.351 45.491 149.256C39.693 159.981 37.1141 172.33 36.4371 184.489C35.5877 199.677 36.5787 216.109 44.9247 229.271C44.937 229.29 44.9493 229.308 44.9493 229.32C46.3465 229.025 47.7498 228.785 49.1654 228.613C49.1654 228.526 49.147 228.44 49.1408 228.354C48.4515 218.547 48.0391 208.389 49.9533 198.822C51.6212 190.461 56.0035 182.138 64.0911 178.487C68.6703 176.406 73.348 176.56 77.4164 178.401C78.6782 178.967 79.8722 179.7 80.9986 180.574C82.4388 181.701 83.7437 183.061 84.8885 184.637C90.7787 192.77 90.6926 203.999 91.3819 213.591C91.8743 220.449 92.2559 227.314 92.5206 234.178C92.539 234.547 92.5452 234.929 92.5636 235.311C92.6006 236.345 92.6375 237.379 92.6744 238.42C92.6868 238.801 92.6991 239.189 92.7114 239.571C92.0405 240.778 91.2711 241.91 90.4094 242.969C88.8953 244.841 87.0981 246.491 85.03 247.938C79.6937 251.681 74.579 254.716 72.3694 261.254C70.6645 266.284 71.1692 271.806 73.7481 276.442C76.3332 281.108 80.4446 283.903 85.2455 285.726C85.8302 285.947 86.4272 286.157 87.0304 286.347C87.1843 286.397 87.3443 286.452 87.4982 286.495C98.4047 289.949 109.976 291.433 121.406 291.174C133.352 290.903 145.25 288.656 156.458 284.464C166.97 280.536 175.772 274.176 181.527 264.535C180.173 263.396 177.421 261.365 175.63 261.451C174.935 262.436 173.07 261.802 173.494 260.46C174.461 257.418 178.997 260.029 180.696 261.038C181.49 261.506 182.234 262.036 182.948 262.614C183.496 263.064 184.026 263.544 184.518 264.055C185.952 265.526 187.14 267.226 188.045 269.091C188.709 270.47 186.647 271.689 185.97 270.298C185.256 268.82 184.376 267.46 183.299 266.247C180.376 271.043 176.633 275.297 172.19 278.75C166.724 283.005 160.372 285.732 153.854 287.93C141.791 291.987 128.97 293.877 116.248 293.563C110.117 293.415 103.987 292.75 97.9677 291.587C94.2562 290.866 90.3663 290.066 86.6549 288.853C85.8548 291.519 85.5163 294.32 85.9348 297.115C86.4211 300.446 88.0521 303.271 90.2617 305.648C91.0619 306.504 91.9359 307.304 92.8652 308.049C92.8652 308.049 92.8775 308.067 92.8899 308.067C105.692 318.361 123.437 317.591 138.99 316.243C139.729 316.175 140.461 316.114 141.187 316.046C141.36 316.034 141.532 316.015 141.704 315.997C147.915 315.418 154.322 314.458 160.089 311.964C160.969 311.589 161.843 311.17 162.693 310.708L162.674 310.69ZM114.093 251.921C113.897 252.284 113.392 252.364 113.004 252.222C112.622 252.087 112.321 251.779 112.032 251.502L111.755 251.244C110.69 250.271 109.428 249.495 108.117 248.886C106.56 248.165 104.732 248.073 103.242 247.31C101.217 246.288 101.384 243.622 103.212 242.464C105.501 241.005 108.603 242.809 110.364 244.336C111.391 245.216 112.247 246.294 112.899 247.476C113.527 248.609 113.983 249.858 114.167 251.139C114.204 251.404 114.229 251.693 114.093 251.927V251.921ZM134.534 246.768C132.891 247.605 130.878 247.704 129.173 248.504C127.733 249.175 126.342 250.031 125.16 251.102C125.062 251.194 124.963 251.293 124.865 251.385C124.545 251.693 124.212 252.032 123.794 252.179C123.369 252.333 122.815 252.247 122.593 251.853C122.446 251.601 122.47 251.274 122.513 250.985C122.723 249.575 123.221 248.208 123.911 246.959C124.625 245.653 125.572 244.478 126.699 243.511C128.638 241.824 132.047 239.836 134.571 241.449C136.571 242.717 136.756 245.641 134.534 246.774V246.768ZM140.64 241.91C139.692 238.106 136.491 235.594 132.749 234.757C128.244 233.747 124.446 235.483 120.119 236.246C116.617 236.868 113.263 235.058 109.717 235.458C105.951 235.877 102.59 237.773 100.11 240.618C99.1002 241.781 97.4076 240.082 98.4108 238.918C101.107 235.828 104.787 233.778 108.843 233.174C110.807 232.879 112.746 232.959 114.691 233.341C116.088 233.618 117.479 234.079 118.919 233.999C120.261 233.919 121.572 233.353 122.858 233.002C130.466 230.946 140.701 232.313 142.942 241.27C143.311 242.766 141.003 243.4 140.633 241.904L140.64 241.91ZM178.763 234.055C178.234 234.135 177.711 234.221 177.187 234.307C176.929 234.35 176.67 234.393 176.406 234.436C173.544 234.886 170.269 235.317 167.573 236.622C166.699 237.047 165.899 237.558 165.185 238.192C165.185 237.213 165.185 236.228 165.167 235.237C165.05 223.453 164.441 211.227 167.253 199.782C169.488 190.677 174.442 181.731 182.881 177.059C189.165 173.58 197.948 172.484 204.226 176.455C205.168 177.052 206.06 177.767 206.872 178.598C206.934 178.659 206.983 178.715 207.039 178.776C210.055 181.99 211.193 186.441 211.864 190.683C212.75 196.291 212.904 201.967 213.064 207.638C213.286 215.727 213.514 223.817 213.735 231.912C216.745 232.399 219.73 233.008 222.697 233.741C224.199 234.104 223.558 236.419 222.063 236.049C219.33 235.378 216.579 234.812 213.809 234.35C213.003 234.215 212.196 234.092 211.396 233.975C208.048 233.482 204.675 233.15 201.296 232.965C198.379 232.811 195.449 232.768 192.513 232.842C187.903 232.965 183.312 233.359 178.757 234.061L178.763 234.055Z" fill="white"/>
<path d="M401.275 331.105C400.684 330.12 400.05 329.154 399.392 328.224C391.821 317.487 380.348 310.026 368.82 303.851C338.612 287.653 305.634 276.51 271.56 272.354C266.378 276.762 260.882 280.826 255.096 284.483C253.687 287.05 251.335 289.242 248.947 290.91C245.347 294.678 240.841 297.639 236.102 300.009C233.049 301.536 229.892 302.81 226.827 303.9C213.68 308.542 199.64 310.438 185.736 310.333C180.136 310.29 174.541 309.933 168.964 309.367C167.543 310.537 166.016 311.577 164.41 312.482C163.69 312.888 162.963 313.264 162.219 313.609C161.382 314.015 160.514 314.384 159.646 314.717C154.426 316.742 148.795 317.672 143.2 318.251C147.453 324.462 151.995 330.477 156.821 336.246C157.522 337.083 158.23 337.92 158.95 338.752C163.259 343.769 167.783 348.614 172.516 353.244C181.563 362.115 191.356 370.149 201.635 377.519C202.379 378.06 203.124 378.59 203.881 379.113C205.832 380.498 207.802 381.846 209.784 383.176C211.089 384.05 212.387 384.919 213.704 385.78C215.342 383.737 217.028 381.748 218.77 379.79C210.861 365.47 207.673 348.7 205.488 332.497C205.284 330.982 207.593 330.336 207.796 331.856C209.913 347.574 212.91 363.931 220.456 377.925C220.863 378.664 221.263 379.39 221.693 380.11C221.127 380.732 220.567 381.348 220.019 381.976C218.542 383.656 217.114 385.362 215.711 387.104C215.2 387.738 214.689 388.378 214.191 389.025C199.517 407.87 189.319 430.076 184.622 453.501C199.53 467.261 216.486 478.675 234.81 487.3C241.623 485.096 248.344 482.153 253.859 477.745C254.481 477.253 255.09 476.735 255.681 476.194C257.3 474.741 258.795 473.122 260.125 471.342C257.909 465.574 254.628 460.181 249.003 457.897C247.827 459.147 246.824 460.544 245.975 462.046C246.43 462.822 246.892 463.579 247.359 464.343C248.597 463.936 249.883 463.653 251.212 463.475C252.739 463.265 252.714 465.666 251.212 465.869C250.338 465.98 249.483 466.159 248.658 466.399C247.864 466.627 247.095 466.91 246.356 467.236C245.673 467.544 245.002 467.895 244.362 468.289C243.691 468.695 243.039 469.157 242.411 469.662C241.9 469.046 241.377 468.443 240.841 467.846C234.151 460.298 226.279 453.717 217.139 449.61C216.345 449.253 215.539 448.915 214.72 448.601C212.584 447.757 210.368 447.061 208.097 446.514C206.595 446.15 207.236 443.842 208.731 444.205C211.501 444.87 214.16 445.744 216.726 446.821C219.367 444.531 222.112 442.37 224.919 440.283C238.847 429.977 254.622 421.629 267.498 409.92C268.249 409.243 268.982 408.547 269.714 407.839C271.234 406.374 272.699 404.853 274.121 403.265C276.484 400.617 278.257 397.804 278.706 394.221C279.1 391.075 278.78 387.818 278.559 384.666C278.109 378.146 277.346 371.651 276.263 365.212C274.115 352.406 270.717 339.835 266.2 327.658C265.664 326.211 267.978 325.589 268.508 327.024C273.709 341.042 277.408 355.583 279.463 370.389C280.325 376.607 280.959 382.881 281.211 389.154C281.445 395.249 280.116 400.014 276.072 404.656C274.933 405.967 273.739 407.229 272.508 408.461C276.811 409.415 281.125 410.32 285.458 411.151C286.381 411.33 287.305 411.502 288.228 411.674C297.639 413.429 307.105 414.857 316.614 415.818C315.605 412.444 314.866 408.966 314.442 405.382C311.857 383.539 321.557 362.158 334.753 345.32C335.707 344.108 337.387 345.813 336.452 347.013C329.035 356.482 322.948 367.151 319.464 378.701C316.43 388.76 315.463 399.472 317.556 409.815C317.987 411.939 318.529 414.02 319.181 416.07C319.439 416.901 319.716 417.726 320.012 418.539C322.406 425.268 325.847 431.609 329.78 437.581C335.485 446.261 342.188 454.24 348.878 462.175C351.907 465.771 354.978 469.348 358.252 472.715C359.083 473.565 359.92 474.402 360.77 475.227C359.582 475.147 358.382 475.092 357.194 475.055C350.208 474.808 343.204 475.209 336.322 476.415C329.632 477.597 323.04 479.518 316.867 482.369C313.912 483.723 310.324 485.244 308.527 488.125C308.262 488.543 308.034 489.024 307.862 489.529C307.591 490.298 307.456 491.129 307.53 491.911C307.585 492.477 307.739 493.031 308.041 493.524C308.151 493.696 308.274 493.869 308.416 494.017C308.514 493.604 308.65 493.179 308.828 492.761C308.97 492.44 309.124 492.139 309.29 491.856C309.869 490.846 310.607 490.033 311.463 489.381C315.359 486.395 321.588 486.573 325.958 484.77C327.385 484.185 328.001 486.506 326.591 487.078C324.148 488.088 321.44 488.359 318.836 488.913C317.15 489.276 315.513 489.75 314.023 490.63C313.506 490.938 313.001 491.295 312.552 491.702C311.543 492.607 310.773 493.758 310.656 495.1C310.619 495.476 310.638 495.863 310.712 496.257C310.792 496.707 310.933 497.119 311.118 497.483C311.697 498.658 312.761 499.397 313.98 499.68C313.999 499.052 314.14 498.431 314.429 497.852C315.697 495.328 319.599 494.392 322.098 493.764C325.687 492.859 329.38 492.687 333.042 493.167C334.55 493.364 334.568 495.765 333.042 495.562C328.887 495.026 324.751 495.328 320.763 496.651C319.132 497.193 316.713 498.031 316.399 499.65C316.294 500.179 316.424 500.789 316.873 501.515C316.965 501.663 317.07 501.798 317.181 501.928C317.624 502.445 318.19 502.771 318.824 502.98C318.861 502.98 318.892 502.98 318.929 502.999C319.359 503.085 319.79 503.165 320.221 503.239C321.661 503.504 323.108 503.719 324.554 503.898C336.87 505.424 349.34 504.236 361.693 503.313C368.149 502.826 374.606 502.42 381.081 502.488C386.134 502.537 391.347 502.863 396.277 501.497C408.692 498.037 409.246 484.148 405.196 474.057C400.912 463.382 394.098 453.286 387.433 443.971C382.73 437.39 377.653 431.092 372.236 425.095C371.701 424.498 371.165 423.913 370.617 423.316C371.184 422.75 371.75 422.183 372.31 421.617C383.272 410.535 393.797 398.838 400.764 384.795C403.651 378.978 405.836 372.667 407.018 366.209C407.208 365.113 407.381 364.017 407.522 362.922C408.704 353.638 407.713 344.169 403.645 335.532C402.925 334.005 402.131 332.534 401.263 331.111L401.275 331.105Z" fill="white"/>
<path d="M291.903 113.131C293.804 105.472 297.448 97.3024 302.858 91.0783C303.418 90.4318 303.997 89.81 304.6 89.219C305.966 87.8277 307.444 86.5718 309.013 85.4821C312.152 83.2904 315.593 82.2807 319.107 82.4346C319.163 82.5639 319.243 82.6871 319.36 82.7979C327.853 91.7062 327.755 104.604 327.502 116.116C327.466 117.662 329.86 117.662 329.897 116.116C330.137 104.702 330.038 92.2357 322.677 82.9826C323.477 83.1919 324.283 83.4689 325.077 83.7952C330.5 86.0485 334.691 90.3456 338.754 94.4458C339.843 95.5417 341.536 93.8486 340.446 92.7528C336.125 88.3879 331.639 83.906 325.859 81.5358C324.068 80.8032 322.24 80.323 320.418 80.1198C316.528 79.6827 312.638 80.4646 309.081 82.5824C307.025 83.8075 305.16 85.3343 303.461 87.0458C302.864 87.6368 302.286 88.2525 301.732 88.8866C299.941 90.9305 298.334 93.1653 296.9 95.4001C293.527 100.645 291.09 106.439 289.582 112.49C289.213 113.986 291.521 114.62 291.89 113.131H291.903Z" fill="#1D1D1B"/>
<path d="M200.718 230.533C200.878 230.441 201.075 230.385 201.302 230.385C201.585 230.385 201.819 230.465 202.004 230.601C205.118 230.786 208.239 231.093 211.329 231.543C211.113 223.73 210.892 215.924 210.676 208.112C210.529 202.805 210.436 197.473 209.685 192.209C209.064 187.808 208.091 182.913 204.644 179.786C204.312 179.484 203.967 179.207 203.617 178.942C193.664 180.168 185.614 187.906 181.711 197.153C177.101 208.062 177.526 220.067 178.548 231.672C182.579 231.057 186.648 230.662 190.722 230.496C194.058 230.355 197.388 230.367 200.718 230.527V230.533ZM192.839 192.006C192.839 188.694 195.024 185.887 198.028 184.957C198.723 184.742 199.462 184.625 200.225 184.625C204.306 184.625 207.605 187.931 207.605 192.006C207.605 195.325 205.426 198.126 202.423 199.062C201.727 199.277 200.988 199.394 200.225 199.394C196.151 199.394 192.846 196.088 192.846 192.006H192.839Z" fill="#1D1D1B"/>
<path d="M192.839 192.007C192.839 196.088 196.145 199.394 200.219 199.394C200.982 199.394 201.721 199.277 202.416 199.062C205.42 198.126 207.599 195.325 207.599 192.007C207.599 187.931 204.3 184.625 200.219 184.625C199.456 184.625 198.717 184.742 198.028 184.957C195.024 185.893 192.839 188.694 192.839 192.007Z" fill="white"/>
<path d="M200.219 199.394C196.145 199.394 192.839 196.088 192.839 192.006C192.839 188.694 195.018 185.893 198.028 184.957C195.024 185.893 192.839 188.694 192.839 192.006C192.839 196.088 196.145 199.394 200.219 199.394Z" fill="white"/>
<path d="M201.302 232.959C204.681 233.15 208.054 233.483 211.403 233.969C212.203 234.086 213.009 234.209 213.815 234.345C216.585 234.806 219.336 235.373 222.069 236.044C223.565 236.407 224.205 234.098 222.703 233.735C219.736 233.009 216.751 232.393 213.741 231.907C213.514 223.811 213.292 215.721 213.071 207.632C212.91 201.968 212.757 196.286 211.87 190.677C211.206 186.435 210.061 181.984 207.045 178.771C206.989 178.709 206.94 178.654 206.879 178.592C206.066 177.755 205.174 177.047 204.232 176.45C197.954 172.479 189.171 173.574 182.887 177.053C174.449 181.719 169.494 190.665 167.26 199.776C164.441 211.221 165.05 223.442 165.173 235.231C165.185 236.222 165.192 237.207 165.192 238.186C165.905 237.552 166.712 237.041 167.58 236.616C170.269 235.311 173.544 234.88 176.412 234.431C176.677 234.388 176.935 234.345 177.194 234.301C177.723 234.215 178.246 234.129 178.769 234.049C183.324 233.347 187.915 232.953 192.525 232.83C195.461 232.756 198.391 232.799 201.308 232.953L201.302 232.959ZM176.19 232.061C175.87 232.116 175.544 232.171 175.224 232.227C172.694 232.682 170.005 233.113 167.561 234.055C167.481 225.178 167.266 216.202 168.312 207.416C169.42 198.145 172.602 188.479 179.809 182.138C184.986 177.595 193.455 174.707 200.219 177.139C191.541 179.355 184.309 186.14 180.388 194.291C174.713 206.093 175.082 219.304 176.19 232.061ZM178.548 231.679C177.532 220.074 177.107 208.069 181.711 197.16C185.613 187.907 193.664 180.174 203.617 178.949C203.967 179.214 204.312 179.491 204.644 179.792C208.091 182.92 209.058 187.814 209.685 192.216C210.436 197.48 210.529 202.818 210.676 208.118C210.892 215.931 211.113 223.737 211.329 231.55C208.239 231.1 205.118 230.792 202.004 230.608C201.819 230.472 201.592 230.392 201.302 230.392C201.068 230.392 200.878 230.448 200.718 230.54C197.388 230.38 194.058 230.368 190.722 230.509C186.648 230.675 182.579 231.069 178.548 231.685V231.679Z" fill="#1D1D1B"/>
<path d="M122.87 233.008C121.584 233.359 120.267 233.925 118.931 234.005C117.491 234.085 116.1 233.624 114.703 233.347C112.758 232.965 110.819 232.885 108.856 233.18C104.793 233.784 101.119 235.834 98.423 238.924C97.4136 240.082 99.1062 241.781 100.122 240.624C102.596 237.779 105.957 235.883 109.73 235.464C113.275 235.058 116.629 236.874 120.131 236.252C124.458 235.489 128.256 233.747 132.761 234.763C136.497 235.6 139.704 238.112 140.652 241.916C141.021 243.412 143.335 242.778 142.96 241.282C140.719 232.325 130.484 230.958 122.876 233.014L122.87 233.008Z" fill="#1D1D1B"/>
<path d="M134.571 241.443C132.054 239.83 128.638 241.819 126.699 243.505C125.572 244.472 124.625 245.648 123.911 246.953C123.221 248.203 122.723 249.57 122.513 250.979C122.47 251.269 122.452 251.595 122.593 251.847C122.815 252.241 123.369 252.334 123.794 252.174C124.212 252.026 124.545 251.687 124.865 251.38C124.963 251.281 125.062 251.182 125.16 251.096C126.342 250.025 127.727 249.176 129.173 248.498C130.878 247.704 132.891 247.599 134.534 246.762C136.756 245.629 136.577 242.705 134.571 241.437V241.443ZM132.774 244.577C132.337 245.026 130.25 245.242 129.555 245.5C128.859 245.765 128.176 246.06 127.511 246.387C127.548 246.35 127.579 246.313 127.616 246.276C128.354 245.469 129.216 244.792 130.176 244.275C130.656 244.01 131.309 243.616 131.869 243.616C132.515 243.616 133.223 244.115 132.767 244.583L132.774 244.577Z" fill="#1D1D1B"/>
<path d="M112.899 247.476C112.247 246.294 111.392 245.217 110.364 244.337C108.603 242.81 105.495 241 103.212 242.465C101.384 243.622 101.217 246.288 103.242 247.31C104.732 248.074 106.566 248.166 108.117 248.886C109.428 249.496 110.69 250.271 111.755 251.244L112.032 251.503C112.321 251.786 112.623 252.088 113.004 252.223C113.392 252.365 113.89 252.285 114.094 251.921C114.229 251.687 114.204 251.398 114.167 251.133C113.977 249.853 113.527 248.603 112.899 247.47V247.476ZM107.766 246.153C107.138 245.919 105.237 245.722 104.837 245.315C104.43 244.897 105.07 244.435 105.655 244.435C106.166 244.435 106.763 244.798 107.2 245.032C108.074 245.506 108.856 246.122 109.527 246.861C109.564 246.892 109.588 246.922 109.625 246.965C109.022 246.664 108.4 246.393 107.766 246.159V246.153Z" fill="#1D1D1B"/>
<path d="M60.7243 215.548C60.792 219.723 60.8782 223.903 60.9644 228.071C64.7066 228.169 68.4549 228.477 72.154 228.871C78.3581 229.536 84.6915 230.736 90.1017 233.747C89.8555 227.338 89.5047 220.935 89.0492 214.533C88.4029 205.421 88.6368 194.641 83.4298 186.73C81.8603 184.348 79.7676 182.218 77.2626 180.845C69.8459 182.433 64.2019 190.012 62.1954 197.479C60.6197 203.359 60.6259 209.515 60.7243 215.555V215.548ZM76.3209 187.05C76.7271 186.964 77.1456 186.921 77.5765 186.921C81.017 186.921 83.8114 189.71 83.8114 193.151C83.8114 195.946 81.9649 198.317 79.4291 199.105C78.8444 199.289 78.2227 199.388 77.5765 199.388C74.1359 199.388 71.3477 196.593 71.3477 193.151C71.3477 190.141 73.4834 187.629 76.3209 187.044V187.05Z" fill="#1D1D1B"/>
<path d="M404.796 180.488C385.389 181.528 366.728 190.393 355.994 207.022C350.325 215.807 347.574 226.162 348.06 236.604C348.528 246.799 352.067 256.538 357.175 265.292C362.475 274.367 369.331 282.457 376.569 290.029C384.306 298.137 393.975 305.679 397.902 316.557C398.826 319.118 399.404 321.79 399.521 324.48C393.668 317.074 385.974 311.029 377.868 306.171C362.413 296.912 345.623 289.45 328.653 283.435C310.933 277.156 292.61 272.705 273.979 270.261C298.23 248.732 315.223 219.378 321.138 186.934C323.028 176.56 323.816 166.02 323.459 155.499C336.563 150.229 341.48 137.288 344.201 124.353C344.921 120.949 345.543 117.526 346.25 114.115C347.063 110.212 348.189 106.371 348.922 102.449C350.319 94.9996 349.026 87.7166 344.896 81.3201C336.723 68.6563 318.996 61.4163 304.231 63.3433C299.055 64.0144 294.438 65.7997 290.253 68.33C272.545 48.5802 247.199 35.7748 220.992 30.4064C211.156 28.3933 201.148 27.3036 191.122 26.9465C179.649 15.8527 166.466 6.37792 150.863 2.24696C141.828 -0.14789 131.42 -1.04673 122.353 1.69904C116.34 3.51518 108.985 9.61004 113.952 16.2774C115.657 18.58 118.248 19.9528 120.932 21.0302C118.747 21.2457 116.568 21.5412 114.407 21.9229C108.16 23.031 101.765 25.3397 97.3645 30.1048C95.3211 32.3211 93.647 35.1838 93.967 38.3051C94.084 39.3948 94.4471 40.4045 94.9764 41.3279C79.4353 46.0253 66.5839 56.4974 56.5329 69.3766C53.6155 67.3511 50.4395 65.7012 46.9251 64.55C33.6982 60.2405 16.7722 65.5596 7.44755 75.6808C2.9914 80.5136 0.0124262 86.9224 0.000116395 93.5837C-0.0121934 97.3391 0.954126 100.996 1.84043 104.622C2.63441 107.823 3.28068 111.062 3.92079 114.306C6.22272 126.077 9.01705 139.338 20.2374 145.882C22.3424 147.114 24.5951 148.019 26.9217 148.659C25.4568 162.745 25.5183 177.003 26.8663 191.015C28.3127 205.994 31.2301 220.751 35.717 235.058C26.6939 247.993 26.7801 265.028 34.7445 278.978C43.5645 294.443 59.6904 303.198 76.7948 306.325C80.8448 307.07 84.9193 307.562 89.0062 307.852C94.1024 313.066 101.371 316.206 108.339 317.788C118.002 319.986 128.004 319.444 137.808 318.712C138.695 318.644 139.593 318.57 140.486 318.502C145.428 325.792 150.771 332.773 156.47 339.428C156.113 342.802 155.781 346.176 155.479 349.555C154.728 358.02 154.014 366.43 154.433 374.778C152.457 377.561 150.974 380.701 149.786 384.001C147.318 390.859 145.791 398.087 143.957 405.136C140.91 416.882 137.851 428.635 134.799 440.381C124.569 450.952 121.086 467.605 109.471 476.747C108.566 476.612 107.649 476.489 106.738 476.39C103.175 475.99 99.1433 475.516 95.7581 477.036C89.9294 479.653 89.6524 486.911 95.3396 489.879C98.4786 491.51 102.288 491.399 105.729 491.449C109.637 491.51 113.533 491.381 117.399 490.808C125.375 489.626 132.004 485.976 137.925 480.607C142.461 476.489 146.764 472.074 151.035 467.636C154.051 471.557 156.544 476.31 161.474 477.935C165.801 479.357 171.26 476.993 171.365 471.982C171.42 469.169 169.925 466.761 168.552 464.428C166.509 460.95 166.57 457.896 166.73 453.987C166.884 450.336 166.404 446.735 165.352 443.293C171.66 431.017 179.249 419.406 188.063 408.768C190.31 406.053 192.63 403.412 195.018 400.832C197.185 398.493 199.591 396.24 201.185 393.445C202.792 390.631 203.217 387.448 203.481 384.271C203.543 383.477 203.604 382.677 203.666 381.883C206.479 383.853 209.316 385.804 212.184 387.701C199.031 404.625 189.393 424.239 184.075 445.042C183.521 447.209 183.022 449.388 182.567 451.574C182.376 452.491 182.191 453.414 182.019 454.344C182.702 454.99 183.398 455.624 184.093 456.259C198.268 469.138 214.246 479.936 231.449 488.315C232.514 488.838 233.585 489.343 234.668 489.848C235.776 489.497 236.89 489.128 237.992 488.74C244.239 486.542 250.295 483.649 255.379 479.604C256.001 479.111 256.604 478.594 257.201 478.058C258.586 476.815 259.891 475.473 261.079 474.02C261.676 473.287 262.261 472.53 262.802 471.73C262.47 470.8 262.107 469.883 261.719 468.978C259.405 463.535 256.087 458.555 250.911 456.074C250.117 455.692 249.286 455.366 248.4 455.107C247.723 455.741 247.083 456.412 246.486 457.108C245.802 457.908 245.175 458.764 244.602 459.651C244.104 460.433 243.642 461.245 243.236 462.089C243.697 462.901 244.171 463.708 244.664 464.508C244.799 464.748 244.947 464.976 245.076 465.21C244.282 465.573 243.513 465.986 242.774 466.454C236.059 458.85 228.218 452.183 219.121 447.874C229.381 439.199 241.217 432.193 252.24 424.615C258.494 420.317 264.759 415.768 270.354 410.547C275.734 411.729 281.131 412.807 286.542 413.804C291.976 426.468 300.975 437.678 309.758 448.187C312.971 452.035 316.196 455.914 319.624 459.583C310.355 459.466 301.098 460.543 292.198 463.277C288.314 464.465 284.511 465.967 280.885 467.808C277.943 469.298 274.958 471.188 273.684 474.389C272.668 476.926 272.909 480.115 275.186 481.888C275.506 482.14 275.844 482.343 276.195 482.51C276.823 485.126 279.162 487.133 281.919 487.429C282.209 488.02 282.59 488.567 283.052 488.998C283.71 489.62 284.461 490.039 285.268 490.304C285.36 490.328 285.446 490.359 285.538 490.377C285.951 490.501 286.375 490.568 286.806 490.611C286.831 490.624 286.856 490.624 286.88 490.624C292.943 491.707 299.048 492.021 305.173 491.941C305.283 493.597 305.96 495.173 307.345 496.251C307.684 496.515 308.047 496.743 308.416 496.916C309.069 499.698 311.574 501.847 314.528 502.149C314.83 502.807 315.254 503.398 315.771 503.885C316.461 504.531 317.255 504.956 318.104 505.233C318.172 505.258 318.239 505.276 318.313 505.294C318.787 505.436 319.28 505.522 319.766 505.572H319.797C332.759 507.874 345.887 506.901 358.936 505.898C365.848 505.362 372.778 504.845 379.721 504.851C385.205 504.851 390.843 505.294 396.234 503.965C406.932 501.324 411.431 490.913 409.646 480.632C408.618 474.709 405.805 469.249 402.931 464.034C399.964 458.641 396.757 453.384 393.335 448.268C387.476 439.513 380.982 431.19 373.935 423.377C383.918 413.281 393.532 402.698 400.543 390.305C405.097 382.264 408.458 373.301 409.781 364.128C421.168 355.065 428.96 341.712 428.56 326.69C428.086 308.609 416.816 293.963 405.978 280.468C400.303 273.394 394.499 266.339 389.901 258.49C384.546 249.341 380.379 238.136 383.087 227.467C388.048 207.908 413.893 207.164 427.981 217.112C432.284 220.154 434.998 224.346 435.226 229.634C435.404 233.772 434.838 237.921 435.41 242.04C435.89 245.524 437.349 248.812 440.519 250.622C444.427 252.85 449.554 251.779 453.352 249.815C461.113 245.777 465.286 236.714 465.908 228.299C466.677 217.709 462.393 207.059 455.395 199.222C442.913 185.265 423.051 179.503 404.796 180.475V180.488ZM291.859 70.1646C294.155 68.8287 296.605 67.7205 299.233 66.8894C313.352 62.4383 331.669 68.5455 340.963 79.9533C345.924 86.042 348.029 93.6268 346.687 101.365C345.518 108.131 343.69 114.842 342.324 121.589C339.831 133.994 336.039 147.459 323.366 152.95C323.366 152.95 323.348 152.95 323.342 152.962C322.572 153.295 321.791 153.59 320.997 153.855C314.454 156.041 307.216 155.985 300.476 154.945C299.055 154.723 297.627 154.415 296.199 154.071C294.931 151.817 293.577 149.613 292.124 147.465C293.429 147.366 294.734 147.268 296.045 147.175C296.968 147.108 297.51 146.209 297.073 145.372C293.607 138.556 290.13 131.741 286.652 124.932C287.477 124.797 288.296 124.661 289.114 124.526C289.951 124.39 290.118 123.387 289.834 122.765C287.36 117.391 284.024 112.515 279.925 108.273C281.384 108.082 282.836 107.885 284.301 107.694C285.114 107.583 285.908 106.728 285.335 105.89C281.445 100.146 275.875 96.3048 269.856 93.2081C275.42 85.0755 281.655 76.8382 289.822 71.4267C290.487 70.9834 291.164 70.5648 291.859 70.1646ZM13.8794 136.709C10.6789 132.024 9.01705 126.502 7.75529 121.029C6.45046 115.371 5.53953 109.627 4.15468 103.988C2.38822 96.7665 1.48345 90.093 5.02867 83.247C11.2821 71.1866 27.1802 64.2914 40.364 65.5842C45.928 66.1322 50.7965 68.2254 55.1173 71.2358C51.2458 76.4134 47.8176 81.9357 44.8201 87.6058C42.5613 84.9216 39.9701 82.6006 37.0465 80.8645C33.452 78.7344 29.9314 78.1803 26.5524 78.6851C19.665 79.7132 13.3932 85.0878 8.34001 90.2038C7.25059 91.2996 8.94319 92.9926 10.0326 91.8968C14.0887 87.8028 18.9203 83.481 24.2012 81.7449C17.8186 90.1792 17.7201 101.328 17.9417 111.61C17.9724 113.149 20.3728 113.155 20.3359 111.61C20.1082 101.119 20.0159 89.3911 27.7464 81.2647C27.8264 81.1846 27.8941 81.0923 27.9372 81.0061C30.8916 80.8091 33.9444 81.5725 37.0588 83.7334C39.5084 85.4449 41.6934 87.575 43.6014 89.9698C34.7507 107.571 29.4821 126.711 27.1986 146.246C21.7946 144.651 17.0984 141.419 13.8856 136.716L13.8794 136.709ZM29.2667 149.213C29.3529 148.419 29.439 147.625 29.5313 146.831C29.8145 144.485 30.1284 142.152 30.4854 139.825C32.9904 123.609 37.6804 107.035 45.1094 91.9707C45.5156 91.1457 45.9157 90.3392 46.3342 89.5327C49.4178 83.5795 52.9323 77.8909 56.9268 72.5718C57.3946 71.9438 57.8747 71.322 58.3671 70.7002C60.9583 67.4004 63.7341 64.2606 66.7131 61.3055C75.133 52.9451 85.2517 46.5363 96.5028 43.3288C97.1245 43.9937 97.8138 44.5847 98.5217 45.1141C103.033 48.4879 108.64 50.0393 114.192 49.8361C111.33 53.8563 109.871 58.8553 110.573 63.8728C111.096 67.622 113.583 72.4179 117.99 72.2517C120.292 72.1593 122.224 70.6202 123.948 69.2412C126.231 67.425 128.182 65.3072 129.924 62.9678C130.847 61.7365 128.767 60.536 127.85 61.7549C126.477 63.5957 124.926 65.301 123.184 66.7909C121.744 68.016 119.695 69.9491 117.67 69.8691C113.644 69.7152 112.696 63.7619 112.807 60.7699C112.967 56.5897 114.709 52.5757 117.479 49.5037C118.285 48.611 119.184 47.7922 120.162 47.078C119.904 46.7887 119.504 46.6225 119.011 46.7517C118.168 46.9611 117.288 47.1273 116.383 47.2443C110.474 48.0261 103.55 46.7148 99.1556 42.6331C98.6817 42.2083 98.2447 41.7466 97.8446 41.2479C97.6784 41.0447 97.5184 40.8354 97.3768 40.6323C92.2375 33.1645 105.483 26.6018 111.059 25.0996C116.069 23.7452 121.35 23.2096 126.6 23.0988C128.988 23.0495 131.37 23.0803 133.715 23.1665C132.694 22.7909 131.672 22.4154 130.644 22.0399C129.327 21.5535 127.961 21.0979 126.594 20.63C123.868 19.7004 121.135 18.7031 118.71 17.244C115.226 15.1508 113.324 11.2661 116.365 7.85546C118.833 5.07891 122.643 3.90304 126.176 3.26277C143.822 0.0552719 161.64 6.85196 175.803 17.047C179.957 20.039 183.866 23.3389 187.589 26.8357C188.457 27.6484 189.313 28.4733 190.156 29.3044C191.331 29.3414 192.507 29.3968 193.683 29.4522C228.882 31.2807 264.31 42.9409 288.247 69.5982C279.962 75.2498 273.438 83.7888 267.714 92.1184C265.48 91.0411 263.196 90.0499 260.943 89.0895C259.546 88.4923 258.321 90.5609 259.731 91.1642C261.928 92.1 264.162 93.0604 266.366 94.107C267.092 94.4456 267.818 94.8026 268.532 95.1659C273.715 97.7947 278.577 100.99 282.178 105.564C280.578 105.78 278.977 105.989 277.383 106.198C276.435 106.327 275.703 107.46 276.534 108.242C280.873 112.348 284.394 117.107 287.046 122.433L284.541 122.839C283.735 122.968 283.513 123.978 283.833 124.6C287.28 131.366 290.733 138.132 294.174 144.897C292.777 145.002 291.373 145.101 289.976 145.205C289.151 145.267 288.37 146.209 288.942 147.009C290.382 149.041 291.73 151.122 292.992 153.246C293.571 154.224 294.137 155.209 294.685 156.207C296.26 159.113 297.694 162.092 298.956 165.164C298.378 165.269 297.799 165.288 297.147 165.22C296.223 165.134 295.682 166.309 296.119 167.03C298.993 171.813 300.421 177.114 300.347 182.692C300.322 184.237 302.723 184.237 302.741 182.692C302.815 177.379 301.603 172.244 299.165 167.578C299.738 167.485 300.298 167.331 300.87 167.098C301.418 166.882 301.966 166.279 301.707 165.626C300.526 162.628 299.196 159.704 297.725 156.859C299.153 157.13 300.587 157.364 302.046 157.543C308.348 158.331 314.996 158.226 321.114 156.318C321.686 177.465 317.655 198.698 309.21 218.14C300.575 238.032 287.354 255.744 270.933 269.861C270.12 270.562 269.302 271.252 268.471 271.929C268.083 272.255 267.695 272.569 267.301 272.89C263.849 275.666 260.273 278.276 256.592 280.702C257.687 278.03 258.438 275.21 258.9 272.385C260.482 262.658 258.451 252.192 251.822 244.656C248.88 241.313 245.181 238.844 241.106 237.201C248.381 225.11 248.092 208.807 248.387 195.269C248.597 185.801 248 176.375 245.544 167.202C243.359 159.033 239.931 151.189 235.45 144.017C233.856 141.456 232.114 138.993 230.261 136.623C231.074 135.386 231.64 133.982 231.849 132.468C232.329 129.051 231.228 125.603 229.196 122.864C226.888 119.761 223.589 118.117 220.161 116.522C213.304 113.358 205.734 108.772 198.403 113.37C196.52 114.552 194.944 116.258 194.477 118.345C185.435 119.016 176.424 120.481 167.623 122.574C157.399 124.994 147.441 128.749 137.008 130.221C131.703 130.972 126.342 131.002 121.067 130.017C116.512 129.162 112.087 127.758 107.674 126.367C98.3616 123.448 87.0612 121.515 77.2995 124.206C76.8133 120.887 73.859 118.179 70.1414 117.6C69.9506 117.36 69.649 117.206 69.2489 117.224C65.3036 117.421 61.8446 119.521 58.7179 121.786C55.8312 123.879 53.24 126.422 51.8613 129.765C50.9812 131.895 50.7719 134.388 51.252 136.679C48.4392 139.843 46.0142 143.334 43.9461 147.065C43.4722 147.908 43.0229 148.764 42.592 149.626C34.1167 166.574 32.3688 187.789 34.6276 205.821C35.6862 214.293 38.0251 222.579 42.5059 229.875C42.5551 229.955 42.6105 230.035 42.6597 230.115C42.2905 230.256 41.915 230.404 41.5519 230.552C41.5026 230.57 41.4534 230.589 41.4041 230.607C41.0656 230.743 40.7394 230.884 40.4132 231.026C39.3361 231.512 38.3636 232.079 37.5143 232.867C37.5143 232.823 37.4958 232.78 37.4773 232.737C29.2174 205.858 26.3369 177.077 29.2913 149.195L29.2667 149.213ZM228.649 134.672C228.649 134.672 228.649 134.672 228.649 134.684C228.255 135.423 227.756 136.094 227.178 136.672C225.977 137.879 224.439 138.698 222.789 138.944H222.777C222.734 138.932 222.691 138.926 222.648 138.926C215.225 138.273 210.941 130.553 204.761 127.235C201.887 125.689 197.542 124.206 196.791 120.555C196.772 120.487 196.76 120.413 196.748 120.346C196.618 119.564 196.705 118.85 196.939 118.216C198.126 115.033 203.272 113.592 206.202 113.764C210.362 114.011 214.375 116.504 218.081 118.216C221.595 119.841 225.263 121.368 227.528 124.68C229.504 127.567 230.354 131.464 228.655 134.678L228.649 134.672ZM71.3847 131.095C69.4151 133.237 67.4702 135.417 65.4698 137.528C63.7095 139.387 61.5799 141.536 58.7979 141.302C56.0774 141.068 54.5326 139.535 53.8555 137.516C53.5232 136.543 53.3939 135.453 53.437 134.351C53.517 132.141 54.2617 129.857 55.3942 128.257C57.8501 124.766 62.7247 121.011 67.2547 119.933C67.3655 119.952 67.4886 119.958 67.624 119.945C70.5845 119.644 73.8774 120.635 74.8314 123.793C75.7485 126.822 73.2496 129.082 71.3908 131.095H71.3847ZM58.0962 297.7C43.2445 290.134 31.5994 275.291 31.1132 258.169C30.9039 250.911 32.8611 243.942 36.6587 237.939C37.1819 237.108 37.7358 236.302 38.3329 235.514C38.3698 235.471 38.4129 235.422 38.4436 235.372C38.5175 235.261 38.5975 235.163 38.6775 235.058C39.9147 233.568 41.8042 233.014 43.5584 232.331C44.1 232.122 44.6293 231.906 45.1648 231.709C46.5496 231.414 47.9407 231.174 49.3317 230.995C50.1256 230.884 50.9135 230.798 51.7136 230.724C54.0032 230.515 56.3052 230.429 58.6133 230.429C59.4072 230.429 60.2197 230.447 61.0137 230.472C64.245 230.558 67.4763 230.798 70.6769 231.106C77.4042 231.74 84.4823 232.904 90.2064 236.579C90.231 237.348 90.2618 238.124 90.2741 238.894C87.7875 242.92 84.0761 245.623 79.8846 248.442C75.5515 251.348 72.1356 254.944 70.283 259.899C66.6085 269.756 70.9908 281.071 80.1739 286.095C81.528 286.84 82.9497 287.486 84.4146 288.053C82.6728 293.92 83.0113 300.218 86.8889 305.395C76.8502 304.521 67.0085 302.249 58.0839 297.7H58.0962ZM61.0629 193.244C58.7425 199.172 58.2932 205.631 58.287 211.929C58.287 217.291 58.4225 222.659 58.5517 228.028C56.2067 228.028 53.8678 228.114 51.5474 228.335C51.055 220.757 50.7904 213.092 51.4243 205.557C52.1075 197.332 54.4341 188.411 61.1675 183.036C64.5774 180.309 69.1443 178.622 73.5266 179.478C73.5881 179.478 73.6435 179.503 73.7051 179.515C68.0056 181.953 63.3772 187.334 61.0629 193.244ZM77.2626 180.839C79.7738 182.212 81.8665 184.348 83.4298 186.724C88.6369 194.641 88.403 205.415 89.0492 214.527C89.4986 220.929 89.8494 227.332 90.1017 233.741C84.6977 230.724 78.3582 229.53 72.154 228.865C68.455 228.471 64.7066 228.163 60.9644 228.065C60.8783 223.897 60.7921 219.716 60.7244 215.542C60.6198 209.503 60.6136 203.353 62.1954 197.467C64.1958 189.999 69.8398 182.421 77.2626 180.833V180.839ZM141.163 316.028C140.437 316.095 139.704 316.157 138.966 316.225C123.412 317.573 105.667 318.342 92.8653 308.049C92.853 308.049 92.8468 308.037 92.8407 308.03C91.9174 307.285 91.0434 306.485 90.2371 305.629C88.0214 303.253 86.3903 300.427 85.9103 297.097C85.4979 294.302 85.8302 291.5 86.6304 288.835C90.3418 290.047 94.2317 290.848 97.9431 291.568C103.963 292.732 110.087 293.397 116.223 293.544C128.945 293.858 141.766 291.974 153.83 287.911C160.348 285.713 166.706 282.986 172.165 278.732C176.615 275.272 180.351 271.018 183.275 266.228C184.352 267.441 185.232 268.802 185.946 270.279C186.623 271.671 188.685 270.452 188.02 269.073C187.115 267.207 185.927 265.508 184.493 264.037C184.001 263.526 183.472 263.045 182.924 262.596C182.216 262.017 181.465 261.488 180.671 261.02C178.972 260.01 174.442 257.4 173.47 260.441C173.045 261.783 174.91 262.417 175.606 261.432C177.391 261.346 180.142 263.384 181.502 264.517C175.747 274.158 166.952 280.517 156.433 284.445C145.231 288.638 133.328 290.885 121.381 291.156C109.951 291.414 98.3801 289.93 87.4736 286.477C87.3197 286.434 87.1597 286.378 87.0058 286.329C86.4026 286.132 85.8056 285.923 85.2209 285.707C80.4262 283.879 76.3086 281.084 73.7235 276.423C71.1446 271.794 70.6399 266.265 72.3448 261.235C74.5606 254.697 79.6753 251.662 85.0055 247.919C87.0735 246.472 88.8708 244.816 90.3849 242.951C91.2527 241.892 92.0159 240.759 92.6868 239.552C92.6745 239.171 92.6622 238.783 92.6499 238.401C92.6191 237.361 92.5822 236.327 92.5391 235.292C92.5206 234.917 92.5145 234.535 92.496 234.159C92.2313 227.295 91.8559 220.424 91.3573 213.572C90.668 203.981 90.7542 192.751 84.8639 184.619C83.7253 183.049 82.4143 181.682 80.974 180.555C79.8477 179.675 78.6536 178.942 77.3919 178.382C73.3235 176.541 68.6458 176.388 64.0665 178.468C55.979 182.119 51.5967 190.443 49.9287 198.803C48.0145 208.37 48.4269 218.528 49.1162 228.335C49.1162 228.422 49.1347 228.508 49.1409 228.594C47.7252 228.773 46.3219 229.007 44.9248 229.302C44.9248 229.29 44.9063 229.271 44.9001 229.253C36.5479 216.09 35.557 199.659 36.4125 184.471C37.0896 172.318 39.6685 159.968 45.4664 149.238C45.9588 148.333 46.4758 147.44 47.0113 146.547C48.2915 144.436 49.7133 142.404 51.2766 140.459C51.5659 140.089 51.8613 139.732 52.1629 139.381C53.4247 141.819 55.6835 143.605 58.9456 143.709C62.3247 143.82 64.9528 141.511 67.1378 139.203C70.0245 136.161 73.2373 133.114 75.7177 129.728C76.4625 128.718 76.9241 127.69 77.158 126.687C77.2442 126.674 77.3365 126.662 77.4288 126.637C86.3226 124.039 96.8844 125.517 105.44 128.189C114.087 130.885 122.649 133.57 131.814 133.114C141.557 132.634 150.924 129.574 160.249 126.958C170.245 124.15 180.425 122.125 190.753 121.091C191.922 120.98 193.141 120.85 194.39 120.733C194.987 124.132 197.893 126.354 200.761 127.875C202.607 128.854 204.509 129.703 206.214 130.935C208.177 132.363 209.888 134.118 211.692 135.737C213.797 137.627 216.019 139.289 218.548 140.311C218.635 140.668 218.899 140.976 219.367 141.093C222.771 141.973 226.224 140.81 228.642 138.513C234.594 146.203 239.198 154.926 242.152 164.247C244.824 172.675 245.938 181.374 245.999 190.196C246.061 198.994 245.747 207.964 244.731 216.706C243.944 223.564 242.349 230.503 238.743 236.345C238.035 236.117 237.302 235.908 236.57 235.723C235.08 235.36 234.434 237.669 235.936 238.038C236.41 238.161 236.884 238.29 237.345 238.426C238.152 238.672 238.946 238.949 239.709 239.257C249.951 243.351 256.383 252.881 256.949 264.215C256.973 264.769 256.992 265.323 256.992 265.877C257.023 271.449 255.798 277.187 253.274 282.136C253.102 282.469 252.924 282.801 252.733 283.121C252.61 283.343 252.48 283.565 252.345 283.78C251.748 284.759 251.083 285.689 250.369 286.575C249.317 287.628 248.234 288.65 247.089 289.604C246.99 289.684 246.898 289.764 246.83 289.869C246.812 289.894 246.806 289.912 246.793 289.937C245.778 290.743 244.725 291.525 243.71 292.344C241.999 293.711 240.171 294.942 238.275 296.05C234.643 298.18 230.772 299.885 226.808 301.32C214.997 305.592 202.398 307.612 189.867 307.876C183.669 308 177.471 307.729 171.31 307.168C175.199 303.185 177.865 298.119 178.295 292.405C178.406 290.872 176.012 290.879 175.901 292.405C175.47 298.137 172.393 303.136 168.164 306.861C167.315 307.612 166.416 308.307 165.481 308.948C165.118 309.194 164.761 309.434 164.398 309.662C163.819 310.025 163.24 310.357 162.65 310.671C161.8 311.127 160.926 311.552 160.046 311.927C154.279 314.421 147.866 315.387 141.661 315.96C141.489 315.978 141.317 315.997 141.144 316.009L141.163 316.028ZM200.238 389.628C198.902 393.992 195.172 397.108 192.187 400.383C181.231 412.419 171.845 425.846 164.256 440.24C163.591 438.639 162.791 437.081 161.868 435.591C161.068 434.28 158.987 435.481 159.8 436.798C161.031 438.793 162.034 440.904 162.785 443.084C163.13 444.1 163.431 445.128 163.665 446.174C163.819 446.839 163.948 447.523 164.053 448.206C164.194 449.123 164.287 450.041 164.336 450.976C164.354 451.42 164.373 451.869 164.379 452.318C164.398 454.867 163.954 457.416 164.293 459.959C164.607 462.329 165.672 464.28 166.872 466.3C168.214 468.547 170.005 471.6 168.269 474.106C166.693 476.402 163.308 476.322 161.08 475.183C157.319 473.256 155.214 469.261 152.691 465.918C152.205 465.272 151.706 464.65 151.165 464.071L151.14 464.04C150.58 464.619 150.026 465.185 149.466 465.764C145.705 469.643 141.926 473.503 138.042 477.233C131.672 483.347 124.717 487.533 115.835 488.641C111.65 489.159 107.409 489.152 103.206 489.005C99.8019 488.888 93.4377 488.309 93.4254 483.568C93.4069 478.175 100.842 478.299 104.461 478.582C105.163 478.631 105.864 478.699 106.566 478.779C107.76 478.908 108.954 479.074 110.13 479.271C110.973 478.643 111.779 477.978 112.549 477.277C121.855 468.842 125.726 455.637 133.426 445.645C134.448 444.315 135.543 443.041 136.719 441.846C136.867 441.692 136.965 441.526 137.014 441.36C137.014 441.36 137.014 441.36 137.014 441.348C137.027 441.305 137.033 441.262 137.045 441.218C139.876 430.322 142.708 419.431 145.539 408.534C147.367 401.497 148.992 394.362 151.152 387.411C152.075 384.444 153.196 381.464 154.704 378.743C155.338 377.592 156.052 376.484 156.839 375.443C156.772 374.286 156.722 373.128 156.698 371.971C156.525 364.54 157.178 357.066 157.849 349.549C158.083 346.988 158.323 344.433 158.587 341.885C171.291 356.309 185.706 369.157 201.481 380.356C201.333 383.514 201.099 386.716 200.213 389.621L200.238 389.628ZM305.825 488.161C305.634 488.617 305.48 489.091 305.369 489.583C300.723 489.645 296.076 489.485 291.459 488.918C290.031 488.74 288.604 488.531 287.182 488.266C287.169 488.266 287.157 488.266 287.157 488.266C286.825 488.204 286.492 488.149 286.148 488.075C286.129 488.075 286.117 488.075 286.098 488.075C285.526 487.903 285.009 487.619 284.615 487.188C284.357 486.905 284.141 486.567 284 486.142C283.84 485.674 283.815 485.261 283.895 484.898C284.264 483.23 286.837 482.583 288.388 482.109C291.97 481.007 295.645 480.786 299.35 481.26C300.876 481.457 300.858 479.062 299.35 478.865C295.989 478.434 292.623 478.582 289.317 479.37C286.954 479.936 283.249 480.81 281.919 483.101C281.593 483.679 281.421 484.301 281.39 484.954C280.344 484.689 279.445 484.055 278.91 483.057C278.75 482.75 278.62 482.417 278.528 482.048C278.417 481.574 278.386 481.124 278.436 480.687C278.633 478.902 280.073 477.474 281.648 476.575C285.188 474.568 289.576 474.839 293.312 473.306C294.715 472.727 294.106 470.406 292.678 470.997C287.416 473.152 279.199 472.296 276.546 478.588C276.405 478.92 276.294 479.253 276.214 479.585C276.115 479.474 276.035 479.357 275.955 479.24C274.915 477.56 275.654 475.3 276.725 473.847C278.516 471.391 281.63 470.061 284.32 468.83C290.056 466.195 296.174 464.422 302.378 463.32C308.847 462.181 315.408 461.812 321.957 462.033C323.151 462.07 324.345 462.132 325.545 462.218C324.677 461.393 323.834 460.556 322.997 459.694C319.969 456.579 317.107 453.26 314.306 449.93C308.053 442.505 301.775 435.044 296.426 426.923C293.78 422.903 291.367 418.711 289.373 414.339C291.515 414.715 293.663 415.091 295.805 415.441C302.969 416.624 310.17 417.602 317.402 418.31C322.708 433.978 333.51 447.529 344.041 460.137C347.555 464.354 351.088 468.615 354.849 472.629C345.112 472.493 335.381 473.589 326.013 476.39C321.945 477.609 317.962 479.154 314.146 481.014C310.835 482.633 307.333 484.621 305.813 488.173L305.825 488.161ZM407.535 362.915C407.393 364.011 407.221 365.113 407.03 366.202C405.848 372.66 403.663 378.971 400.777 384.789C393.809 398.831 383.284 410.523 372.323 421.61C371.762 422.183 371.196 422.749 370.63 423.309C371.178 423.9 371.719 424.491 372.249 425.089C377.665 431.091 382.749 437.383 387.445 443.964C394.111 453.279 400.924 463.375 405.208 474.051C409.264 484.135 408.71 498.024 396.29 501.49C391.366 502.857 386.153 502.53 381.093 502.481C374.618 502.413 368.162 502.82 361.705 503.306C349.352 504.229 336.883 505.418 324.567 503.891C323.12 503.712 321.674 503.497 320.234 503.232C319.803 503.164 319.372 503.078 318.941 502.992C318.904 502.98 318.873 502.973 318.836 502.973C318.209 502.77 317.636 502.438 317.193 501.921C317.082 501.791 316.978 501.65 316.885 501.508C316.436 500.788 316.307 500.172 316.411 499.643C316.731 498.024 319.144 497.186 320.775 496.645C324.764 495.321 328.9 495.019 333.054 495.555C334.581 495.752 334.562 493.351 333.054 493.16C329.392 492.68 325.699 492.852 322.111 493.757C319.612 494.379 315.71 495.321 314.442 497.845C314.153 498.424 314.005 499.04 313.992 499.674C312.768 499.39 311.709 498.652 311.13 497.476C310.94 497.113 310.804 496.706 310.724 496.251C310.657 495.857 310.632 495.469 310.669 495.093C310.786 493.751 311.555 492.6 312.565 491.695C313.014 491.289 313.519 490.932 314.036 490.624C315.525 489.743 317.162 489.269 318.849 488.906C321.452 488.352 324.154 488.081 326.604 487.071C328.007 486.493 327.398 484.172 325.97 484.763C321.6 486.567 315.371 486.382 311.475 489.374C310.62 490.033 309.881 490.839 309.302 491.849C309.136 492.132 308.982 492.428 308.841 492.754C308.656 493.172 308.521 493.597 308.428 494.01C308.281 493.856 308.158 493.69 308.053 493.517C307.751 493.025 307.598 492.471 307.542 491.904C307.474 491.116 307.604 490.291 307.875 489.522C308.053 489.017 308.281 488.537 308.539 488.118C310.336 485.237 313.925 483.716 316.879 482.362C323.053 479.511 329.644 477.591 336.335 476.409C343.222 475.196 350.22 474.796 357.206 475.048C358.394 475.085 359.588 475.14 360.782 475.22C359.933 474.395 359.089 473.564 358.265 472.709C354.99 469.341 351.919 465.764 348.891 462.169C342.207 454.233 335.498 446.254 329.792 437.574C325.859 431.602 322.419 425.255 320.024 418.532C319.729 417.719 319.452 416.894 319.193 416.063C318.541 414.013 317.999 411.926 317.569 409.808C315.476 399.466 316.436 388.753 319.477 378.694C322.96 367.144 329.041 356.475 336.464 347.007C337.4 345.812 335.719 344.101 334.765 345.314C321.563 362.151 311.869 383.533 314.454 405.376C314.879 408.965 315.624 412.437 316.627 415.811C307.117 414.85 297.651 413.428 288.24 411.668C287.317 411.495 286.394 411.323 285.471 411.144C281.144 410.313 276.823 409.408 272.521 408.454C273.752 407.223 274.946 405.954 276.084 404.649C280.128 400.013 281.458 395.248 281.224 389.147C280.971 382.874 280.337 376.601 279.476 370.383C277.42 355.57 273.721 341.035 268.52 327.017C267.985 325.582 265.677 326.204 266.212 327.651C270.73 339.828 274.127 352.4 276.275 365.205C277.359 371.645 278.122 378.14 278.571 384.659C278.793 387.811 279.113 391.068 278.719 394.214C278.263 397.797 276.497 400.605 274.133 403.258C272.718 404.84 271.247 406.367 269.726 407.832C269 408.54 268.262 409.23 267.511 409.913C254.635 421.623 238.86 429.971 224.931 440.277C222.118 442.364 219.373 444.524 216.739 446.815C214.172 445.737 211.513 444.857 208.744 444.198C207.248 443.835 206.608 446.15 208.11 446.507C210.381 447.049 212.597 447.75 214.732 448.594C215.551 448.914 216.351 449.253 217.151 449.603C226.285 453.71 234.157 460.285 240.854 467.839C241.389 468.436 241.906 469.039 242.423 469.655C243.045 469.15 243.697 468.688 244.374 468.282C245.015 467.882 245.685 467.531 246.369 467.229C247.113 466.903 247.883 466.614 248.671 466.392C249.495 466.152 250.351 465.98 251.225 465.863C252.727 465.659 252.751 463.258 251.225 463.468C249.895 463.646 248.609 463.929 247.372 464.336C246.904 463.579 246.449 462.815 245.987 462.039C246.836 460.537 247.846 459.14 249.015 457.89C254.641 460.174 257.921 465.567 260.137 471.336C258.808 473.121 257.318 474.734 255.693 476.187C255.109 476.729 254.499 477.246 253.871 477.738C248.357 482.146 241.642 485.089 234.822 487.293C216.493 478.668 199.542 467.254 184.635 453.494C189.331 430.075 199.536 407.863 214.203 389.018C214.695 388.372 215.212 387.731 215.723 387.097C217.12 385.355 218.555 383.65 220.032 381.969C220.58 381.347 221.14 380.725 221.706 380.104C221.275 379.383 220.869 378.657 220.469 377.918C212.923 363.925 209.919 347.573 207.808 331.85C207.605 330.329 205.291 330.975 205.5 332.49C207.685 348.694 210.873 365.464 218.782 379.783C217.04 381.741 215.354 383.73 213.717 385.774C212.406 384.912 211.101 384.038 209.796 383.17C207.814 381.84 205.845 380.485 203.894 379.106C203.137 378.583 202.392 378.054 201.647 377.512C191.368 370.136 181.582 362.102 172.528 353.237C167.795 348.607 163.265 343.762 158.963 338.745C158.249 337.914 157.535 337.082 156.833 336.239C152.008 330.464 147.465 324.456 143.212 318.244C148.813 317.665 154.439 316.736 159.658 314.71C160.526 314.378 161.394 314.008 162.231 313.602C162.976 313.257 163.702 312.882 164.422 312.475C166.029 311.576 167.555 310.53 168.977 309.36C174.547 309.927 180.148 310.284 185.749 310.327C199.653 310.431 213.692 308.535 226.839 303.893C229.91 302.804 233.062 301.529 236.115 300.002C240.86 297.638 245.359 294.677 248.96 290.903C251.348 289.241 253.699 287.049 255.109 284.476C260.894 280.819 266.39 276.756 271.573 272.348C305.64 276.503 338.618 287.646 368.833 303.844C380.361 310.019 391.834 317.48 399.404 328.217C400.069 329.147 400.697 330.113 401.287 331.098C402.155 332.521 402.943 333.992 403.669 335.519C407.732 344.156 408.723 353.625 407.547 362.909L407.535 362.915ZM455.974 245.044C452.472 248.295 446.034 251.213 441.491 248.418C437.805 246.146 437.552 241.381 437.552 237.49C437.552 233.599 438.02 229.684 437.201 225.885C436.284 221.625 433.225 218.017 429.803 215.475C417.998 206.726 396.468 204.763 386.036 216.669C372.476 232.152 383.5 254.488 393.637 268.482C403.682 282.352 416.779 294.862 422.99 311.146C426.239 319.684 427.28 329.215 424.885 338.104C422.497 346.982 417.062 354.758 410.175 360.748C410.735 354.425 410.28 348.041 408.532 341.811C407.085 336.627 404.765 331.905 401.829 327.602C402.451 319.925 399.349 312.161 394.689 305.876C388.448 297.466 380.164 290.682 373.221 282.869C359.403 267.324 347.555 247.968 351.02 226.316C357.717 184.459 412.637 171.659 444.544 193.016C453.333 198.895 460.147 207.545 462.633 217.937C464.855 227.258 463.243 238.253 455.961 245.044H455.974Z" fill="#1D1D1B"/>
<path d="M71.3477 193.158C71.3477 196.599 74.1358 199.394 77.5764 199.394C78.2227 199.394 78.8443 199.296 79.429 199.111C81.9649 198.323 83.8113 195.953 83.8113 193.158C83.8113 189.717 81.017 186.928 77.5764 186.928C77.1456 186.928 76.727 186.971 76.3208 187.057C73.4834 187.636 71.3477 190.148 71.3477 193.158Z" fill="white"/>
<path d="M77.5764 199.394C74.1358 199.394 71.3477 196.599 71.3477 193.158C71.3477 190.147 73.4834 187.635 76.3208 187.057C73.4834 187.635 71.3477 190.147 71.3477 193.164C71.3477 196.605 74.1358 199.4 77.5764 199.4V199.394Z" fill="white"/>
</g>
<defs>
<clipPath id="clip0_1660_7789">
<rect width="466" height="507" fill="white"/>
</clipPath>
</defs>
</svg>
