<svg width="229" height="412" viewBox="0 0 229 412" fill="none" xmlns="http://www.w3.org/2000/svg">
<g clip-path="url(#clip0_1660_8027)">
<path d="M151.523 90.8361C148.229 90.512 145.454 89.4276 143.28 86.8099C140.556 83.5315 139.729 79.0249 140.168 74.8727C140.51 71.6372 141.788 68.4155 144.386 66.3312C146.214 64.8647 148.777 63.9846 151.129 64.2305C154.637 64.8029 157.588 66.2593 159.731 69.2036C159.877 69.4078 160.019 69.6146 160.154 69.8265C160.29 70.037 160.42 70.2514 160.545 70.4683C160.67 70.6851 160.79 70.9058 160.904 71.129C161.019 71.3522 161.128 71.5779 161.232 71.8074C161.336 72.0356 161.433 72.2664 161.525 72.4996C161.617 72.7329 161.704 72.9687 161.785 73.2058C161.866 73.4428 161.94 73.6824 162.01 73.9232C162.079 74.1641 162.142 74.4074 162.199 74.652C162.256 74.8967 162.306 75.1413 162.352 75.3884C162.397 75.6356 162.436 75.8827 162.469 76.1311C162.502 76.3795 162.528 76.6292 162.55 76.8801C162.57 77.1298 162.585 77.3807 162.594 77.6316C162.603 77.8825 162.604 78.1335 162.6 78.3844C162.596 78.6353 162.586 78.8862 162.57 79.1359C162.554 79.3868 162.531 79.6365 162.503 79.8849C162.475 80.1346 162.44 80.383 162.4 80.6301C161.884 83.8077 160.439 86.9448 157.751 88.8514C155.928 90.1438 153.744 90.7667 151.524 90.8348L151.523 90.8361ZM157.609 79.5482C157.597 79.3805 157.582 79.2128 157.562 79.0451C157.542 78.8774 157.518 78.711 157.49 78.5445C157.462 78.3781 157.429 78.2129 157.394 78.049C157.358 77.8851 157.317 77.7211 157.273 77.5585C157.229 77.3958 157.181 77.2344 157.128 77.0743C157.075 76.9141 157.019 76.7553 156.959 76.5976C156.898 76.44 156.834 76.2849 156.766 76.1298C156.698 75.976 156.626 75.8234 156.55 75.6734C156.474 75.5233 156.395 75.3745 156.312 75.2283C156.228 75.082 156.141 74.937 156.052 74.7945C155.962 74.652 155.867 74.5121 155.77 74.3746C154.28 72.3067 152.252 71.2412 149.773 70.8604C148.351 70.9663 147.08 71.2374 145.826 71.9486C143.81 73.0923 142.416 75.0896 141.828 77.3113C141.788 77.4639 141.752 77.619 141.719 77.7728C141.686 77.9279 141.659 78.083 141.633 78.2394C141.609 78.3957 141.588 78.5521 141.571 78.7097C141.555 78.8673 141.542 79.0249 141.532 79.1826C141.523 79.3402 141.518 79.4978 141.517 79.6567C141.516 79.8155 141.517 79.9732 141.525 80.1308C141.531 80.2884 141.542 80.4473 141.556 80.6049C141.571 80.7625 141.589 80.9201 141.611 81.0765C141.633 81.2328 141.659 81.3892 141.689 81.5443C141.719 81.6994 141.752 81.8545 141.79 82.0083C141.828 82.1621 141.869 82.3147 141.913 82.466C141.959 82.6173 142.007 82.7686 142.06 82.9174C142.111 83.0662 142.168 83.215 142.228 83.3613C142.287 83.5075 142.35 83.6526 142.417 83.7963C142.484 83.94 142.554 84.0813 142.628 84.2212C142.702 84.3612 142.779 84.4999 142.86 84.6348C144.269 87.0192 146.244 88.12 148.834 88.7908C150.776 88.9005 152.416 88.9031 154.111 87.7745C156.012 86.5086 157.08 84.254 157.462 82.06C157.493 81.8948 157.519 81.7284 157.54 81.5607C157.562 81.3942 157.58 81.2265 157.593 81.0588C157.607 80.8911 157.616 80.7234 157.623 80.5544C157.628 80.3867 157.629 80.2178 157.625 80.0501C157.623 79.8811 157.615 79.7134 157.604 79.5457L157.609 79.5482Z" fill="#FEFEFE"/>
<path d="M170.117 358.226C168.792 356.733 168.055 355.374 168.191 353.321C168.351 350.895 169.842 348.505 171.719 347.015C172.171 346.657 172.667 346.361 173.164 346.072C173.44 350.658 173.581 355.248 173.81 359.837C172.451 359.458 171.237 359.132 170.118 358.225L170.117 358.226Z" fill="#FEFEFE"/>
<path d="M158.358 126.552C155.153 120.71 153.85 112.547 155.018 105.991C156.182 105.719 157.388 105.514 158.462 104.976L158.638 104.641C158.207 104.076 157.149 103.945 156.478 103.812C155.66 103.868 154.845 103.95 154.034 104.058C151.977 104.348 148.288 104.966 146.988 106.697L147.193 106.968C149.104 107.265 151.454 106.611 153.327 106.229C153.014 111.382 153.272 115.994 154.454 121.028C152.284 120.303 150.175 119.429 148.13 118.405C138.104 113.455 130.802 106.895 127.221 96.1117C123.389 84.5729 122.685 65.6249 128.409 54.4367C131.617 48.1636 139.395 40.0949 145.174 36.1406C147.764 34.3677 150.433 33.0185 153.413 32.0426C154.002 32.262 154.606 32.5028 155.228 32.6037C156.33 32.7827 157.522 32.6869 158.406 31.9417C159.383 31.1183 159.49 30.2243 159.597 29.0075C172.047 27.9307 183.84 29.6241 194.044 37.4759C202.734 44.1639 207.827 55.0457 209.148 65.7724C210.23 74.5498 209.229 88.0644 203.578 95.2807C208.422 100.744 211.285 106.358 210.849 113.838C210.602 118.101 209.258 122.54 205.991 125.48C201.94 129.125 195.329 129.937 190.107 129.549C181.383 128.9 171.317 125.172 165.488 118.395C163.362 115.922 161.786 113.101 160.178 110.283C160.357 111.486 160.62 112.669 160.97 113.834C161.32 114.998 161.751 116.131 162.263 117.234C164.671 122.418 170.624 130.295 175.253 133.665C175.479 133.831 175.709 133.991 175.942 134.145C176.176 134.3 176.413 134.449 176.654 134.591C176.895 134.734 177.138 134.871 177.387 135.003C177.636 135.134 177.885 135.258 178.139 135.377C178.393 135.496 178.649 135.608 178.909 135.714C179.167 135.82 179.43 135.919 179.694 136.013C179.957 136.106 180.223 136.192 180.492 136.272C180.761 136.352 181.031 136.425 181.304 136.492C181.576 136.559 181.849 136.618 182.124 136.671C182.399 136.724 182.675 136.77 182.953 136.809C183.23 136.849 183.508 136.881 183.787 136.908C184.066 136.934 184.344 136.953 184.625 136.965C184.905 136.976 185.185 136.982 185.464 136.98C185.744 136.978 186.024 136.97 186.303 136.953C186.583 136.938 186.862 136.915 187.141 136.886C187.419 136.857 187.697 136.821 187.973 136.778C193.317 135.92 196.681 131.105 199.12 130.7L199.309 130.931C198.356 134.25 193.722 138.695 190.658 140.378C185.933 142.974 180.526 142.366 175.514 140.906C168.097 138.745 162.041 133.26 158.361 126.552H158.358ZM199.384 105.117C199.688 106.376 200.422 106.93 201.478 107.589C201.953 107.616 202.469 107.667 202.94 107.589C203.647 107.471 204.371 106.891 204.773 106.316C205.311 105.546 205.426 104.561 205.217 103.658C204.929 102.424 204.186 101.812 203.142 101.186C202.657 101.177 202.135 101.152 201.656 101.239C200.89 101.379 200.132 101.998 199.729 102.643C199.262 103.392 199.179 104.266 199.385 105.116L199.384 105.117ZM184.652 82.7256C186.59 85.5867 189.318 86.8615 192.612 87.4453C195.015 87.5865 197.26 87.0796 199.242 85.6674C202.134 83.6083 203.773 80.2139 204.265 76.7665C204.799 73.024 204.12 69.1593 201.796 66.1116C199.837 63.5419 197.322 62.088 194.116 61.6643C191.961 61.6038 189.837 62.0615 188.001 63.2266C185.118 65.0575 183.417 68.3838 182.727 71.6522C181.952 75.324 182.524 79.5847 184.651 82.7244L184.652 82.7256ZM171.836 105.913C172.35 106.993 173.282 107.458 174.368 107.809C174.856 107.808 175.383 107.734 175.838 107.546C176.578 107.241 177.193 106.541 177.456 105.791C177.757 104.933 177.637 103.958 177.193 103.173C176.626 102.173 175.869 101.914 174.804 101.643C174.378 101.686 173.921 101.743 173.513 101.875C172.765 102.116 172.04 102.817 171.737 103.536C171.412 104.304 171.482 105.168 171.836 105.913ZM163.565 81.9035C163.622 81.6236 163.671 81.3437 163.713 81.0612C163.756 80.7788 163.791 80.4963 163.819 80.2126C163.848 79.9289 163.87 79.6452 163.885 79.3602C163.9 79.0753 163.907 78.7903 163.909 78.5053C163.909 78.2203 163.904 77.9354 163.89 77.6504C163.877 77.3654 163.857 77.0817 163.83 76.798C163.804 76.5143 163.77 76.2306 163.73 75.9481C163.689 75.6657 163.641 75.3845 163.587 75.1046C163.533 74.8247 163.472 74.546 163.404 74.2698C163.336 73.9937 163.261 73.7176 163.181 73.4439C163.099 73.1703 163.012 72.9005 162.917 72.6306C162.822 72.3621 162.721 72.0947 162.614 71.8312C162.507 71.5677 162.392 71.3054 162.272 71.0469C162.152 70.7884 162.026 70.5325 161.892 70.2803C161.76 70.0281 161.621 69.7784 161.476 69.5338C161.331 69.2879 161.181 69.0458 161.024 68.8075C158.857 65.5694 155.771 63.678 151.968 62.929C149.277 62.6113 146.713 62.987 144.443 64.5645C141.378 66.6929 139.633 70.3017 139.042 73.9042C138.302 78.4044 139.047 83.2401 141.756 86.9901C143.969 90.0542 146.94 91.3542 150.528 91.9607C153.288 92.0263 155.856 91.537 158.218 90.0579C161.126 88.2359 162.888 85.2059 163.567 81.901L163.565 81.9035Z" fill="#FEFEFE"/>
<path d="M169.802 331.315C169.578 331.182 169.389 331.018 169.19 330.849C167.994 329.266 167.632 327.725 167.912 325.752C168.282 323.156 169.77 320.369 171.898 318.794C172.32 318.483 172.795 318.22 173.248 317.959C173.293 320.277 173.576 330.593 172.776 331.979C171.823 332.255 170.63 331.808 169.801 331.315H169.802Z" fill="#FEFEFE"/>
<path d="M181.102 134.671C176.311 133.204 170.861 128.228 168.536 123.822C168.319 123.41 168.349 123.589 168.359 123.237C176.795 129.084 185.166 131.318 195.401 131.137C194.553 131.967 193.748 132.71 192.76 133.378C188.957 135.434 185.269 135.946 181.102 134.67V134.671Z" fill="#FEFEFE"/>
<path d="M165.525 386.657C167.191 386.163 168.24 385.342 169.448 384.147C169.708 383.888 170.027 383.437 170.33 383.253C172.395 384.143 174.214 384.451 176.442 384.689C179.569 388.169 181.428 390.758 181.319 395.652C180.447 397.017 179.652 398.007 177.991 398.345C176.355 398.678 174.649 398.137 173.154 397.508C173.118 395.56 172.953 394.237 171.578 392.744L171.264 392.695C170.451 395.194 172.543 399.817 169.198 401.255C168.817 401.419 168.38 401.54 167.975 401.626C163.938 401.599 159.217 400.626 156.312 397.573C153.317 394.427 153.782 388.225 153.566 384.172C157.098 386.065 161.47 387.859 165.526 386.656L165.525 386.657Z" fill="#FEFEFE"/>
<path d="M171.463 285.372C172.619 282.588 173.372 279.359 174.74 276.715C174.256 282.12 174.234 287.598 174.057 293.025C173.766 300.897 173.533 308.77 173.362 316.646C170.512 317.849 168.65 319.952 167.512 322.804C166.608 325.074 166.097 327.893 167.144 330.192C167.23 330.377 167.324 330.557 167.429 330.732C167.534 330.907 167.647 331.076 167.768 331.239C167.891 331.401 168.021 331.558 168.16 331.708C168.298 331.858 168.443 331.999 168.597 332.134C168.751 332.268 168.912 332.394 169.077 332.511C169.243 332.628 169.415 332.737 169.593 332.836C169.771 332.936 169.954 333.025 170.141 333.106C170.327 333.187 170.519 333.257 170.713 333.318C171.431 333.535 172.219 333.593 172.963 333.656C173.011 337.311 173.168 341.005 173.084 344.658C170.207 346.312 167.939 348.502 167.058 351.826C166.536 353.795 166.753 355.998 167.819 357.757C168.748 359.291 170.346 360.389 172.089 360.786C172.682 360.922 173.296 360.97 173.901 361.024C174.188 365.256 174.632 369.471 175.234 373.67C175.583 375.995 176.285 378.442 176.419 380.772C176.448 381.289 176.355 381.672 176.128 382.141C175.566 382.562 175.204 382.696 174.492 382.608C173.075 382.432 170.136 380.788 168.982 381.673C168.142 382.319 167.681 383.504 166.841 384.218C164.006 385.532 161.207 385.497 158.292 384.446C156.439 383.778 154.727 382.757 153.355 381.333C152.527 375.645 152.559 369.632 152.235 363.888C151.302 347.416 151.088 330.96 150.477 314.483C160.684 306.585 166.595 297.108 171.464 285.374L171.463 285.372Z" fill="#FEFEFE"/>
<path d="M53.9409 388.708C56.5957 388.235 58.4821 386.04 59.0095 385.952C61.9621 386.955 64.8995 388.02 67.8924 386.509C67.9618 386.474 68.0287 386.435 68.0968 386.398C69.9933 389.316 72.6291 392.974 71.8228 396.656C71.6096 397.628 71.0822 398.461 70.2305 398.991C68.3807 400.142 65.8004 399.615 63.7727 399.292C63.7916 397.668 63.7475 394.778 62.3469 393.69C61.875 393.324 61.5419 393.416 60.9955 393.467L60.6561 393.781C61.2113 396.117 62.7507 398.499 61.2441 400.853C61.1129 401.058 60.969 401.239 60.8012 401.414C58.0783 403.365 55.5081 403.081 52.3612 402.539C50.0648 402.143 47.4478 401.332 46.0119 399.383C43.925 396.552 43.9085 389.637 43.7824 386.044C46.7501 388.175 50.2603 389.366 53.9435 388.709L53.9409 388.708Z" fill="#FEFEFE"/>
<path d="M66.8552 378.105C69.5113 378.478 73.6348 379.332 75.9842 377.753C76.4662 377.429 76.904 376.866 77.2851 376.431L77.4908 376.366C80.1468 376.966 81.5638 377.158 83.0918 379.604C84.322 381.574 85.4904 384.469 84.8835 386.788C84.592 387.902 83.8943 388.847 82.8773 389.4C82.0369 389.857 81.0351 389.989 80.1203 389.693C79.3973 389.458 78.8775 389.001 78.5494 388.317C78.1683 387.527 78.0257 386.481 77.328 385.915C76.8006 385.857 76.4094 385.924 75.9602 386.246C75.781 386.374 75.7533 386.428 75.6359 386.582C75.7609 387.111 75.9022 387.546 76.1217 388.042C76.4119 388.704 76.4182 389.115 76.3236 389.833C75.5678 391.066 74.8763 391.645 73.607 392.322C72.1925 389.679 70.4286 387.147 69.1214 384.473C68.146 382.478 67.5429 380.213 66.8552 378.103V378.105Z" fill="#FEFEFE"/>
<path d="M134.233 395.192C137.676 394.144 137.842 391.729 138.866 391.287C140.842 392.255 142.928 392.802 144.964 393.599C146.726 396.617 148.191 400.712 147.184 404.211C146.722 405.815 145.791 407.013 144.437 407.964C142.047 408.031 140.244 407.549 138.054 406.65C138.326 404.982 138.394 402.856 137.414 401.407C136.912 401.114 136.856 401.118 136.272 401.156C136.02 401.344 135.847 401.377 135.786 401.712C135.326 404.262 138.112 406.381 134.219 409.569C134.126 409.646 134.03 409.719 133.935 409.795C130.819 410.575 127.458 409.489 124.788 407.825C122.593 406.457 121.38 404.645 120.863 402.126C120.245 399.116 120.379 395.787 120.321 392.72C124.224 394.745 129.849 396.525 134.232 395.19L134.233 395.192Z" fill="#FEFEFE"/>
<path d="M158.031 176.825C158.565 178.389 158.482 180.18 157.727 181.659C157.13 182.83 155.874 184.073 154.553 184.369C154.035 184.485 153.489 184.517 152.961 184.558C151.526 183.94 150.575 183.044 149.955 181.59C149.868 181.381 149.791 181.169 149.725 180.952C149.659 180.736 149.605 180.517 149.561 180.294C149.518 180.072 149.485 179.849 149.465 179.623C149.444 179.397 149.435 179.172 149.437 178.946C149.44 178.72 149.454 178.494 149.478 178.27C149.503 178.046 149.54 177.822 149.588 177.6C149.635 177.38 149.693 177.162 149.763 176.946C149.832 176.73 149.913 176.52 150.004 176.313C150.587 175.022 151.683 173.907 153.05 173.465C153.595 173.288 154.166 173.265 154.734 173.275C156.343 174.046 157.441 175.103 158.029 176.825H158.031Z" fill="#FEFEFE"/>
<path d="M75.2083 346.911C73.973 348.834 73.096 351.835 73.6146 354.096C73.65 354.252 73.6929 354.407 73.7433 354.56C73.7938 354.712 73.8531 354.862 73.9187 355.009C73.9843 355.155 74.0588 355.297 74.1395 355.436C74.2203 355.575 74.3086 355.71 74.4032 355.84C74.4979 355.969 74.5988 356.094 74.7073 356.213C74.8146 356.333 74.9281 356.446 75.048 356.553C75.1679 356.662 75.2915 356.763 75.4215 356.857C75.5515 356.952 75.6852 357.04 75.824 357.121C76.6215 357.585 77.3709 357.658 78.2668 357.766C78.3375 357.774 78.4069 357.788 78.4775 357.798C78.3312 363.519 78.3387 368.954 79.7936 374.543L79.7696 374.921C78.7059 374.912 77.5526 374.182 76.5306 373.863C75.4215 375.456 74.6783 376.559 72.6128 376.878C70.6709 377.178 68.3303 376.565 66.4705 376.004C62.5905 362.081 65.8408 341.71 69.3927 327.82C69.7877 326.277 70.3479 322.339 71.1352 321.238C71.2841 321.03 71.3182 321.025 71.4986 320.9L72.0185 320.921C76.2442 322.082 80.374 323.015 84.6956 323.734C82.5152 330.248 80.6465 337.111 79.6295 343.907C77.6069 344.308 76.3363 345.158 75.2108 346.912L75.2083 346.911Z" fill="#FEFEFE"/>
<path d="M75.6549 355.572C74.6203 354.08 74.4096 352.769 74.7212 350.97C75.0455 349.097 76.0865 346.903 77.7318 345.838C78.2126 345.526 78.7753 345.275 79.3254 345.118C79.015 349.072 78.6794 353.025 78.3185 356.977C77.3823 356.566 76.4675 356.206 75.6562 355.572H75.6549Z" fill="#FEFEFE"/>
<path d="M177.401 27.956L173.677 27.0973C174.167 23.9097 174.764 17.9013 175.772 15.1601L175.993 15.0327C177.26 15.2748 178.459 15.4173 179.749 15.464C179.167 18.3994 178.687 25.8843 177.901 27.903L177.401 27.956Z" fill="#FEFEFE"/>
<path d="M132.413 45.9345C130.415 43.5803 128.429 41.5326 125.832 39.8366C120.394 36.2846 113.579 34.6605 107.175 36.0135C107.633 40.6865 108.543 45.884 111.194 49.8497C114.571 54.8997 119.296 56.6171 125.014 57.7469L123.657 63.1953C118.215 62.0315 113.908 60.1956 110.094 56.0219C104.957 50.4007 100.625 40.52 101.09 32.812C101.158 31.6822 101.371 30.454 102.301 29.7038C105.149 27.4076 113.022 27.1693 116.545 27.5413C124.092 28.0406 129.977 33.508 134.741 38.9136C135.345 39.5983 135.965 40.3095 136.497 41.0509L136.683 41.1556C136.455 42.0735 133.245 45.0493 132.412 45.932L132.413 45.9345Z" fill="#FEFEFE"/>
<path d="M108.908 40.3282C108.724 39.2413 108.544 38.1581 108.461 37.0586C109.936 36.9376 111.409 36.7774 112.89 36.8707C121.109 37.452 126.358 40.8149 131.703 46.9241C129.279 49.8659 127.255 52.6677 125.652 56.1504L125.303 56.6749C122.921 57.0834 118.006 54.9953 115.955 53.5629C111.57 50.5027 109.766 45.3896 108.907 40.3282H108.908Z" fill="#FEFEFE"/>
<path d="M137.156 185.653C140.571 187.118 143.443 189.554 144.812 193.099C144.862 193.229 144.91 193.358 144.956 193.491C145 193.623 145.041 193.756 145.079 193.89C145.117 194.024 145.151 194.159 145.183 194.295C145.213 194.431 145.241 194.568 145.266 194.705C145.29 194.842 145.31 194.98 145.328 195.117C145.345 195.256 145.358 195.395 145.368 195.533C145.378 195.672 145.385 195.812 145.388 195.951C145.391 196.09 145.391 196.23 145.387 196.368C145.383 196.507 145.376 196.647 145.364 196.786C145.353 196.924 145.339 197.063 145.32 197.202C145.303 197.339 145.281 197.478 145.256 197.614C145.231 197.751 145.202 197.888 145.17 198.023C145.137 198.159 145.102 198.294 145.063 198.427C145.024 198.561 144.982 198.693 144.937 198.826C144.891 198.958 144.842 199.088 144.79 199.217C144.739 199.345 144.683 199.474 144.624 199.6C143.822 201.295 142.479 202.54 140.894 203.494C138.777 204.562 136.904 204.873 134.542 204.888C134.493 203.347 136.298 186.456 136.702 185.728L137.156 185.653Z" fill="#FEFEFE"/>
<path d="M134.668 229.565C135.471 230.696 135.737 232.073 135.498 233.431C135.131 235.519 133.66 237.279 131.943 238.443C129.369 240.187 126.582 240.55 123.572 240.206C121.133 239.602 119.078 238.304 117.777 236.099C117.041 234.85 116.557 233.279 117.005 231.848C117.355 230.73 117.889 230.189 118.935 229.682C121.339 228.517 126.371 226.502 128.974 226.606C131.157 226.939 133.331 227.678 134.67 229.563L134.668 229.565Z" fill="#FEFEFE"/>
<path d="M151.544 15.1299C150.482 15.5145 149.324 15.7238 148.21 15.8903C146.701 15.9004 145.603 15.6847 144.503 14.5764C143.593 13.6597 143.216 12.3471 143.246 11.0798C143.29 9.24013 144.207 7.495 145.554 6.2656C147.078 4.87353 148.801 4.39564 150.821 4.50534C152.781 5.21272 154.775 6.50139 155.636 8.48483C156.092 9.53267 156.145 10.7142 155.694 11.7733C154.977 13.4605 153.202 14.531 151.546 15.1299H151.544Z" fill="#FEFEFE"/>
<path d="M89.7187 239.342C90.1628 240.566 89.9092 241.85 89.3401 242.985C88.038 245.582 85.334 247.186 82.6388 248.031C82.2792 248.145 81.9146 248.243 81.5461 248.327C81.1777 248.412 80.8068 248.481 80.4333 248.536C80.0598 248.59 79.6838 248.629 79.3078 248.654C78.9305 248.678 78.5532 248.687 78.1759 248.682C77.7987 248.675 77.4214 248.655 77.0454 248.619C76.6694 248.583 76.2959 248.532 75.9237 248.466C75.5514 248.401 75.183 248.32 74.8184 248.224C74.4524 248.128 74.0916 248.019 73.7357 247.894C72.373 247.199 70.3655 246.035 69.881 244.489C69.6703 243.817 69.7435 243.117 70.0753 242.498C71.6298 239.597 79.7216 237.458 83.0111 236.597C84.1593 236.296 85.2621 236.071 86.4507 236.004C87.8992 236.741 89.1446 237.758 89.7199 239.345L89.7187 239.342Z" fill="#FEFEFE"/>
<path d="M157.975 161.113C156.236 159.832 155.197 158.447 154.886 156.256C154.617 154.359 155.085 152.101 156.265 150.568C157.018 149.589 158.204 148.794 159.453 148.679C159.813 148.646 160.169 148.666 160.528 148.689C162.209 150.018 162.985 151.999 163.255 154.093C163.506 156.039 163.172 158.536 161.905 160.112C161.33 160.827 160.369 161.38 159.443 161.429C158.912 161.458 158.462 161.291 157.975 161.113Z" fill="#FEFEFE"/>
<path d="M213.685 29.3518C215.562 29.0618 217.45 28.9647 219.346 29.0618C218.897 35.3072 217.279 40.9398 212.39 45.1626C211.902 45.5914 211.394 45.9949 210.866 46.3719C210.337 46.7501 209.791 47.0994 209.227 47.4222C208.663 47.745 208.085 48.0388 207.492 48.3036C206.899 48.5684 206.293 48.8029 205.676 49.0059C204.614 47.5092 203.645 45.9633 202.674 44.4086C201.291 42.3558 199.654 40.4972 198.057 38.6083C201.661 33.5848 207.615 30.3379 213.685 29.3531V29.3518Z" fill="#FEFEFE"/>
<path d="M206.118 49.9566C211.253 48.1358 215.541 44.6354 217.934 39.6913C218.834 37.8327 219.421 35.8594 219.814 33.8356C220.091 31.8521 220.319 29.8989 220.291 27.8928C213.372 27.2573 205.841 29.3429 200.47 33.8646C199.085 35.0309 197.996 36.3373 197.096 37.9147C195.659 36.6537 194.186 35.563 192.625 34.466C196.465 27.5007 203.063 22.8125 210.658 20.5819C214.583 19.4294 218.338 18.9553 222.411 19.3134C223.554 19.4698 224.579 19.6615 225.678 20.0334C227.597 26.4226 225.916 34.7144 222.831 40.4908C222.631 40.8703 222.422 41.2448 222.207 41.6155C221.991 41.9862 221.769 42.3531 221.539 42.7163C221.309 43.0794 221.074 43.4363 220.83 43.7906C220.586 44.1437 220.337 44.4929 220.08 44.8359C219.824 45.1802 219.561 45.5181 219.291 45.8522C219.021 46.1864 218.744 46.5142 218.463 46.8383C218.18 47.1611 217.893 47.4788 217.597 47.7915C217.302 48.1042 217.002 48.4094 216.696 48.7108C216.39 49.0109 216.078 49.3059 215.76 49.5947C215.442 49.8834 215.119 50.1659 214.791 50.442C214.463 50.7182 214.129 50.988 213.791 51.2515C213.451 51.5151 213.108 51.771 212.76 52.022C212.411 52.2729 212.057 52.5162 211.7 52.752C211.341 52.9891 210.979 53.2186 210.612 53.4405C210.245 53.6637 209.874 53.8793 209.499 54.0874C209.123 54.2954 208.745 54.4972 208.362 54.6913C207.636 53.1076 206.94 51.4974 206.121 49.9591L206.118 49.9566Z" fill="#FEFEFE"/>
<path d="M156.43 31.097C155.76 31.2142 155.124 31.1146 154.495 30.8725C151.952 27.3054 151.049 21.5 149.584 17.3264C150.931 16.9077 152.298 16.5232 153.596 15.9658C154.384 18.3843 158.072 28.4478 157.837 30.116C157.441 30.6771 157.128 30.9747 156.43 31.0982V31.097Z" fill="#FEFEFE"/>
<path d="M188.131 64.6856C190.199 63.2002 192.372 63.0174 194.82 63.1258C197.821 63.9845 200.189 65.4976 201.761 68.2843C203.439 71.2576 203.703 75.3745 202.716 78.6252C201.887 81.3538 200.016 83.9513 197.482 85.3182C197.357 85.3863 197.231 85.4518 197.104 85.5136C196.976 85.5754 196.847 85.6347 196.716 85.6889C196.585 85.7444 196.454 85.7961 196.32 85.8453C196.186 85.8932 196.052 85.9386 195.916 85.9814C195.781 86.0231 195.644 86.0609 195.506 86.0962C195.369 86.1315 195.23 86.1617 195.091 86.1895C194.952 86.2172 194.812 86.2412 194.671 86.2614C194.529 86.2815 194.389 86.2992 194.248 86.3118C194.107 86.3257 193.965 86.3345 193.823 86.3408C193.682 86.3471 193.539 86.3496 193.398 86.3484C193.255 86.3484 193.114 86.3421 192.971 86.3345C192.83 86.3257 192.689 86.3143 192.547 86.2979C192.406 86.2828 192.266 86.2639 192.126 86.2412C191.986 86.2185 191.846 86.192 191.707 86.163C191.568 86.1328 191.431 86.1 191.293 86.0634C191.155 86.0268 191.019 85.9865 190.884 85.9424C189.911 85.6359 189.048 85.1164 188.223 84.5301C190.367 85.2993 192.372 85.849 194.576 84.8441C195.704 84.3296 196.57 83.5491 197.342 82.5971C198.673 80.0702 199.045 77.4323 198.214 74.652C197.505 72.2789 195.871 70.008 193.655 68.8303C192.016 67.959 190.233 67.8215 188.486 68.452C185.732 69.4469 184.728 71.4366 183.542 73.8954C183.392 74.2069 183.46 74.0896 183.219 74.3746C183.826 70.9322 185.157 66.8204 188.13 64.6856H188.131Z" fill="#FEFEFE"/>
<path d="M172.578 10.6005C171.8 9.34206 171.705 7.8592 172.123 6.45705C172.662 4.64636 173.941 3.26438 175.628 2.45108C176.54 2.01101 177.637 1.71091 178.656 1.75C180.787 2.07028 182.567 2.7474 183.904 4.548C184.884 5.86694 185.392 7.55028 185.128 9.18822C184.897 10.6295 184.052 11.8601 182.85 12.6722C181.439 13.628 179.798 13.8852 178.126 13.8789C175.981 13.4363 173.78 12.5461 172.577 10.6005H172.578Z" fill="#FEFEFE"/>
<path d="M23.8009 282.535L23.5309 282.182C23.8211 280.653 24.7005 279.16 25.45 277.814C28.8884 271.647 33.6163 265.978 39.4961 261.996C41.9945 260.304 44.7729 258.629 47.7898 258.14C46.3476 260.212 45.0467 262.368 43.8846 264.609C34.9929 268.02 29.7577 274.88 25.6935 283.257L23.7996 282.534L23.8009 282.535Z" fill="#FEFEFE"/>
<path d="M88.848 278.664C90.9173 277.754 92.8971 277.758 95.09 277.924C96.9978 278.508 99.1113 279.317 100.118 281.172C100.707 282.259 100.739 283.522 100.335 284.679C99.6627 286.604 97.8811 288.11 96.0667 288.932C94.2005 289.778 92.3469 289.864 90.3369 289.672C88.2941 289.019 86.3712 288.124 85.3428 286.101C84.746 284.926 84.6753 283.603 85.1132 282.361C85.7251 280.626 87.2014 279.389 88.848 278.664Z" fill="#FEFEFE"/>
<path d="M58.5704 363.039C58.2588 362.916 57.9648 362.767 57.6834 362.585C56.2412 360.986 55.5169 359.307 55.609 357.119C55.6885 355.238 56.4178 353.213 57.8335 351.924C58.9994 350.864 60.2284 350.58 61.764 350.656C62.4201 350.985 62.9185 351.104 63.3059 351.74C63.4308 355.291 62.8794 358.853 62.887 362.417C61.4725 363.052 60.1186 363.653 58.5704 363.039Z" fill="#FEFEFE"/>
<path d="M50.9934 321.281C51.3947 321.243 51.7959 321.248 52.1959 321.297C53.7063 322.558 54.5365 323.925 54.7233 325.918C54.8747 327.54 54.5441 329.454 53.4362 330.711C52.6994 331.549 51.8161 332.066 50.6957 332.083C50.4749 332.087 50.254 332.078 50.0332 332.074C48.5797 330.971 47.8529 329.608 47.5728 327.806C47.3179 326.168 47.5362 324.21 48.533 322.837C49.0919 322.068 50.0244 321.374 50.9922 321.28L50.9934 321.281Z" fill="#FEFEFE"/>
<path d="M62.1842 263.029C64.2901 261.286 66.6155 260.774 69.2779 260.835C71.4936 261.212 73.9376 262.001 75.3092 263.911C76.0675 264.968 76.277 266.2 76.0385 267.469C75.6852 269.342 74.3465 270.854 72.7768 271.857C70.4993 273.312 68.1208 273.634 65.4888 273.681C63.6857 273.513 61.8019 272.926 60.5729 271.512C60.4644 271.386 60.3609 271.255 60.265 271.119C60.1691 270.983 60.0808 270.842 59.9988 270.697C59.9168 270.552 59.8423 270.403 59.7767 270.249C59.7098 270.096 59.6505 269.941 59.6001 269.782C59.5496 269.623 59.5054 269.463 59.4714 269.301C59.436 269.138 59.4095 268.973 59.3919 268.808C59.3742 268.642 59.3641 268.476 59.3616 268.31C59.3603 268.143 59.3666 267.977 59.3818 267.81C59.5408 265.91 60.7521 264.214 62.1854 263.028L62.1842 263.029Z" fill="#FEFEFE"/>
<path d="M52.4634 304.066C52.0369 304.187 51.5802 304.198 51.1411 304.215C49.526 303.26 48.6516 302.143 48.1696 300.309C47.5602 297.993 47.9135 295.145 49.1273 293.074C49.8427 291.852 51.0288 290.709 52.4596 290.419C52.794 290.351 53.141 290.334 53.4804 290.32C54.9845 290.996 55.8261 291.675 56.3951 293.265C57.2355 295.617 56.8393 298.876 55.7049 301.07C55.0475 302.342 53.893 303.658 52.4647 304.064L52.4634 304.066Z" fill="#FEFEFE"/>
<path d="M68.3909 242.508C68.8502 244.809 69.4533 246.681 71.481 248.107C74.1913 250.012 78.2782 250.219 81.4465 249.595C84.6375 248.967 88.0923 247.303 89.8777 244.48C90.7912 243.036 91.2354 241.318 90.8265 239.633C90.3862 237.816 89.1951 236.598 87.9093 235.335C97.1872 233.257 106.745 232.735 115.966 230.334C115.641 233.073 115.69 235.533 117.446 237.836C119.069 239.965 121.615 241.221 124.255 241.492C124.464 241.511 124.674 241.526 124.884 241.535C125.095 241.543 125.305 241.549 125.515 241.546C125.726 241.546 125.937 241.538 126.146 241.526C126.356 241.514 126.566 241.497 126.776 241.475C126.985 241.454 127.193 241.426 127.402 241.393C127.61 241.361 127.817 241.323 128.022 241.281C128.228 241.238 128.434 241.19 128.637 241.137C128.841 241.085 129.043 241.027 129.244 240.965C129.444 240.902 129.644 240.834 129.842 240.762C130.04 240.689 130.236 240.612 130.429 240.528C130.623 240.446 130.814 240.359 131.003 240.267C131.192 240.175 131.379 240.08 131.564 239.977C131.748 239.877 131.931 239.771 132.111 239.661C132.29 239.551 132.466 239.436 132.641 239.317C132.815 239.198 132.985 239.075 133.153 238.947C133.321 238.82 133.485 238.689 133.646 238.553C135.356 237.086 136.547 235.079 136.657 232.796C136.74 231.073 136.228 229.435 135.046 228.16C133.597 226.598 131.55 225.837 129.542 225.294C131.88 220.541 133.244 211.545 134.137 206.275C137.847 206.254 141.082 205.747 143.831 202.968C145.737 201.042 146.714 198.305 146.603 195.61C146.471 192.404 144.686 189.465 142.32 187.379C140.643 185.901 138.773 185.066 136.638 184.454C137.423 174.814 137.982 165.246 138.103 155.572C141.137 155.344 143.802 154.392 145.81 151.978C147.628 149.792 148.308 146.841 147.989 144.048C147.589 140.558 145.728 136.954 142.924 134.798C141.516 133.715 140.035 133.189 138.364 132.667C138.34 130.944 137.801 114.835 137.857 114.66C137.887 114.565 137.975 114.501 138.036 114.423C143.16 118.349 148.9 120.875 154.901 123.131C157.742 130.601 162.868 136.432 169.743 140.442C168.966 156.083 167.861 171.987 169.336 187.617C171.95 215.315 180.804 244.127 174.163 271.839C173.073 276.387 171.383 280.771 169.631 285.099C165.774 294.625 160.202 303.651 152.52 310.567C150.734 312.174 148.81 313.684 146.871 315.101C147.037 312.654 147.805 308.1 146.984 305.944L146.578 305.592C146.095 305.841 145.983 306.056 145.832 306.585C145.054 309.324 145.138 312.857 144.892 315.732C144.414 321.319 143.732 326.987 143.6 332.593C140.313 333.2 137.37 334.372 135.367 337.214C134.008 339.145 133.142 341.748 133.611 344.114C133.867 345.403 134.553 346.547 135.698 347.228C137.178 348.11 139.023 347.996 140.626 347.555C141.388 347.349 142.127 347.08 142.842 346.745C142.649 355.701 142.832 364.648 143.388 373.589C143.671 377.125 143.995 380.657 144.36 384.185C144.572 386.312 145.029 388.662 144.826 390.79C144.432 391.143 144.178 391.058 143.657 391.039C141.806 390.975 139.315 388.678 137.753 390.015C137.249 390.448 136.893 391.477 136.614 392.08C133.584 393.976 130.581 394.193 127.162 393.415C124.797 392.877 122.238 391.826 120.337 390.3C120.078 384.05 119.83 377.75 119.87 371.496C122.607 371.994 125.375 372.167 127.797 370.505C127.903 370.432 128.006 370.356 128.108 370.277C128.21 370.199 128.31 370.117 128.407 370.034C128.504 369.949 128.6 369.863 128.694 369.774C128.787 369.686 128.878 369.593 128.966 369.5C129.055 369.407 129.14 369.311 129.224 369.213C129.307 369.114 129.388 369.015 129.466 368.913C129.544 368.81 129.62 368.707 129.693 368.601C129.766 368.495 129.837 368.387 129.904 368.277C129.971 368.167 130.036 368.056 130.097 367.943C130.159 367.829 130.217 367.716 130.272 367.6C130.328 367.484 130.381 367.367 130.43 367.248C130.479 367.13 130.526 367.009 130.569 366.887C130.612 366.766 130.652 366.644 130.69 366.522C130.726 366.398 130.761 366.275 130.792 366.149C130.822 366.024 130.85 365.898 130.874 365.772C130.898 365.645 130.92 365.518 130.937 365.391C130.955 365.265 130.969 365.14 130.98 365.014C130.991 364.888 130.999 364.76 131.004 364.634C131.009 364.508 131.01 364.381 131.008 364.255C131.007 364.129 131.002 364.001 130.993 363.875C130.984 363.749 130.973 363.623 130.959 363.497C130.943 363.371 130.926 363.245 130.904 363.12C130.883 362.995 130.859 362.87 130.831 362.747C130.803 362.623 130.773 362.499 130.739 362.377C130.705 362.255 130.668 362.134 130.628 362.014C130.588 361.894 130.545 361.774 130.499 361.657C130.453 361.539 130.403 361.423 130.352 361.307C130.3 361.191 130.244 361.077 130.186 360.965C130.128 360.853 130.068 360.74 130.003 360.631C129.94 360.521 129.874 360.414 129.804 360.307C129.735 360.201 129.663 360.096 129.588 359.994C129.514 359.892 129.437 359.791 129.357 359.693C128.171 358.236 126.497 357.386 124.627 357.249C123.16 357.141 121.663 357.451 120.25 357.806C120.481 346.576 120.454 335.416 120.333 324.186C120.285 319.778 120.688 314.954 120.092 310.598C120.013 310.015 119.969 309.775 119.564 309.341L118.948 309.257C117.748 310.549 118.441 320.585 118.486 322.764C102.604 324.266 86.9062 323.441 71.5781 318.793C72.6128 314.071 75.9287 300.402 73.5503 296.599L73.0847 296.438C72.5598 296.744 72.4437 297.047 72.1775 297.569C73.5843 310.318 67.9921 323.949 65.4989 336.394C64.9714 339.025 64.5841 341.692 64.2144 344.347C63.9822 346.017 63.8851 347.825 63.3488 349.427C62.8731 349.555 63.0927 349.572 62.7785 349.477C61.1836 348.984 59.4285 349.501 58.0052 350.285C56.2778 351.238 55.3075 352.824 54.7864 354.696C54.1366 357.031 54.3372 359.632 55.604 361.733C56.2425 362.792 57.3566 364.037 58.6058 364.347C60.0177 364.696 61.7098 364.233 63.1065 363.917C63.3677 370.133 64.4201 375.763 66.4048 381.662C66.6471 382.382 67.3714 383.886 66.8679 384.455C66.3594 385.028 65.6894 385.215 64.9462 385.252C62.7482 385.36 60.5514 384.32 58.467 383.768C55.4488 386.037 54.7296 387.448 50.5203 386.873C48.5229 386.601 45.3861 385.752 44.1786 384.06C42.0109 381.025 45.0833 356.105 46.1205 351.446C46.5079 349.697 47 347.979 47.598 346.29C46.5344 342.734 45.366 339.261 44.5685 335.629C41.2046 320.316 38.3543 292.547 41.4381 277.131C42.3806 272.421 44.2417 267.562 46.5344 263.348C51.2509 254.679 59.7035 247.084 68.3921 242.509L68.3909 242.508ZM152.408 172.361C152.193 172.457 151.985 172.564 151.782 172.682C151.579 172.799 151.382 172.926 151.191 173.064C151.001 173.201 150.818 173.347 150.642 173.504C150.467 173.66 150.299 173.824 150.14 173.997C149.981 174.169 149.832 174.35 149.691 174.538C149.551 174.726 149.42 174.92 149.299 175.121C149.177 175.322 149.068 175.529 148.968 175.742C148.857 175.979 148.759 176.22 148.671 176.467C148.584 176.713 148.51 176.964 148.449 177.218C148.388 177.472 148.338 177.729 148.303 177.988C148.268 178.246 148.245 178.506 148.235 178.768C148.225 179.029 148.229 179.29 148.245 179.551C148.261 179.812 148.29 180.071 148.333 180.329C148.375 180.588 148.43 180.842 148.499 181.095C148.567 181.347 148.647 181.595 148.74 181.84C149.461 183.717 150.716 184.954 152.526 185.769C153.444 185.82 154.322 185.803 155.191 185.479C156.825 184.87 158.075 183.642 158.801 182.064C159.683 180.145 159.65 178.028 158.906 176.072C158.229 174.292 156.947 172.608 155.204 171.785C154.454 171.798 153.778 171.867 153.064 172.109C152.842 172.184 152.622 172.268 152.409 172.365L152.408 172.361ZM163.65 159.533C164.813 156.938 164.734 153.692 163.694 151.071C162.991 149.301 162.088 148.211 160.352 147.439C159.746 147.443 159.105 147.44 158.515 147.583C157.047 147.935 155.753 149.032 154.965 150.29C153.674 152.352 153.211 155.076 153.831 157.434C154.443 159.761 155.817 161.319 157.869 162.493C158.855 162.745 159.649 162.878 160.632 162.531C162.048 162.031 163.048 160.878 163.651 159.534L163.65 159.533ZM159.158 220.601C160.146 218.098 159.99 215.354 158.824 212.939C157.655 210.521 155.901 209.064 153.411 208.192C151.98 208.134 150.883 208.281 149.62 208.995C147.499 210.194 146.174 212.415 145.618 214.737C144.963 217.464 145.199 220.637 146.783 223.008C148.06 224.921 149.695 225.68 151.864 226.13C152.651 226.076 153.418 225.943 154.158 225.656C156.482 224.749 158.246 222.912 159.159 220.601H159.158ZM141.002 262.114C142.392 264.028 144.058 264.724 146.299 265.098C147.339 264.935 148.377 264.703 149.343 264.273C152.423 262.9 154.351 260.029 155.442 256.943C156.32 254.463 156.672 251.724 155.442 249.292C154.014 246.467 151.281 245.072 148.422 244.12C146.47 243.89 144.731 244.184 143.074 245.296C140.828 246.804 139.483 249.4 139.011 252.012C138.423 255.27 139.03 259.397 141.002 262.114ZM114.427 278.632C115.851 280.93 118.042 282.002 120.563 282.641C123.234 282.952 125.77 282.889 128.19 281.545C130.212 280.422 131.849 278.544 132.471 276.296C132.961 274.529 132.607 272.663 131.637 271.124C130.106 268.688 127.633 267.603 124.931 267.023C122.251 266.81 119.711 266.927 117.297 268.276C115.531 269.264 113.946 270.87 113.431 272.875C112.934 274.813 113.382 276.948 114.427 278.631V278.632ZM109.058 260.827C111.07 259.661 112.763 257.823 113.338 255.527C113.393 255.308 113.438 255.086 113.47 254.861C113.503 254.637 113.525 254.413 113.535 254.186C113.545 253.96 113.544 253.733 113.531 253.507C113.518 253.281 113.494 253.056 113.459 252.833C113.424 252.609 113.377 252.387 113.32 252.168C113.262 251.949 113.194 251.734 113.115 251.521C113.035 251.309 112.945 251.101 112.845 250.898C112.744 250.695 112.634 250.497 112.514 250.306C111.041 247.96 108.695 247.085 106.131 246.49C103.55 246.259 101.097 246.554 98.7959 247.842C96.7796 248.97 95.0661 250.768 94.4554 253.038C93.9759 254.825 94.2939 256.777 95.2339 258.359C96.5903 260.643 98.8994 261.708 101.367 262.336C104.085 262.599 106.661 262.213 109.058 260.823V260.827ZM84.6893 287.463C86.1807 289.682 88.655 290.445 91.1344 290.937C93.7438 291.036 95.9708 290.73 98.1852 289.202C99.8773 288.034 101.326 286.283 101.669 284.207C101.699 284.02 101.722 283.834 101.733 283.646C101.745 283.458 101.748 283.27 101.741 283.081C101.735 282.893 101.718 282.705 101.693 282.519C101.668 282.332 101.632 282.147 101.589 281.964C101.545 281.781 101.492 281.601 101.431 281.422C101.369 281.244 101.298 281.07 101.219 280.898C101.139 280.728 101.051 280.562 100.955 280.399C100.859 280.238 100.754 280.08 100.643 279.929C99.1379 277.853 96.6913 277.073 94.2775 276.67C91.8259 276.538 89.4487 276.781 87.2822 278.061C85.5649 279.076 84.2565 280.692 83.8224 282.656C83.4565 284.314 83.7391 286.048 84.6905 287.464L84.6893 287.463ZM59.3477 271.778C60.7596 273.693 62.9741 274.471 65.2263 274.841C67.8256 275.038 70.5056 274.561 72.7882 273.275C74.7755 272.155 76.5306 270.328 77.1274 268.08C77.5438 266.509 77.3419 264.828 76.4738 263.442C75.0796 261.218 72.5787 260.325 70.1574 259.739C67.2515 259.48 64.5601 259.87 62.1009 261.552C60.231 262.831 58.6512 264.76 58.2664 267.041C57.99 268.679 58.3572 270.433 59.3477 271.778ZM57.6544 298.886C58.2184 296.451 58.2538 293.442 56.8179 291.304C55.9132 289.957 54.7839 289.403 53.2293 289.089C52.6855 289.147 52.1657 289.233 51.6446 289.412C49.7481 290.06 48.3248 291.853 47.5488 293.633C46.4574 296.133 46.2707 299.208 47.3507 301.743C48.1419 303.6 49.3292 304.653 51.16 305.422C52.1581 305.393 53.0502 305.316 53.9158 304.775C55.9447 303.508 57.1282 301.156 57.6531 298.887L57.6544 298.886ZM46.9735 330.109C47.651 331.668 48.6844 332.747 50.273 333.348C50.8017 333.351 51.3745 333.339 51.8843 333.174C53.4085 332.682 54.587 331.299 55.2053 329.873C56.0999 327.813 56.0999 325.303 55.1876 323.248C54.4457 321.576 53.4237 320.69 51.7379 320.063C51.1828 320.063 50.6137 320.145 50.0863 320.326C48.6617 320.818 47.5425 322.025 46.9381 323.378C46.0107 325.453 46.0738 328.036 46.9735 330.109Z" fill="#FEFEFE"/>
<path d="M6.12334 302.589C7.33717 300.064 7.57313 297.091 8.16364 294.376C9.59324 287.799 13.7066 283.488 20.7902 283.714C20.8723 283.717 20.953 283.729 21.035 283.737C23.069 284.041 24.9213 284.416 26.197 286.208C27.8272 288.499 27.6253 292.187 27.0979 294.833C27.0449 295.086 26.9856 295.339 26.9212 295.589C26.8556 295.84 26.785 296.089 26.7067 296.336C26.6285 296.583 26.5452 296.828 26.4556 297.07C26.366 297.313 26.2701 297.553 26.1679 297.791C26.067 298.029 25.9585 298.265 25.8449 298.497C25.7314 298.73 25.6128 298.96 25.4878 299.187C25.3629 299.414 25.233 299.637 25.0967 299.858C24.9604 300.078 24.8191 300.295 24.6727 300.508C24.5264 300.721 24.3737 300.931 24.2172 301.136C24.0608 301.342 23.898 301.544 23.7302 301.742C23.5624 301.939 23.3908 302.132 23.2141 302.322C23.0375 302.511 22.8558 302.695 22.669 302.875C22.4836 303.055 22.293 303.231 22.0974 303.401C21.9031 303.572 21.7038 303.738 21.5006 303.898C21.2975 304.059 21.0905 304.214 20.8798 304.366C20.6691 304.516 20.4546 304.662 20.2363 304.801C16.7437 307.088 12.7805 308.073 8.63428 308.074C6.47286 308.037 4.57514 307.633 2.50961 307.016C3.84709 305.674 5.29057 304.32 6.12334 302.588V302.589Z" fill="#FEFEFE"/>
<path d="M125.852 358.602C127.479 359.299 128.704 360.208 129.423 361.882C130.083 363.416 130.04 365.227 129.399 366.76C128.775 368.254 127.515 369.566 126 370.165C125.226 370.47 124.438 370.595 123.619 370.701C122.342 370.718 121.268 370.732 120.223 369.925C119.268 368.367 119.999 361.799 120.139 359.697C122.103 358.402 123.591 358.413 125.853 358.602H125.852Z" fill="#FEFEFE"/>
<path d="M138.907 134.344C141.969 135.353 144.004 137.197 145.475 140.065C146.795 142.641 147.368 145.772 146.39 148.555C145.859 150.071 144.966 151.175 143.786 152.236C142.366 153.203 140.311 154.392 138.541 154.189L138.161 153.946C138.016 151.525 137.736 135.787 138.252 134.465C138.519 134.362 138.614 134.313 138.907 134.344Z" fill="#FEFEFE"/>
<path d="M137.503 346.713C136.832 346.568 136.321 346.176 135.784 345.771C134.808 344.422 134.378 343.081 134.651 341.398C135.015 339.141 136.523 337.057 138.365 335.751C140.004 334.59 141.56 334.164 143.537 334.021C143.684 337.561 143.357 341.486 142.938 345.008C141.353 346.089 139.495 347.141 137.502 346.713H137.503Z" fill="#FEFEFE"/>
<path d="M117.225 269.773C119.205 268.355 121.57 267.931 123.96 268.118C126.431 268.495 128.851 269.405 130.374 271.508C131.246 272.713 131.625 274.145 131.328 275.614C130.937 277.553 129.484 279.23 127.829 280.243C125.958 281.388 124.121 281.579 121.991 281.626C119.664 281.374 117.61 280.804 116.054 278.912C114.916 277.528 114.291 275.609 114.561 273.821C114.813 272.146 115.872 270.744 117.225 269.775V269.773Z" fill="#FEFEFE"/>
<path d="M142.98 246.906C144.361 245.696 145.844 245.275 147.644 245.407C150.129 246 152.564 246.928 153.999 249.201C155.154 251.032 155.161 253.188 154.662 255.234C153.929 258.246 152.039 261.391 149.296 262.942C148.574 263.349 147.763 263.586 146.974 263.829C145.108 263.804 143.768 263.455 142.447 262.064C140.446 259.957 139.916 256.742 140.055 253.934C140.182 251.351 140.975 248.663 142.98 246.906Z" fill="#FEFEFE"/>
<path d="M152.097 224.855C150.367 224.616 149.278 224.192 148.186 222.78C146.668 220.818 146.308 218.041 146.693 215.648C147.022 213.598 147.98 211.556 149.741 210.362C150.724 209.696 151.707 209.45 152.878 209.434C155.089 210.136 156.78 211.499 157.829 213.595C157.891 213.719 157.951 213.844 158.006 213.97C158.062 214.096 158.115 214.223 158.164 214.353C158.213 214.482 158.258 214.613 158.3 214.744C158.342 214.875 158.381 215.007 158.416 215.141C158.451 215.275 158.483 215.408 158.512 215.543C158.541 215.678 158.565 215.814 158.586 215.951C158.608 216.087 158.626 216.223 158.639 216.36C158.653 216.498 158.665 216.635 158.671 216.773C158.679 216.91 158.681 217.049 158.681 217.186C158.681 217.324 158.677 217.462 158.671 217.6C158.665 217.737 158.653 217.875 158.638 218.012C158.624 218.15 158.607 218.287 158.585 218.423C158.564 218.559 158.539 218.696 158.511 218.831C158.482 218.965 158.45 219.099 158.415 219.233C158.38 219.366 158.34 219.499 158.298 219.63C158.256 219.761 158.209 219.892 158.16 220.021C157.436 221.931 155.928 223.546 154.035 224.341C153.411 224.603 152.763 224.743 152.097 224.855Z" fill="#FEFEFE"/>
<path d="M96.3102 257.808C96.2055 257.636 96.1096 257.457 96.0238 257.274C95.938 257.091 95.861 256.904 95.7942 256.713C95.7273 256.521 95.6705 256.328 95.6238 256.131C95.5771 255.935 95.5405 255.735 95.5153 255.535C95.4901 255.334 95.4749 255.133 95.4699 254.93C95.4648 254.728 95.4711 254.525 95.4875 254.323C95.504 254.121 95.5304 253.921 95.5683 253.723C95.6049 253.524 95.6528 253.328 95.7109 253.134C96.3128 251.13 97.9632 249.525 99.7852 248.582C101.67 247.606 103.605 247.413 105.685 247.568C108.002 248.066 110.361 248.873 111.677 250.999C111.773 251.156 111.86 251.317 111.939 251.482C112.017 251.647 112.087 251.816 112.149 251.989C112.211 252.162 112.264 252.337 112.307 252.515C112.351 252.693 112.385 252.873 112.411 253.055C112.436 253.236 112.452 253.418 112.458 253.602C112.465 253.785 112.464 253.968 112.451 254.152C112.438 254.334 112.418 254.516 112.388 254.698C112.358 254.878 112.317 255.057 112.269 255.234C111.728 257.255 110.146 258.871 108.356 259.874C106.276 261.04 104.145 261.3 101.799 261.205C99.6148 260.666 97.5354 259.827 96.3102 257.81V257.808Z" fill="#FEFEFE"/>
<path d="M0.374808 305.56C1.64037 304.207 3.31349 304.325 4.45036 302.478C6.22315 299.6 6.42125 296.101 7.15939 292.881C8.89181 285.324 14.1446 281.898 21.632 281.978C23.1474 279.365 24.3372 276.611 25.9927 274.07C30.7143 266.83 38.7379 258.62 47.3167 256.325C48.2126 256.086 49.145 255.927 50.0649 255.816C62.3546 240.897 76.9849 235.389 95.5015 232.195C100.459 231.34 105.482 230.818 110.419 229.852C113.973 229.156 117.576 228.256 121.037 227.202C123.73 226.382 126.434 225.333 129.192 224.779C134.98 201.351 136.619 176.862 137.246 152.811C137.594 139.496 137.71 125.945 136.546 112.669C127.553 104.651 124.048 93.185 123.354 81.4533C123.174 78.6956 123.141 75.9354 123.254 73.1728C123.368 70.4113 123.628 67.6637 124.035 64.9288C115.763 63.0979 110.715 59.8826 106.064 52.6373C102.581 47.2127 98.8124 37.6751 100.155 31.1296C100.449 29.6934 101.089 28.6481 102.325 27.8411C106.446 25.154 115.484 24.9951 120.184 26.1199C128.261 28.0542 133.183 34.0474 138.471 39.9132C142.774 35.7383 147.465 32.8116 152.922 30.3743C151.398 26.2422 150.202 21.9941 148.857 17.8015C146.669 17.5746 144.882 17.166 143.45 15.3175C142.273 13.7981 141.9 11.8575 142.177 9.97747C142.199 9.83624 142.223 9.69502 142.252 9.55506C142.279 9.41509 142.311 9.27513 142.346 9.13643C142.382 8.99773 142.419 8.86029 142.462 8.72284C142.504 8.58666 142.551 8.45048 142.6 8.31556C142.649 8.18064 142.701 8.04825 142.758 7.91585C142.813 7.78345 142.872 7.65358 142.934 7.52496C142.997 7.39635 143.063 7.26899 143.131 7.1429C143.2 7.01681 143.272 6.89323 143.347 6.77219C143.421 6.64988 143.5 6.53009 143.582 6.41282C143.662 6.29429 143.747 6.17955 143.834 6.0648C143.921 5.95132 144.011 5.8391 144.103 5.73066C144.195 5.62096 144.291 5.51504 144.388 5.41038C144.486 5.30572 144.587 5.20485 144.689 5.10524C144.793 5.00562 144.898 4.90979 145.006 4.81522C145.115 4.72065 145.224 4.62987 145.337 4.5416C145.449 4.45334 145.564 4.36759 145.681 4.28563C147.43 3.03731 149.524 2.47494 151.654 2.86456C153.944 3.28319 155.98 4.49621 157.244 6.47335C158.063 7.75445 158.401 9.0923 158.72 10.5525C158.093 12.6305 157.277 13.8649 155.725 15.4045C157.191 19.4294 158.31 23.6094 159.845 27.599C164.179 26.8727 168.312 26.7012 172.705 26.768C173.43 22.617 174.209 18.4749 175.04 14.3441C173.13 12.9961 171.333 11.5423 170.862 9.11373C170.476 7.12146 171.132 4.99049 172.324 3.38281C173.662 1.57589 175.828 0.330095 178.063 0.062778C178.651 -0.00783407 179.231 -0.0229652 179.82 0.0287329C182.507 0.559584 184.859 1.78143 186.426 4.11415C187.556 5.79497 188.044 7.81245 187.566 9.80346C187.079 11.8336 185.683 13.3744 183.909 14.4033C183.258 14.7804 182.582 15.0842 181.887 15.3692C180.907 19.6917 180.866 24.1718 179.959 28.4904C184.15 29.7514 187.992 31.4335 191.892 33.4081C196.982 25.2927 204.5 20.1507 213.864 18.0172C217.242 17.248 223.72 16.7424 226.724 18.5682C227.8 19.2226 228.295 20.3133 228.562 21.5036C230.108 28.348 227.367 37.8112 223.559 43.5434C220.921 47.5154 217.354 51.2237 213.457 53.9789C212.164 54.8943 210.706 55.5891 209.444 56.526C213.324 67.8428 212.962 81.3083 207.756 92.1737C207.287 93.1509 206.757 94.1004 206.243 95.0537C211.185 100.675 213.749 106.671 213.23 114.234C212.896 119.125 211.03 124.104 207.224 127.347C205.825 128.539 204.085 129.09 202.474 129.925C199.592 135.483 195.839 141.115 189.585 143.122C184.268 144.826 177.223 143.538 172.176 141.474C171.64 147.463 171.318 153.465 171.209 159.477C170.91 170.345 170.895 181.18 172.17 191.996C174.313 210.194 178.298 228.271 178.906 246.619C179.075 251.7 178.789 256.827 178.278 261.882C177.974 264.887 177.472 267.86 177.347 270.882C176.351 294.94 175.193 318.997 175.53 343.084C175.636 350.962 176.106 358.819 176.94 366.653C177.252 369.508 177.608 372.356 178.008 375.201C178.427 378.03 179.213 380.803 178.892 383.679C181.423 387.106 184.549 390.366 183.895 395.023C183.664 396.671 182.835 398.129 181.446 399.069C179.709 400.245 177.25 400.514 175.241 399.991C174.758 399.865 174.301 399.651 173.849 399.441C172.764 401.358 171.738 402.83 169.478 403.452C166.097 404.382 161.216 402.414 158.318 400.699C155.785 399.201 154.206 397.537 153.479 394.627C152.75 391.705 152.65 388.546 152.411 385.549C152.022 380.806 151.697 376.057 151.439 371.303C150.359 352.815 149.683 334.313 149.413 315.796C148.669 316.303 147.932 316.845 147.138 317.272C145.936 330.518 145.096 344.026 145.181 357.328C145.219 363.102 145.609 368.942 146.056 374.7C146.41 379.28 148.096 389.382 147.064 393.451C148.933 397.016 150.598 401.602 149.253 405.628C148.731 407.192 147.692 408.58 146.158 409.258C143.628 410.376 140.716 409.343 138.273 408.486C137.404 409.963 136.376 411.278 134.653 411.774C131.669 412.631 127.231 410.86 124.655 409.351C122.727 408.221 120.752 406.471 120.182 404.235C118.804 398.819 119.082 392.748 118.957 387.181C118.814 380.765 118.544 374.382 118.625 367.959C118.709 361.266 119.122 354.577 119.267 347.885C119.436 340.089 119.073 332.305 119.07 324.511C108.35 325.321 97.9279 325.557 87.2722 324.012C83.5348 334.35 80.9368 346.172 80.9267 357.207C80.88 362.493 80.7097 367.891 81.9513 373.072C83.1727 378.172 88.8696 381.151 87.3895 387.112C87.117 388.21 86.6703 389.319 85.8527 390.129C84.8004 391.172 83.2357 391.536 81.791 391.471C80.721 391.423 79.646 391.309 78.5798 391.208C77.1956 392.599 76.2102 393.378 74.2733 393.932C74.3844 396.15 74.4109 398.327 72.7504 400.052C71.5731 401.274 69.8521 401.636 68.2155 401.621C66.7632 401.607 65.3904 401.352 63.9949 400.963C62.8845 402.808 61.6089 403.994 59.4841 404.56C55.8236 405.536 50.1696 404.369 46.9899 402.373C44.4298 400.765 43.9314 397.759 43.3674 394.987C40.8791 382.771 42.5068 358.114 46.1496 346.121C40.6079 330.126 37.3272 297.53 39.7271 280.512C40.3946 275.775 41.7611 271.426 43.5024 266.989C38.0906 269.689 34.3595 273.285 31.1559 278.431C30.0266 280.243 29.0601 282.182 27.816 283.917C29.8903 286.609 30.3294 290.178 29.9118 293.476C29.2922 298.376 27.0715 302.509 23.1474 305.536C18.692 308.973 12.4841 310.742 6.89063 309.962C4.83015 309.674 1.3691 308.501 0.0379229 306.788C-0.0175953 306.19 -0.0705986 306.034 0.376071 305.557L0.374808 305.56ZM83.666 236.593C80.3766 237.454 72.2848 239.593 70.7303 242.494C70.3984 243.113 70.3252 243.812 70.536 244.485C71.0205 246.032 73.028 247.195 74.3907 247.89C74.7478 248.015 75.1086 248.124 75.4733 248.22C75.8392 248.316 76.2076 248.397 76.5786 248.462C76.9508 248.528 77.3243 248.579 77.7003 248.615C78.0763 248.651 78.4536 248.671 78.8309 248.678C79.2082 248.684 79.5854 248.674 79.9627 248.65C80.34 248.626 80.7147 248.586 81.0882 248.532C81.4617 248.477 81.8326 248.408 82.2011 248.323C82.5695 248.239 82.9342 248.141 83.2938 248.027C85.9889 247.182 88.6929 245.58 89.9951 242.981C90.5641 241.846 90.8178 240.562 90.3736 239.338C89.7982 237.752 88.5529 236.734 87.1044 235.998C85.9158 236.065 84.813 236.289 83.6648 236.591L83.666 236.593ZM119.591 229.682C118.545 230.189 118.01 230.73 117.661 231.848C117.213 233.279 117.697 234.85 118.433 236.099C119.734 238.304 121.789 239.602 124.228 240.206C127.239 240.549 130.025 240.187 132.599 238.443C134.316 237.279 135.788 235.519 136.155 233.431C136.394 232.073 136.127 230.694 135.324 229.565C133.986 227.68 131.812 226.941 129.629 226.608C127.027 226.502 121.995 228.518 119.59 229.683L119.591 229.682ZM135.198 204.888C137.56 204.873 139.433 204.563 141.55 203.494C143.135 202.54 144.479 201.295 145.28 199.6C145.339 199.474 145.393 199.345 145.446 199.217C145.498 199.088 145.547 198.957 145.593 198.826C145.638 198.695 145.68 198.562 145.719 198.427C145.758 198.294 145.793 198.159 145.825 198.022C145.856 197.888 145.886 197.75 145.911 197.614C145.936 197.476 145.957 197.339 145.975 197.202C145.993 197.063 146.008 196.924 146.019 196.785C146.031 196.647 146.038 196.508 146.042 196.368C146.046 196.229 146.047 196.089 146.043 195.951C146.041 195.811 146.033 195.672 146.023 195.533C146.013 195.395 145.999 195.256 145.983 195.117C145.965 194.979 145.945 194.841 145.921 194.705C145.897 194.568 145.869 194.431 145.839 194.295C145.807 194.159 145.773 194.024 145.735 193.89C145.698 193.757 145.656 193.623 145.612 193.491C145.566 193.358 145.518 193.228 145.468 193.099C144.099 189.555 141.227 187.118 137.813 185.653L137.358 185.728C136.955 186.456 135.149 203.347 135.198 204.888ZM137.154 41.0518C136.623 40.3104 136.001 39.598 135.399 38.9145C130.634 33.5102 124.748 28.0416 117.203 27.5422C113.68 27.1702 105.806 27.4073 102.959 29.7047C102.029 30.455 101.815 31.6831 101.747 32.8129C101.283 40.521 105.615 50.4016 110.751 56.0228C114.566 60.1953 118.872 62.0324 124.314 63.1963L125.672 57.7478C119.953 56.618 115.228 54.9006 111.852 49.8506C109.199 45.885 108.29 40.6874 107.833 36.0144C114.236 34.6614 121.051 36.2855 126.489 39.8376C129.086 41.5335 131.072 43.5812 133.071 45.9354C133.905 45.0528 137.115 42.0757 137.342 41.159L137.155 41.0543L137.154 41.0518ZM125.961 56.6747L126.309 56.1502C127.914 52.6675 129.937 49.8657 132.361 46.924C127.016 40.8148 121.767 37.4519 113.547 36.8706C112.066 36.7773 110.594 36.9374 109.119 37.0585C109.201 38.158 109.38 39.2411 109.565 40.3281C110.425 45.3894 112.23 50.5038 116.614 53.5628C118.665 54.9939 123.58 57.0833 125.962 56.6747H125.961ZM156.348 11.773C156.8 10.7139 156.746 9.53362 156.29 8.48453C155.428 6.50109 153.435 5.21242 151.475 4.50503C149.455 4.39533 147.73 4.87323 146.207 6.26529C144.862 7.4947 143.944 9.23983 143.899 11.0795C143.869 12.3468 144.246 13.6594 145.156 14.5761C146.256 15.6844 147.355 15.9013 148.863 15.89C149.977 15.7235 151.137 15.513 152.198 15.1296C153.854 14.5307 155.628 13.4602 156.347 11.773H156.348ZM154.252 15.9644C152.954 16.5217 151.587 16.9063 150.24 17.3249C151.705 21.4986 152.61 27.3039 155.151 30.8711C155.78 31.1132 156.416 31.2128 157.086 31.0955C157.785 30.9732 158.098 30.6744 158.493 30.1133C158.728 28.4438 155.04 18.3803 154.252 15.9631V15.9644ZM183.508 12.6721C184.709 11.8588 185.553 10.6281 185.785 9.18813C186.049 7.55018 185.543 5.86684 184.562 4.54791C183.224 2.7473 181.445 2.07018 179.314 1.75116C178.294 1.71207 177.198 2.01218 176.286 2.45224C174.599 3.26554 173.318 4.64752 172.78 6.45821C172.363 7.86037 172.457 9.34322 173.236 10.6016C174.44 12.5472 176.64 13.4375 178.785 13.88C180.456 13.8864 182.097 13.6291 183.509 12.6733L183.508 12.6721ZM180.405 15.4638C179.116 15.4171 177.916 15.2759 176.649 15.0325L176.428 15.1599C175.421 17.9012 174.823 23.9095 174.334 27.0971L178.057 27.9558L178.557 27.9028C179.343 25.8828 179.824 18.3992 180.405 15.4638ZM210.152 54.0848C210.526 53.8767 210.897 53.6611 211.265 53.4379C211.632 53.216 211.994 52.9853 212.352 52.7495C212.711 52.5124 213.064 52.2691 213.412 52.0194C213.76 51.7697 214.105 51.5125 214.443 51.249C214.782 50.9854 215.115 50.7156 215.444 50.4394C215.772 50.1633 216.095 49.8809 216.413 49.5921C216.731 49.3033 217.042 49.0083 217.349 48.7082C217.655 48.4081 217.956 48.1017 218.25 47.789C218.544 47.4775 218.833 47.1598 219.115 46.8357C219.398 46.5129 219.673 46.1838 219.943 45.8497C220.213 45.5155 220.476 45.1776 220.733 44.8334C220.989 44.4891 221.239 44.1411 221.482 43.788C221.726 43.435 221.962 43.0769 222.192 42.7137C222.421 42.3506 222.643 41.9849 222.859 41.6129C223.075 41.2422 223.283 40.8677 223.484 40.4882C226.569 34.7119 228.249 26.4213 226.33 20.0309C225.231 19.6589 224.208 19.4672 223.065 19.3109C218.992 18.9528 215.237 19.4269 211.311 20.5794C203.717 22.81 197.119 27.4981 193.279 34.4635C194.84 35.5617 196.312 36.6512 197.75 37.9121C198.649 36.3347 199.738 35.0296 201.124 33.862C206.496 29.3403 214.025 27.2547 220.946 27.8902C220.974 29.8964 220.746 31.8496 220.469 33.833C220.076 35.8568 219.489 37.8289 218.589 39.6888C216.196 44.6329 211.909 48.1345 206.773 49.954C207.591 51.4923 208.287 53.1025 209.014 54.6863C209.396 54.4921 209.776 54.2916 210.15 54.0823L210.152 54.0848ZM198.714 38.6069C200.309 40.4958 201.948 42.3544 203.33 44.4072C204.301 45.9631 205.271 47.509 206.332 49.0045C206.949 48.8002 207.554 48.567 208.148 48.3022C208.741 48.0374 209.32 47.7436 209.883 47.4208C210.447 47.098 210.993 46.7474 211.522 46.3704C212.051 45.9934 212.559 45.5899 213.046 45.1612C217.936 40.9396 219.553 35.3058 220.002 29.0604C218.105 28.9633 216.217 29.0604 214.341 29.3504C208.272 30.3352 202.319 33.5833 198.714 38.6056V38.6069ZM176.168 140.906C181.181 142.366 186.587 142.974 191.312 140.378C194.376 138.694 199.01 134.25 199.963 130.931L199.774 130.7C197.335 131.104 193.972 135.919 188.627 136.778C188.351 136.821 188.073 136.857 187.794 136.886C187.515 136.915 187.237 136.938 186.956 136.953C186.678 136.968 186.397 136.977 186.117 136.98C185.837 136.981 185.557 136.976 185.278 136.964C184.998 136.952 184.719 136.933 184.44 136.908C184.162 136.882 183.884 136.85 183.606 136.809C183.329 136.77 183.052 136.724 182.777 136.671C182.502 136.618 182.229 136.558 181.957 136.492C181.685 136.425 181.415 136.352 181.146 136.272C180.877 136.193 180.611 136.106 180.347 136.012C180.082 135.919 179.821 135.82 179.562 135.714C179.304 135.608 179.046 135.495 178.793 135.377C178.539 135.258 178.288 135.134 178.041 135.002C177.793 134.871 177.549 134.735 177.308 134.591C177.067 134.449 176.829 134.3 176.596 134.145C176.362 133.99 176.133 133.83 175.907 133.665C171.279 130.295 165.326 122.418 162.917 117.233C162.403 116.131 161.973 114.998 161.624 113.834C161.274 112.67 161.01 111.486 160.831 110.283C162.44 113.101 164.016 115.923 166.142 118.395C171.97 125.172 182.035 128.9 190.761 129.549C195.983 129.937 202.594 129.125 206.645 125.48C209.912 122.539 211.254 118.101 211.503 113.838C211.938 106.358 209.075 100.746 204.231 95.2806C209.883 88.0643 210.883 74.5497 209.802 65.7724C208.481 55.0444 203.387 44.1638 194.697 37.4758C184.493 29.6228 172.701 27.9306 160.251 29.0074C160.145 30.2242 160.036 31.1182 159.06 31.9416C158.175 32.6856 156.985 32.7814 155.881 32.6036C155.258 32.5027 154.655 32.2631 154.067 32.0425C151.087 33.0184 148.418 34.3676 145.827 36.1405C140.05 40.096 132.272 48.1647 129.062 54.4366C123.339 65.6236 124.043 84.5728 127.875 96.1116C131.456 106.895 138.758 113.454 148.784 118.405C150.829 119.429 152.938 120.304 155.108 121.029C153.926 115.995 153.667 111.383 153.981 106.231C152.107 106.613 149.758 107.267 147.846 106.969L147.642 106.698C148.942 104.967 152.631 104.351 154.688 104.059C155.5 103.951 156.314 103.869 157.132 103.813C157.803 103.946 158.86 104.077 159.292 104.642L159.115 104.977C158.041 105.516 156.835 105.72 155.672 105.992C154.503 112.548 155.806 120.712 159.012 126.553C162.692 133.261 168.748 138.746 176.166 140.907L176.168 140.906ZM196.058 131.138C185.821 131.319 177.451 129.085 169.015 123.238C169.006 123.59 168.975 123.411 169.192 123.823C171.517 128.229 176.967 133.206 181.758 134.672C185.926 135.948 189.614 135.436 193.417 133.381C194.405 132.713 195.208 131.97 196.058 131.139V131.138ZM156.966 397.575C159.872 400.627 164.593 401.601 168.63 401.627C169.037 401.54 169.473 401.419 169.853 401.257C173.198 399.818 171.106 395.195 171.919 392.696L172.233 392.745C173.607 394.238 173.773 395.56 173.809 397.509C175.303 398.137 177.01 398.678 178.646 398.346C180.307 398.008 181.102 397.019 181.974 395.653C182.082 390.761 180.224 388.171 177.097 384.691C174.869 384.452 173.05 384.145 170.985 383.254C170.682 383.437 170.364 383.89 170.103 384.148C168.895 385.344 167.846 386.165 166.18 386.659C162.123 387.862 157.753 386.067 154.221 384.175C154.437 388.227 153.972 394.43 156.966 397.576V397.575ZM152.891 363.886C153.216 369.63 153.185 375.643 154.011 381.331C155.383 382.755 157.096 383.776 158.949 384.445C161.863 385.495 164.662 385.532 167.497 384.216C168.339 383.503 168.799 382.317 169.638 381.672C170.792 380.787 173.732 382.431 175.149 382.606C175.86 382.694 176.222 382.561 176.784 382.14C177.011 381.671 177.106 381.287 177.075 380.77C176.943 378.439 176.24 375.994 175.891 373.669C175.29 369.47 174.846 365.255 174.557 361.023C173.953 360.97 173.338 360.921 172.745 360.785C171.002 360.387 169.404 359.289 168.475 357.756C167.409 355.997 167.192 353.794 167.714 351.824C168.595 348.501 170.864 346.31 173.741 344.656C173.823 341.003 173.667 337.311 173.619 333.654C172.875 333.591 172.088 333.535 171.37 333.316C171.175 333.256 170.984 333.185 170.797 333.105C170.61 333.024 170.427 332.934 170.249 332.835C170.071 332.735 169.9 332.627 169.733 332.509C169.567 332.392 169.406 332.266 169.254 332.132C169.101 331.998 168.955 331.856 168.816 331.706C168.677 331.556 168.547 331.401 168.425 331.237C168.302 331.075 168.19 330.906 168.085 330.73C167.981 330.555 167.886 330.376 167.8 330.191C166.754 327.891 167.264 325.073 168.169 322.803C169.305 319.951 171.168 317.847 174.018 316.644C174.19 308.769 174.422 300.895 174.713 293.023C174.889 287.596 174.911 282.12 175.396 276.713C174.027 279.356 173.274 282.585 172.119 285.371C167.25 297.105 161.339 306.582 151.132 314.481C151.743 330.957 151.957 347.414 152.89 363.885L152.891 363.886ZM173.817 346.073C173.32 346.362 172.824 346.658 172.373 347.016C170.496 348.506 169.006 350.896 168.846 353.322C168.71 355.375 169.447 356.734 170.772 358.227C171.891 359.134 173.105 359.461 174.464 359.839C174.235 355.25 174.094 350.661 173.817 346.075V346.073ZM173.905 317.961C173.452 318.222 172.976 318.484 172.554 318.796C170.425 320.37 168.938 323.157 168.568 325.753C168.287 327.727 168.651 329.268 169.847 330.85C170.045 331.019 170.234 331.183 170.459 331.317C171.288 331.81 172.48 332.256 173.434 331.98C174.234 330.595 173.95 320.278 173.906 317.961H173.905ZM121.521 402.128C122.038 404.647 123.25 406.459 125.446 407.827C128.116 409.492 131.476 410.577 134.593 409.797C134.687 409.721 134.783 409.648 134.877 409.571C138.768 406.384 135.982 404.264 136.444 401.714C136.504 401.379 136.677 401.345 136.929 401.158C137.514 401.119 137.568 401.115 138.071 401.409C139.052 402.859 138.984 404.984 138.711 406.652C140.901 407.551 142.705 408.032 145.094 407.966C146.448 407.015 147.379 405.817 147.841 404.213C148.848 400.714 147.385 396.619 145.622 393.602C143.585 392.803 141.5 392.257 139.524 391.289C138.499 391.732 138.334 394.145 134.89 395.194C130.508 396.528 124.884 394.749 120.979 392.724C121.037 395.79 120.904 399.119 121.522 402.129L121.521 402.128ZM85.3492 323.733C81.0276 323.015 76.8966 322.082 72.6722 320.92L72.1523 320.9C71.9719 321.025 71.9378 321.03 71.7889 321.238C71.0016 322.339 70.4401 326.277 70.0464 327.82C66.4945 341.71 63.2441 362.081 67.1241 376.004C68.984 376.565 71.3246 377.178 73.2664 376.878C75.3332 376.559 76.0752 375.455 77.1843 373.863C78.2063 374.182 79.3608 374.912 80.4232 374.921L80.4472 374.543C78.9924 368.954 78.9848 363.518 79.1312 357.797C79.0605 357.787 78.9911 357.775 78.9205 357.766C78.0246 357.657 77.2751 357.584 76.4777 357.12C76.3389 357.04 76.2051 356.951 76.0752 356.857C75.9452 356.762 75.8216 356.661 75.7017 356.553C75.5818 356.446 75.4695 356.332 75.361 356.212C75.2537 356.093 75.1528 355.969 75.0569 355.839C74.9623 355.709 74.8739 355.576 74.7932 355.436C74.7124 355.297 74.638 355.154 74.5724 355.008C74.5068 354.862 74.4475 354.712 74.397 354.559C74.3465 354.407 74.3036 354.253 74.2683 354.095C73.7497 351.834 74.6266 348.832 75.8619 346.911C76.9887 345.157 78.2593 344.307 80.2807 343.906C81.2977 337.111 83.1676 330.246 85.3467 323.732L85.3492 323.733ZM79.9804 345.119C79.4302 345.278 78.8675 345.527 78.3867 345.839C76.7426 346.903 75.7004 349.098 75.3761 350.971C75.0645 352.769 75.2752 354.081 76.3099 355.573C77.1212 356.207 78.0372 356.567 78.9722 356.978C79.3331 353.027 79.6687 349.074 79.9791 345.119H79.9804ZM74.2633 392.324C75.5326 391.647 76.224 391.068 76.9798 389.835C77.0745 389.118 77.0694 388.707 76.778 388.045C76.5597 387.547 76.4184 387.113 76.2922 386.584C76.4095 386.429 76.4373 386.375 76.6165 386.248C77.0657 385.926 77.4568 385.859 77.9842 385.917C78.682 386.484 78.8258 387.529 79.2056 388.319C79.5337 389.003 80.0535 389.459 80.7765 389.695C81.6913 389.991 82.6932 389.859 83.5335 389.403C84.5505 388.849 85.2483 387.905 85.5398 386.79C86.1467 384.47 84.9783 381.576 83.748 379.606C82.22 377.16 80.803 376.969 78.147 376.368L77.9413 376.433C77.5603 376.866 77.1224 377.431 76.6404 377.755C74.291 379.335 70.1675 378.482 67.5115 378.107C68.2004 380.218 68.8035 382.483 69.7776 384.477C71.0848 387.152 72.8488 389.684 74.2633 392.327V392.324ZM46.6644 399.382C48.1016 401.331 50.7185 402.142 53.0137 402.538C56.1605 403.08 58.7308 403.364 61.4537 401.413C61.6202 401.238 61.7653 401.056 61.8966 400.852C63.4044 398.498 61.865 396.117 61.3086 393.779L61.648 393.465C62.1944 393.416 62.5287 393.323 62.9994 393.689C64.4012 394.777 64.4441 397.667 64.4252 399.291C66.4516 399.614 69.0332 400.141 70.8829 398.989C71.7346 398.46 72.2621 397.626 72.4753 396.654C73.2828 392.974 70.6457 389.316 68.7493 386.397C68.6811 386.433 68.6143 386.472 68.5449 386.508C65.5519 388.018 62.6145 386.955 59.662 385.95C59.1358 386.038 57.2482 388.234 54.5934 388.707C50.9103 389.364 47.4 388.172 44.4323 386.041C44.5585 389.635 44.5749 396.548 46.6619 399.38L46.6644 399.382ZM42.093 277.129C39.0092 292.546 41.8595 320.315 45.2234 335.628C46.0209 339.259 47.1893 342.733 48.253 346.289C47.6561 347.977 47.1641 349.696 46.7754 351.445C45.7395 356.104 42.6658 381.024 44.8336 384.059C46.0411 385.75 49.1779 386.6 51.1752 386.872C55.3833 387.446 56.1025 386.036 59.1219 383.766C61.2076 384.319 63.4031 385.359 65.6011 385.25C66.3443 385.214 67.0143 385.028 67.5228 384.453C68.0263 383.885 67.302 382.382 67.0598 381.661C65.0737 375.763 64.0214 370.133 63.7615 363.917C62.366 364.233 60.6726 364.697 59.2607 364.347C58.0103 364.036 56.8974 362.793 56.2589 361.733C54.9921 359.632 54.7915 357.031 55.4413 354.696C55.9624 352.824 56.9315 351.238 58.6588 350.285C60.0821 349.5 61.836 348.984 63.4321 349.477C63.7463 349.574 63.5268 349.555 64.0025 349.427C64.54 347.825 64.6359 346.017 64.868 344.347C65.2377 341.692 65.6264 339.025 66.1525 336.394C68.6458 323.949 74.238 310.318 72.8311 297.569C73.0974 297.047 73.2134 296.744 73.7383 296.438L74.2039 296.599C76.5811 300.402 73.2665 314.071 72.2318 318.793C87.5599 323.442 103.258 324.267 119.14 322.764C119.094 320.585 118.401 310.549 119.601 309.257L120.217 309.341C120.623 309.775 120.666 310.014 120.746 310.598C121.341 314.955 120.939 319.778 120.987 324.186C121.108 335.417 121.134 346.576 120.904 357.806C122.318 357.451 123.815 357.14 125.281 357.249C127.151 357.386 128.825 358.236 130.011 359.693C130.091 359.791 130.168 359.892 130.242 359.994C130.316 360.096 130.388 360.201 130.458 360.307C130.527 360.413 130.593 360.521 130.657 360.631C130.721 360.74 130.782 360.851 130.84 360.965C130.898 361.077 130.952 361.192 131.005 361.307C131.057 361.423 131.106 361.539 131.153 361.657C131.198 361.776 131.243 361.894 131.282 362.014C131.322 362.134 131.359 362.256 131.393 362.377C131.427 362.499 131.457 362.622 131.485 362.747C131.513 362.87 131.537 362.994 131.558 363.12C131.579 363.245 131.597 363.371 131.612 363.497C131.627 363.623 131.639 363.749 131.646 363.875C131.655 364.001 131.66 364.129 131.662 364.255C131.664 364.381 131.662 364.508 131.658 364.634C131.653 364.76 131.645 364.888 131.634 365.014C131.622 365.14 131.609 365.266 131.591 365.391C131.573 365.518 131.552 365.645 131.528 365.772C131.504 365.898 131.476 366.024 131.446 366.149C131.415 366.273 131.381 366.398 131.344 366.522C131.307 366.645 131.267 366.768 131.222 366.887C131.18 367.008 131.133 367.128 131.084 367.248C131.034 367.367 130.981 367.484 130.926 367.6C130.87 367.716 130.811 367.831 130.751 367.943C130.689 368.056 130.624 368.167 130.557 368.277C130.491 368.387 130.42 368.495 130.347 368.601C130.274 368.707 130.198 368.81 130.12 368.913C130.041 369.015 129.961 369.114 129.877 369.213C129.794 369.311 129.708 369.406 129.62 369.5C129.532 369.593 129.441 369.684 129.347 369.774C129.254 369.863 129.159 369.949 129.061 370.033C128.963 370.118 128.863 370.199 128.762 370.277C128.66 370.355 128.556 370.432 128.45 370.505C126.028 372.167 123.261 371.994 120.524 371.496C120.482 377.75 120.732 384.05 120.991 390.3C122.892 391.826 125.451 392.878 127.816 393.415C131.235 394.193 134.238 393.976 137.268 392.08C137.546 391.477 137.902 390.448 138.407 390.015C139.969 388.678 142.46 390.975 144.311 391.039C144.831 391.057 145.086 391.143 145.479 390.79C145.684 388.661 145.226 386.311 145.014 384.185C144.649 380.657 144.325 377.125 144.042 373.589C143.484 364.649 143.303 355.702 143.496 346.745C142.782 347.079 142.042 347.349 141.28 347.555C139.676 347.997 137.832 348.11 136.352 347.228C135.207 346.546 134.521 345.402 134.265 344.114C133.795 341.748 134.661 339.144 136.021 337.214C138.022 334.372 140.966 333.199 144.254 332.593C144.385 326.987 145.068 321.317 145.546 315.732C145.792 312.857 145.708 309.323 146.486 306.585C146.636 306.056 146.749 305.841 147.232 305.592L147.638 305.944C148.458 308.1 147.69 312.654 147.525 315.101C149.465 313.684 151.389 312.174 153.174 310.567C160.855 303.649 166.427 294.624 170.285 285.099C172.036 280.771 173.727 276.385 174.817 271.839C181.458 244.127 172.604 215.315 169.989 187.617C168.514 171.987 169.62 156.083 170.397 140.442C163.523 136.431 158.396 130.599 155.555 123.131C149.554 120.876 143.812 118.351 138.69 114.423C138.63 114.502 138.541 114.567 138.51 114.66C138.455 114.834 138.994 130.944 139.018 132.667C140.688 133.188 142.17 133.715 143.578 134.798C146.381 136.954 148.243 140.557 148.643 144.048C148.962 146.841 148.282 149.792 146.463 151.978C144.456 154.393 141.791 155.344 138.756 155.572C138.635 165.246 138.076 174.813 137.292 184.454C139.428 185.066 141.298 185.901 142.973 187.379C145.339 189.465 147.125 192.404 147.257 195.61C147.369 198.305 146.391 201.042 144.485 202.968C141.734 205.746 138.499 206.254 134.791 206.275C133.897 211.545 132.535 220.541 130.195 225.294C132.204 225.837 134.251 226.598 135.699 228.16C136.881 229.435 137.394 231.073 137.31 232.796C137.201 235.079 136.01 237.086 134.3 238.553C134.138 238.687 133.974 238.82 133.807 238.947C133.639 239.075 133.468 239.198 133.294 239.317C133.12 239.435 132.945 239.55 132.764 239.661C132.585 239.771 132.403 239.877 132.218 239.977C132.034 240.078 131.847 240.175 131.656 240.267C131.467 240.359 131.275 240.446 131.082 240.528C130.889 240.61 130.694 240.689 130.496 240.762C130.298 240.835 130.099 240.902 129.898 240.965C129.697 241.028 129.494 241.086 129.291 241.137C129.086 241.19 128.882 241.238 128.676 241.281C128.47 241.324 128.264 241.361 128.055 241.393C127.847 241.426 127.639 241.453 127.43 241.475C127.22 241.497 127.011 241.514 126.8 241.526C126.589 241.537 126.38 241.545 126.169 241.546C125.958 241.547 125.749 241.543 125.538 241.533C125.327 241.525 125.118 241.509 124.908 241.49C122.269 241.218 119.724 239.963 118.1 237.835C116.344 235.531 116.296 233.07 116.62 230.333C107.398 232.733 97.8408 233.255 88.563 235.333C89.8487 236.597 91.0398 237.815 91.4802 239.632C91.8878 241.316 91.4436 243.036 90.5313 244.479C88.7459 247.302 85.2912 248.965 82.1002 249.593C78.9318 250.217 74.8449 250.011 72.1346 248.105C70.107 246.679 69.5038 244.808 69.0445 242.507C60.3559 247.081 51.9033 254.676 47.1868 263.345C44.8941 267.559 43.033 272.417 42.0904 277.128L42.093 277.129ZM63.9608 351.74C63.5735 351.104 63.0751 350.985 62.4189 350.655C60.8834 350.581 59.6544 350.864 58.4885 351.924C57.0715 353.211 56.3435 355.238 56.264 357.119C56.1719 359.307 56.8974 360.986 58.3383 362.585C58.621 362.767 58.9137 362.916 59.2254 363.039C60.7736 363.653 62.1275 363.052 63.5419 362.417C63.5343 358.853 64.0858 355.289 63.9608 351.74ZM120.878 369.926C121.923 370.733 122.997 370.719 124.274 370.702C125.093 370.596 125.883 370.471 126.655 370.166C128.17 369.567 129.429 368.256 130.054 366.761C130.695 365.228 130.738 363.417 130.078 361.883C129.359 360.208 128.134 359.3 126.507 358.603C124.245 358.414 122.757 358.404 120.793 359.698C120.652 361.8 119.922 368.368 120.877 369.926H120.878ZM144.193 334.021C142.216 334.164 140.661 334.59 139.021 335.751C137.178 337.056 135.671 339.139 135.307 341.398C135.034 343.081 135.464 344.421 136.44 345.771C136.977 346.177 137.488 346.569 138.16 346.713C140.152 347.141 142.009 346.088 143.595 345.008C144.014 341.486 144.341 337.561 144.195 334.021H144.193ZM138.817 153.945L139.197 154.189C140.967 154.393 143.023 153.203 144.442 152.236C145.622 151.175 146.514 150.071 147.046 148.555C148.023 145.772 147.451 142.64 146.132 140.065C144.662 137.195 142.625 135.353 139.563 134.344C139.27 134.313 139.177 134.362 138.908 134.465C138.392 135.787 138.672 151.524 138.817 153.945ZM44.5421 264.608C45.7029 262.368 47.0051 260.212 48.4473 258.14C45.4304 258.629 42.6519 260.304 40.1536 261.996C34.2737 265.978 29.5446 271.647 26.1075 277.814C25.3568 279.16 24.4773 280.654 24.1883 282.182L24.4584 282.535L26.3523 283.258C30.4165 274.881 35.6516 268.02 44.5433 264.61L44.5421 264.608ZM9.29053 308.074C13.4367 308.073 17.4 307.088 20.8926 304.801C21.1109 304.661 21.3254 304.516 21.5361 304.366C21.7468 304.215 21.9537 304.059 22.1569 303.898C22.36 303.738 22.5581 303.571 22.7537 303.401C22.9493 303.231 23.1385 303.055 23.3253 302.875C23.512 302.695 23.6925 302.511 23.8704 302.322C24.047 302.132 24.2186 301.939 24.3864 301.742C24.5543 301.544 24.7158 301.342 24.8735 301.136C25.0312 300.931 25.1826 300.721 25.329 300.508C25.4754 300.295 25.6179 300.078 25.7529 299.858C25.8892 299.637 26.0192 299.414 26.1441 299.187C26.269 298.96 26.3889 298.73 26.5012 298.497C26.6147 298.265 26.722 298.029 26.8242 297.791C26.9264 297.553 27.0223 297.313 27.1119 297.07C27.2015 296.826 27.286 296.582 27.363 296.336C27.4412 296.089 27.5119 295.84 27.5775 295.589C27.6431 295.339 27.7011 295.086 27.7541 294.833C28.2816 292.187 28.4834 288.499 26.8532 286.208C25.5776 284.416 23.7253 284.041 21.6913 283.737C21.6105 283.729 21.5285 283.717 21.4465 283.714C14.3629 283.488 10.2495 287.799 8.81989 294.376C8.22938 297.092 7.99342 300.064 6.77959 302.589C5.94682 304.321 4.50461 305.676 3.16586 307.017C5.23139 307.634 7.13037 308.039 9.29053 308.075V308.074Z" fill="#010101"/>
<path d="M174.169 101.876C174.577 101.743 175.035 101.686 175.46 101.644C176.525 101.915 177.282 102.174 177.849 103.173C178.293 103.959 178.413 104.933 178.113 105.791C177.849 106.541 177.234 107.241 176.494 107.546C176.038 107.734 175.512 107.808 175.024 107.81C173.939 107.456 173.006 106.994 172.493 105.913C172.138 105.168 172.069 104.304 172.393 103.536C172.696 102.817 173.421 102.118 174.169 101.876Z" fill="#010101"/>
<path d="M202.311 101.24C202.79 101.153 203.311 101.177 203.797 101.187C204.841 101.812 205.584 102.424 205.872 103.66C206.081 104.563 205.966 105.547 205.427 106.318C205.026 106.892 204.302 107.472 203.595 107.59C203.123 107.668 202.607 107.619 202.133 107.59C201.077 106.932 200.343 106.378 200.038 105.119C199.833 104.269 199.916 103.395 200.383 102.646C200.785 102 201.545 101.38 202.31 101.241L202.311 101.24Z" fill="#010101"/>
<path d="M193.266 87.4451C189.973 86.8613 187.244 85.5853 185.307 82.7255C183.18 79.5858 182.608 75.3238 183.383 71.6532C184.073 68.3849 185.774 65.0573 188.657 63.2277C190.493 62.0626 192.617 61.6049 194.772 61.6654C197.978 62.0891 200.493 63.5429 202.452 66.1127C204.776 69.1591 205.455 73.0251 204.922 76.7676C204.429 80.215 202.789 83.6094 199.898 85.6685C197.915 87.0807 195.671 87.5876 193.268 87.4464L193.266 87.4451ZM194.902 86.3116C195.043 86.2977 195.184 86.2813 195.324 86.2611C195.464 86.2409 195.605 86.217 195.745 86.1892C195.883 86.1615 196.022 86.13 196.16 86.0959C196.297 86.0606 196.435 86.0228 196.57 85.9812C196.706 85.9396 196.84 85.8942 196.974 85.845C197.107 85.7971 197.24 85.7441 197.37 85.6887C197.501 85.6332 197.63 85.5752 197.757 85.5134C197.885 85.4516 198.011 85.386 198.136 85.3179C200.669 83.9511 202.541 81.3548 203.37 78.6249C204.356 75.373 204.093 71.2573 202.414 68.284C200.842 65.4974 198.475 63.9843 195.473 63.1256C193.025 63.0171 190.853 63.2012 188.785 64.6853C185.813 66.8201 184.481 70.932 183.874 74.3743C184.114 74.0881 184.045 74.2066 184.197 73.8952C185.382 71.4364 186.387 69.4466 189.14 68.4517C190.888 67.8213 192.671 67.9587 194.31 68.83C196.526 70.0077 198.16 72.2787 198.869 74.6517C199.699 77.4321 199.327 80.07 197.997 82.5969C197.223 83.5501 196.358 84.3294 195.231 84.8438C193.027 85.8488 191.022 85.299 188.878 84.5299C189.703 85.1162 190.568 85.6357 191.539 85.9421C191.674 85.9862 191.81 86.0266 191.948 86.0632C192.085 86.0997 192.223 86.1338 192.362 86.1628C192.501 86.193 192.641 86.2182 192.781 86.2409C192.921 86.2636 193.061 86.2826 193.202 86.2977C193.343 86.3128 193.485 86.3254 193.626 86.3343C193.767 86.3431 193.91 86.3469 194.053 86.3481C194.194 86.3481 194.336 86.3469 194.478 86.3406C194.619 86.3343 194.762 86.3254 194.903 86.3116H194.902ZM190.455 73.1928C190.668 74.0679 191.325 74.3983 192.054 74.7703C192.173 74.7614 192.291 74.7551 192.41 74.7438C193.197 74.6631 193.93 74.4147 194.397 73.7237C194.73 73.2307 194.854 72.7906 194.714 72.1992C194.504 71.3103 193.825 70.9749 193.097 70.5638C192.142 70.6899 191.36 70.8891 190.769 71.71C190.451 72.1526 190.323 72.6506 190.454 73.1916L190.455 73.1928Z" fill="#010101"/>
<path d="M193.097 70.5654C193.825 70.9765 194.504 71.3119 194.714 72.2009C194.854 72.7922 194.73 73.231 194.397 73.7253C193.93 74.415 193.197 74.6635 192.41 74.7454C192.291 74.758 192.173 74.7631 192.054 74.7719C191.323 74.3987 190.667 74.0683 190.455 73.1945C190.323 72.6535 190.453 72.1555 190.771 71.7129C191.36 70.8907 192.142 70.6928 193.099 70.5667L193.097 70.5654Z" fill="#FEFEFE"/>
<path d="M164.475 80.2128C164.446 80.4965 164.411 80.7789 164.369 81.0614C164.328 81.3438 164.277 81.6237 164.222 81.9037C163.543 85.2073 161.78 88.2373 158.873 90.0606C156.512 91.5397 153.943 92.0289 151.182 91.9634C147.594 91.3556 144.624 90.0568 142.411 86.9928C139.701 83.2428 138.958 78.4071 139.696 73.9069C140.288 70.3044 142.033 66.6956 145.098 64.5671C147.368 62.991 149.932 62.6152 152.623 62.9317C156.426 63.6807 159.511 65.5709 161.679 68.8102C161.836 69.0485 161.987 69.2906 162.131 69.5365C162.276 69.7824 162.415 70.0308 162.547 70.2829C162.68 70.5351 162.806 70.7911 162.927 71.0496C163.047 71.3081 163.162 71.5691 163.269 71.8339C163.376 72.0974 163.477 72.3647 163.572 72.6333C163.666 72.9019 163.755 73.173 163.835 73.4466C163.916 73.7202 163.992 73.9951 164.059 74.2725C164.127 74.5499 164.188 74.8273 164.242 75.1073C164.296 75.3872 164.344 75.6684 164.384 75.9508C164.425 76.2333 164.459 76.517 164.485 76.8007C164.512 77.0844 164.532 77.3694 164.545 77.6531C164.557 77.9381 164.564 78.223 164.564 78.508C164.564 78.793 164.555 79.0779 164.54 79.3629C164.524 79.6479 164.503 79.9316 164.474 80.2153L164.475 80.2128ZM163.249 77.6329C163.24 77.382 163.226 77.1323 163.205 76.8814C163.184 76.6317 163.157 76.3821 163.124 76.1324C163.091 75.884 163.052 75.6356 163.007 75.3897C162.961 75.1426 162.911 74.8979 162.854 74.6533C162.797 74.4087 162.734 74.1666 162.665 73.9245C162.595 73.6837 162.521 73.4441 162.44 73.207C162.359 72.97 162.272 72.7342 162.18 72.5009C162.088 72.2676 161.99 72.0369 161.887 71.8087C161.784 71.5804 161.674 71.3547 161.559 71.1303C161.444 70.9071 161.325 70.6864 161.2 70.4696C161.075 70.2527 160.943 70.0383 160.808 69.8278C160.672 69.6172 160.532 69.4091 160.386 69.2049C158.243 66.2606 155.292 64.8042 151.784 64.2317C149.432 63.9859 146.868 64.8673 145.041 66.3325C142.445 68.4155 141.165 71.6384 140.823 74.874C140.385 79.0262 141.211 83.5328 143.935 86.8112C146.109 89.4276 148.883 90.5133 152.178 90.8374C154.399 90.7693 156.582 90.1476 158.405 88.8539C161.092 86.9474 162.537 83.8089 163.053 80.6327C163.094 80.3855 163.128 80.1371 163.157 79.8874C163.186 79.639 163.207 79.3881 163.224 79.1385C163.24 78.8888 163.25 78.6379 163.254 78.3869C163.258 78.136 163.255 77.8851 163.248 77.6342L163.249 77.6329Z" fill="#010101"/>
<path d="M158.255 81.0627C158.241 81.2304 158.223 81.3981 158.202 81.5645C158.18 81.7322 158.154 81.8987 158.123 82.0638C157.741 84.2566 156.674 86.5124 154.772 87.7784C153.078 88.9069 151.437 88.9044 149.495 88.7947C146.905 88.1226 144.93 87.0231 143.521 84.6387C143.44 84.5025 143.363 84.365 143.289 84.2251C143.216 84.0851 143.145 83.9439 143.078 83.8001C143.011 83.6564 142.948 83.5114 142.889 83.3651C142.828 83.2189 142.773 83.0701 142.721 82.9213C142.668 82.7712 142.62 82.6212 142.575 82.4699C142.529 82.3185 142.489 82.166 142.451 82.0121C142.413 81.8583 142.38 81.7032 142.35 81.5481C142.32 81.393 142.294 81.2367 142.272 81.0803C142.25 80.924 142.231 80.7663 142.217 80.6087C142.204 80.4511 142.192 80.2935 142.186 80.1346C142.18 79.977 142.177 79.8181 142.178 79.6605C142.178 79.5016 142.185 79.344 142.193 79.1864C142.202 79.0288 142.215 78.8712 142.233 78.7135C142.249 78.5559 142.27 78.3996 142.294 78.2432C142.318 78.0869 142.347 77.9318 142.38 77.7767C142.413 77.6216 142.448 77.4677 142.489 77.3152C143.077 75.0934 144.47 73.0961 146.487 71.9524C147.742 71.2413 149.011 70.9702 150.434 70.8643C152.914 71.2438 154.941 72.3105 156.431 74.3785C156.529 74.5159 156.622 74.6559 156.713 74.7984C156.802 74.9408 156.889 75.0846 156.973 75.2321C157.056 75.3784 157.135 75.5272 157.211 75.6772C157.287 75.8273 157.359 75.9798 157.427 76.1337C157.495 76.2875 157.559 76.4439 157.62 76.6015C157.681 76.7591 157.736 76.918 157.789 77.0781C157.842 77.2383 157.89 77.3997 157.934 77.5623C157.978 77.725 158.019 77.8889 158.055 78.0528C158.092 78.218 158.123 78.3832 158.151 78.5484C158.179 78.7148 158.203 78.8812 158.223 79.049C158.243 79.2167 158.258 79.3844 158.27 79.5521C158.281 79.7198 158.289 79.8887 158.291 80.0564C158.294 80.2241 158.294 80.3931 158.289 80.5608C158.284 80.7298 158.274 80.8975 158.26 81.0652L158.255 81.0627ZM153.953 75.6974C153.817 74.7769 153.137 74.3179 152.444 73.8098C152.107 73.7707 151.775 73.7367 151.435 73.7442C150.722 73.7594 150.004 73.9863 149.529 74.5512C149.167 74.9825 148.988 75.3872 149.075 75.9597C149.214 76.865 149.813 77.3127 150.504 77.8095C150.734 77.841 150.967 77.875 151.199 77.8952C152.042 77.9671 152.9 77.7489 153.495 77.1172C153.857 76.7339 154.029 76.2207 153.952 75.6961L153.953 75.6974Z" fill="#010101"/>
<path d="M151.201 77.8949C150.969 77.8747 150.737 77.8407 150.506 77.8092C149.816 77.3124 149.217 76.8647 149.078 75.9594C148.989 75.3869 149.17 74.9821 149.532 74.5509C150.006 73.986 150.724 73.7591 151.437 73.7439C151.777 73.7376 152.11 73.7717 152.447 73.8095C153.139 74.3176 153.82 74.7766 153.956 75.6971C154.033 76.2204 153.861 76.7348 153.499 77.1182C152.902 77.7499 152.045 77.968 151.203 77.8962L151.201 77.8949Z" fill="#FEFEFE"/>
<path d="M50.7411 320.327C51.2686 320.144 51.8376 320.063 52.3928 320.063C54.0785 320.69 55.1006 321.576 55.8425 323.248C56.7548 325.303 56.7548 327.813 55.8602 329.873C55.2406 331.299 54.0621 332.682 52.5392 333.174C52.0294 333.338 51.4578 333.351 50.9279 333.348C49.3393 332.748 48.3059 331.669 47.6283 330.109C46.7287 328.036 46.6643 325.453 47.593 323.378C48.1974 322.026 49.3178 320.82 50.7411 320.327ZM48.2289 327.806C48.509 329.609 49.2358 330.971 50.6894 332.075C50.9102 332.078 51.1298 332.086 51.3518 332.083C52.4723 332.066 53.3555 331.549 54.0924 330.712C55.2003 329.454 55.5308 327.54 55.3794 325.919C55.1927 323.925 54.3624 322.557 52.8521 321.297C52.4521 321.248 52.0521 321.242 51.6496 321.281C50.6806 321.376 49.7494 322.068 49.1904 322.838C48.1923 324.211 47.9753 326.17 48.2302 327.808L48.2289 327.806Z" fill="#010101"/>
<path d="M159.559 176.07C160.304 178.025 160.337 180.144 159.455 182.062C158.729 183.639 157.48 184.867 155.845 185.476C154.974 185.8 154.097 185.818 153.18 185.766C151.368 184.952 150.114 183.715 149.393 181.837C149.3 181.593 149.22 181.344 149.152 181.092C149.084 180.84 149.029 180.584 148.987 180.327C148.944 180.068 148.915 179.81 148.899 179.549C148.882 179.288 148.88 179.027 148.888 178.766C148.899 178.505 148.921 178.245 148.957 177.985C148.993 177.727 149.041 177.469 149.103 177.216C149.165 176.961 149.239 176.712 149.325 176.464C149.412 176.219 149.511 175.976 149.622 175.739C149.721 175.528 149.832 175.321 149.952 175.119C150.073 174.919 150.205 174.723 150.345 174.535C150.486 174.347 150.635 174.167 150.794 173.994C150.953 173.822 151.121 173.658 151.296 173.501C151.471 173.345 151.654 173.199 151.845 173.061C152.035 172.924 152.232 172.796 152.435 172.679C152.638 172.562 152.847 172.455 153.061 172.359C153.276 172.263 153.494 172.177 153.716 172.103C154.43 171.862 155.107 171.793 155.856 171.779C157.6 172.602 158.882 174.286 159.558 176.066L159.559 176.07ZM153.708 173.466C152.342 173.907 151.244 175.023 150.663 176.314C150.572 176.521 150.491 176.733 150.422 176.947C150.352 177.163 150.293 177.381 150.246 177.602C150.198 177.822 150.162 178.046 150.136 178.271C150.111 178.496 150.099 178.722 150.096 178.947C150.093 179.173 150.104 179.399 150.124 179.624C150.144 179.849 150.177 180.073 150.22 180.295C150.263 180.517 150.318 180.736 150.384 180.953C150.449 181.17 150.526 181.382 150.613 181.591C151.233 183.046 152.183 183.943 153.62 184.56C154.148 184.518 154.694 184.486 155.211 184.37C156.532 184.074 157.788 182.831 158.386 181.661C159.14 180.182 159.224 178.39 158.69 176.826C158.102 175.104 157.006 174.048 155.395 173.277C154.828 173.268 154.256 173.291 153.711 173.466H153.708Z" fill="#010101"/>
<path d="M158.523 162.492C156.472 161.318 155.098 159.76 154.486 157.433C153.866 155.075 154.329 152.351 155.62 150.289C156.409 149.031 157.702 147.934 159.169 147.582C159.76 147.441 160.402 147.442 161.007 147.438C162.743 148.208 163.646 149.3 164.349 151.069C165.39 153.691 165.468 156.937 164.305 159.533C163.703 160.877 162.701 162.029 161.285 162.53C160.303 162.878 159.509 162.744 158.522 162.492H158.523ZM162.561 160.112C163.828 158.535 164.162 156.04 163.911 154.093C163.641 151.999 162.865 150.017 161.184 148.689C160.825 148.666 160.469 148.646 160.109 148.679C158.86 148.793 157.674 149.588 156.921 150.568C155.741 152.101 155.272 154.36 155.542 156.256C155.853 158.446 156.892 159.832 158.631 161.113C159.116 161.291 159.568 161.458 160.099 161.429C161.027 161.38 161.986 160.827 162.561 160.112Z" fill="#010101"/>
<path d="M54.5719 304.774C53.705 305.315 52.8142 305.392 51.8162 305.421C49.9841 304.651 48.798 303.599 48.0069 301.742C46.9268 299.207 47.1148 296.132 48.205 293.632C48.981 291.854 50.4042 290.061 52.3007 289.411C52.8218 289.233 53.3417 289.148 53.8855 289.088C55.44 289.402 56.5705 289.956 57.474 291.303C58.9099 293.441 58.8746 296.45 58.3105 298.885C57.7856 301.154 56.6021 303.507 54.5732 304.773L54.5719 304.774ZM57.05 293.266C56.4822 291.675 55.6406 290.997 54.1353 290.322C53.7959 290.337 53.4477 290.352 53.1145 290.42C51.6837 290.71 50.4989 291.854 49.7822 293.075C48.5684 295.146 48.2151 297.994 48.8245 300.311C49.3065 302.144 50.1809 303.261 51.796 304.216C52.2351 304.198 52.6918 304.188 53.1183 304.067C54.5467 303.661 55.7012 302.343 56.3586 301.072C57.4929 298.88 57.8891 295.62 57.0488 293.267L57.05 293.266Z" fill="#010101"/>
<path d="M152.519 226.13C150.35 225.68 148.714 224.921 147.437 223.008C145.854 220.637 145.618 217.464 146.273 214.738C146.829 212.415 148.154 210.194 150.275 208.995C151.537 208.282 152.635 208.134 154.066 208.192C156.556 209.065 158.311 210.521 159.479 212.939C160.644 215.354 160.801 218.098 159.813 220.601C158.901 222.912 157.135 224.749 154.811 225.656C154.073 225.943 153.306 226.076 152.517 226.13H152.519ZM158.815 220.021C158.864 219.892 158.91 219.761 158.952 219.63C158.995 219.499 159.034 219.366 159.07 219.233C159.105 219.099 159.137 218.965 159.166 218.831C159.195 218.696 159.219 218.559 159.24 218.423C159.262 218.287 159.279 218.15 159.293 218.012C159.308 217.875 159.318 217.737 159.326 217.6C159.333 217.462 159.336 217.324 159.336 217.186C159.336 217.049 159.333 216.91 159.326 216.773C159.318 216.635 159.308 216.498 159.294 216.36C159.28 216.223 159.263 216.086 159.241 215.951C159.22 215.814 159.196 215.678 159.167 215.543C159.139 215.408 159.106 215.273 159.071 215.141C159.036 215.007 158.997 214.875 158.955 214.744C158.913 214.613 158.867 214.483 158.819 214.353C158.769 214.224 158.718 214.097 158.661 213.97C158.605 213.844 158.546 213.719 158.484 213.595C157.435 211.499 155.745 210.136 153.533 209.434C152.362 209.45 151.379 209.695 150.396 210.362C148.635 211.556 147.677 213.598 147.348 215.648C146.964 218.042 147.323 220.818 148.841 222.78C149.935 224.192 151.022 224.616 152.752 224.855C153.418 224.743 154.064 224.604 154.69 224.341C156.583 223.546 158.089 221.93 158.815 220.021Z" fill="#010101"/>
<path d="M87.9358 278.06C90.1023 276.78 92.4795 276.537 94.9311 276.669C97.3436 277.071 99.7915 277.852 101.297 279.927C101.409 280.079 101.513 280.236 101.608 280.398C101.704 280.56 101.793 280.727 101.872 280.897C101.952 281.069 102.022 281.243 102.084 281.42C102.146 281.598 102.199 281.779 102.243 281.963C102.287 282.145 102.321 282.331 102.347 282.517C102.372 282.704 102.388 282.892 102.395 283.08C102.401 283.269 102.398 283.457 102.387 283.645C102.374 283.833 102.353 284.019 102.323 284.206C101.981 286.28 100.531 288.033 98.8388 289.2C96.6244 290.729 94.3974 291.035 91.788 290.935C89.3086 290.444 86.8343 289.68 85.3428 287.462C84.3915 286.046 84.1088 284.312 84.4747 282.654C84.9088 280.689 86.2173 279.074 87.9345 278.059L87.9358 278.06ZM85.999 286.101C87.0273 288.124 88.9503 289.02 90.9931 289.672C93.0031 289.864 94.8567 289.779 96.7228 288.932C98.536 288.11 100.318 286.604 100.991 284.679C101.395 283.524 101.364 282.259 100.774 281.172C99.7688 279.316 97.654 278.508 95.7462 277.924C93.5532 277.756 91.5735 277.752 89.5042 278.664C87.8576 279.389 86.3813 280.626 85.7693 282.361C85.3315 283.603 85.4022 284.926 85.999 286.101Z" fill="#010101"/>
<path d="M62.757 261.553C65.2162 259.871 67.9063 259.481 70.8135 259.74C73.2348 260.326 75.7357 261.219 77.1299 263.443C77.998 264.828 78.1999 266.51 77.7835 268.081C77.1867 270.329 75.4329 272.155 73.4443 273.276C71.1617 274.562 68.483 275.039 65.8825 274.842C63.6289 274.474 61.4158 273.696 60.0038 271.779C59.0133 270.435 58.6462 268.68 58.9225 267.042C59.3073 264.762 60.8883 262.832 62.757 261.553ZM60.0455 268.808C60.0631 268.974 60.0909 269.139 60.125 269.301C60.1603 269.464 60.2032 269.626 60.2537 269.783C60.3041 269.942 60.3634 270.097 60.4303 270.25C60.4972 270.402 60.5716 270.551 60.6524 270.697C60.7344 270.842 60.8227 270.984 60.9186 271.12C61.0145 271.256 61.118 271.387 61.2265 271.513C62.4555 272.927 64.3393 273.514 66.1424 273.682C68.7745 273.635 71.1529 273.312 73.4304 271.857C75.0001 270.855 76.3375 269.342 76.6921 267.469C76.9318 266.201 76.7224 264.969 75.9628 263.912C74.5912 262.003 72.1472 261.213 69.9315 260.836C67.2704 260.775 64.9437 261.287 62.8378 263.03C61.4044 264.216 60.1931 265.911 60.0341 267.812C60.019 267.979 60.0127 268.145 60.0139 268.312C60.0152 268.478 60.0253 268.645 60.0442 268.81L60.0455 268.808Z" fill="#010101"/>
<path d="M95.8901 258.363C94.9501 256.779 94.6321 254.827 95.1116 253.042C95.7223 250.771 97.4358 248.974 99.4521 247.846C101.754 246.558 104.206 246.263 106.787 246.494C109.351 247.089 111.698 247.964 113.17 250.31C113.29 250.501 113.401 250.699 113.501 250.902C113.602 251.105 113.691 251.312 113.771 251.525C113.85 251.737 113.918 251.953 113.976 252.172C114.034 252.391 114.08 252.612 114.115 252.836C114.151 253.061 114.175 253.285 114.187 253.511C114.2 253.737 114.201 253.964 114.191 254.189C114.181 254.415 114.159 254.641 114.127 254.865C114.094 255.09 114.05 255.31 113.994 255.531C113.419 257.827 111.727 259.663 109.714 260.831C107.317 262.22 104.743 262.606 102.024 262.344C99.5555 261.716 97.2452 260.65 95.8901 258.367V258.363ZM109.011 259.872C110.799 258.87 112.382 257.254 112.924 255.232C112.972 255.056 113.012 254.877 113.043 254.696C113.073 254.516 113.094 254.333 113.106 254.15C113.117 253.968 113.12 253.785 113.113 253.601C113.107 253.418 113.091 253.235 113.065 253.053C113.04 252.872 113.005 252.691 112.962 252.514C112.918 252.336 112.866 252.161 112.804 251.988C112.742 251.815 112.672 251.646 112.593 251.481C112.515 251.316 112.428 251.154 112.332 250.998C111.016 248.873 108.657 248.065 106.34 247.567C104.259 247.412 102.325 247.605 100.44 248.581C98.618 249.524 96.9676 251.129 96.367 253.133C96.309 253.327 96.261 253.524 96.2244 253.722C96.1866 253.921 96.1601 254.121 96.1437 254.322C96.1273 254.524 96.121 254.725 96.126 254.928C96.1311 255.13 96.1462 255.332 96.1715 255.534C96.1967 255.734 96.2333 255.933 96.28 256.13C96.3267 256.327 96.3834 256.521 96.4503 256.713C96.5172 256.904 96.5941 257.091 96.6799 257.274C96.767 257.457 96.8616 257.636 96.9664 257.808C98.1916 259.826 100.271 260.664 102.455 261.204C104.801 261.299 106.931 261.039 109.013 259.872H109.011Z" fill="#010101"/>
<path d="M117.954 268.276C120.369 266.926 122.907 266.809 125.587 267.023C128.289 267.602 130.762 268.686 132.294 271.124C133.261 272.663 133.617 274.529 133.128 276.296C132.506 278.544 130.869 280.422 128.846 281.545C126.426 282.889 123.89 282.952 121.219 282.641C118.698 282.002 116.508 280.93 115.083 278.632C114.038 276.948 113.59 274.813 114.087 272.875C114.602 270.87 116.187 269.264 117.954 268.276ZM116.711 278.911C118.266 280.803 120.321 281.372 122.647 281.625C124.777 281.578 126.613 281.386 128.486 280.241C130.14 279.229 131.593 277.552 131.984 275.613C132.281 274.144 131.902 272.712 131.031 271.507C129.509 269.405 127.088 268.493 124.616 268.116C122.225 267.93 119.861 268.353 117.882 269.772C116.528 270.742 115.469 272.144 115.217 273.818C114.947 275.606 115.573 277.525 116.711 278.91V278.911Z" fill="#010101"/>
<path d="M143.73 245.296C145.387 244.184 147.126 243.89 149.078 244.12C151.937 245.072 154.67 246.467 156.098 249.292C157.329 251.725 156.976 254.463 156.098 256.943C155.007 260.029 153.078 262.9 149.999 264.273C149.034 264.703 147.995 264.936 146.955 265.098C144.715 264.724 143.049 264.027 141.658 262.114C139.686 259.397 139.079 255.27 139.667 252.012C140.139 249.4 141.486 246.804 143.73 245.296ZM143.103 262.064C144.424 263.455 145.764 263.804 147.63 263.829C148.419 263.586 149.23 263.35 149.952 262.941C152.695 261.392 154.585 258.246 155.319 255.233C155.817 253.187 155.811 251.031 154.655 249.201C153.22 246.929 150.785 246 148.3 245.407C146.5 245.275 145.017 245.696 143.636 246.906C141.631 248.663 140.84 251.351 140.711 253.933C140.572 256.741 141.102 259.957 143.103 262.064Z" fill="#010101"/>
</g>
<defs>
<clipPath id="clip0_1660_8027">
<rect width="229" height="412" fill="white" transform="matrix(-1 0 0 1 229 0)"/>
</clipPath>
</defs>
</svg>
