<?xml version="1.0" encoding="UTF-8"?>
<svg id="Layer_1" data-name="Layer 1" xmlns="http://www.w3.org/2000/svg" viewBox="0 0 325.99 411.98">
  <defs>
    <style>
      .cls-1 {
        fill: #fff;
      }
    </style>
  </defs>
  <path d="M162.65,121.85c-25.06-1.47-42.62-21.34-50.92-43.46-6.9-18.42-9.92-41.93-1.97-60.45,8.17-19.04,26.15-23.2,42.78-11.08,7.75-6.12,16.87-5.99,24.99-.61,25.14-16,42.55.93,46.29,26.39,3.43,23.33-7.18,63.36-25.98,78.76-8.46,6.94-19.44,10-30.31,10.46v105.06l5.39-24.19c2.51-9.56,11.57-31.02,22.83-32.19,14.85-1.54,14.01,19.19,12.9,28.89-2.17,18.95-10.67,37.49-16.04,55.66,0,.56,10.33,1.27,10.63-1.22,8.56-27.93,19.55-55.21,34.73-80.21l-.11-.93c-29.18-17.66-25.41-62.93-9.56-88.67,10.33-16.77,30.14-29.38,45.88-10.54,1.01,1.21,2.94,5.22,3.49,5.56,3.07,1.88,9.2-1.73,15.73,4.48,1.12,1.06,3.66,5.27,3.95,5.44,1.07.61,9.02-.03,11.74.47,7.82,1.42,14.74,8.8,16.25,16.48,6.35,32.23-36.33,79.49-69.44,74.17-2.65-.42-12.72-4.37-13.78-3.69-.93.59-9.15,15.89-10.35,18.23-7.12,13.89-12.55,28.53-18.21,43.05-.14,2.06.79.52,1.28-.12,8.08-10.72,23.64-34.57,39.46-32.2,5.31.8,11.59,6.77,12.26,12.11,1.92,15.46-18.2,29.71-29.29,37.59l9.8.65c1.02.72.72,3.67.64,4.91-1.55,23.34-8.71,52.26-12.38,76.07-.3,1.97.11,4.76-.28,7.32-3.43,22.38-7.78,44.72-10.41,67.19l-116.67.78-8.95-56.53c-1.25-5.08-1.81-10.28-2.67-15.42-4.54-27.06-9.93-54.26-13.89-81.52-.66-4.99,4.87-2.27,7.69-3.44-10.97-7.78-31.91-21.66-30.71-36.91.48-6.14,7.33-12.62,13.62-12.89,15.16-.63,29.63,20.69,37.43,31.58.36.51,1.18,2.06,1.95,1.52-7.62-21.49-16.74-42.47-28.57-61.97-1.52-.97-8.08,2.43-10.32,2.97-25.15,6.03-48.4-13.92-61.79-33.25-15.43-22.28-20.99-59.38,16.91-57.1,1.46-4.33,7.13-8.96,11.67-9.57,2.03-.27,6.76.45,7.98-.38.6-.41,4.32-7.32,6.81-9.38,16.99-14.08,34.69,1.01,43.49,16.19,14.84,25.59,18.04,69.52-10.5,86.82l-.1.93c15.16,25.56,26.85,53.15,34.89,81.79h14.64c-2.87-11.76-7.79-22.98-10.96-34.63-3.07-11.29-9.85-40.22.85-48.15,12.35-9.16,23.9,11.97,27.66,21.1,2.89,7.01,4.27,14.26,6.37,21.49.21.72.16,2.1,1.18,1.95v-95.32h-.01ZM148.7,9.84c-15.88-9.92-29.53-4.26-35.59,12.83-9.06,25.6,1.56,63.3,21.28,81.81,3.45,3.24,9.04,7.92,13.6,7.97-6.86-7.66-10.92-18.8-12.92-28.85-4.82-24.22-1.88-53.8,13.62-73.76h0ZM181.48,114.89c17.3-5.62,26.02-21.44,31.69-37.6,6.24-17.8,9.83-39.25,2.3-57.21-6.18-14.75-20.82-20.34-33.99-9.91,2.45,2.28,4.28,5.11,5.93,7.99,13.39,23.35,13.56,64.34,0,87.7-.72,1.24-6.35,8.61-5.93,9.03h0ZM152.43,13.55c-19.33,19.68-19.03,78.48.8,97.85,13.82,13.51,26.39.33,32.32-12.97,9.37-21.01,9.43-51.31.22-72.38-6.27-14.38-18.96-27.15-33.34-12.5ZM95.71,143.76c.39,4.02,0,9.05,0,13.22,0,.54-1.2,2-.69,3.13,16.34-20.57,10.58-57.39-4.31-77.46-10.58-14.26-27.26-20.62-37.55-2.21l7.49,4.37c16.96,10.99,33.13,38.97,35.05,58.95h0ZM230.28,157.68c-.31-4.41,0-9.42,0-13.92,0-4.96,3.93-16.29,5.93-21.21,6.76-16.54,19.55-34.59,36.6-41.42-8.07-17.03-24.14-14.37-35.15-1.66-17.24,19.91-23.34,58.56-7.04,80.63,1.15-.58-.32-1.97-.35-2.43h0ZM68.79,98.62c-5.33-5.84-13.24-13.53-21.54-14.34-17.8-1.74-18.3,17.14-16.28,30.16,2.94,19.04,20.38,50.28,39.8,56.3,12.01,3.72,18.97-3.49,20.05-15.17,1.85-19.94-8.95-42.61-22.03-56.96h0ZM277.51,84.44c-15.71,2.46-32.97,28.85-38,42.79-4.36,12.08-10.42,45.95,10.62,44.72,17.88-1.04,35.59-28.68,41.14-43.86,5.12-14,10.52-47.46-13.76-43.65ZM26.68,94.02c-9.23-.78-17.47,1.63-20.76,10.93-8.88,25.1,28.03,67.28,52.5,70.45,3.12.4,6.28.15,9.39.01l-9.7-5.97c-15.78-11.4-29.33-35.89-32.04-55-.96-6.8-1.44-13.8.6-20.43h0ZM258.17,175.42h10.81c13.37,0,37.83-25.77,44.39-37.11,10.1-17.45,14.56-46.1-14.06-44.29,2.44,8.33,1.39,17.25-.47,25.62-3.93,17.58-16.51,39.62-31.37,50.1l-9.29,5.69h0ZM161.95,255.43c-1.88-21.75-4.06-48.19-14.98-67.5-2.82-4.98-11.93-17.9-17.79-10.07-6.48,8.64.27,34.72,3.15,44.88,3.11,10.99,7.2,22.09,11.15,32.7h18.48,0ZM169.62,255.43h17.08c.91-.66,1.14-1.66,1.58-2.6,2.93-6.11,6.58-19.09,8.71-26.1,3.74-12.3,10.22-33.85,6.06-46.07-4.47-13.11-15.72,1.13-19.15,7.26-10.78,19.27-11.87,45.94-14.28,67.5h0ZM100.25,255.43c4.27.86,11.1-.64,15.69,0,.24-1.07-.24-1.64-.65-2.48-5.07-10.53-24.42-36.19-34.88-41.04-4.17-1.93-7.91-2.67-11.84.08-10.95,7.67,1.56,20.9,7.99,26.72,3.2,2.9,20.59,16.09,23.69,16.72ZM210.06,255.43h17.78c1.33,0,19.04-13.6,21.27-15.65,6.66-6.09,18.51-18.7,9.01-27.1-3.3-2.92-6.52-3.14-10.62-1.64-9.68,3.54-23.87,21.57-29.65,30.25-1.07,1.61-8.58,13.39-7.8,14.13h0ZM242.83,260.31H88.04l23.71,146.8,107.64.05,23.43-146.85Z"/>
  <g>
    <path class="cls-1" d="M186.91,16.63c13.39,23.35,13.55,64.34,0,87.7-.72,1.24-6.35,8.61-5.93,9.03h0c17.3-5.62,26.02-21.44,31.69-37.6,6.24-17.8,9.83-39.25,2.3-57.21-6.18-14.75-20.82-20.34-33.99-9.91,2.45,2.28,4.28,5.11,5.93,7.99Z"/>
    <path class="cls-1" d="M148.2,8.31h0c-15.88-9.92-29.54-4.26-35.59,12.83-9.06,25.6,1.55,63.3,21.28,81.81,3.45,3.23,9.04,7.92,13.6,7.97-6.86-7.66-10.92-18.8-12.92-28.85-4.82-24.22-1.88-53.8,13.62-73.76Z"/>
    <path class="cls-1" d="M185.06,96.9c9.37-21.01,9.43-51.31.22-72.38-6.28-14.38-18.96-27.15-33.34-12.5-19.33,19.68-19.03,78.48.8,97.85,13.82,13.51,26.39.33,32.32-12.97Z"/>
    <path class="cls-1" d="M95.21,142.24h0c.39,4.02,0,9.04,0,13.21,0,.54-1.2,2-.69,3.13,16.34-20.57,10.58-57.39-4.31-77.46-10.58-14.26-27.26-20.62-37.55-2.21l7.49,4.37c16.96,10.99,33.13,38.97,35.05,58.95Z"/>
    <path class="cls-1" d="M187.79,251.31c2.93-6.11,6.58-19.09,8.71-26.1,3.74-12.3,10.22-33.85,6.06-46.07-4.47-13.11-15.72,1.13-19.15,7.26-10.78,19.27-11.87,45.94-14.28,67.5h0s17.08,0,17.08,0c.91-.66,1.14-1.66,1.58-2.59Z"/>
    <path class="cls-1" d="M161.45,253.9c-1.88-21.75-4.06-48.19-14.98-67.5-2.82-4.98-11.93-17.9-17.79-10.08-6.48,8.64.27,34.72,3.15,44.88,3.11,10.99,7.2,22.09,11.15,32.7h18.47Z"/>
    <path class="cls-1" d="M68.28,97.09h0c-5.33-5.84-13.24-13.53-21.54-14.34-17.8-1.74-18.3,17.14-16.28,30.16,2.94,19.04,20.38,50.28,39.8,56.3,12.01,3.72,18.97-3.49,20.05-15.17,1.85-19.94-8.95-42.61-22.03-56.96Z"/>
    <path class="cls-1" d="M25.58,112.9c-.96-6.79-1.44-13.79.6-20.42-9.23-.78-17.46,1.63-20.75,10.93-8.88,25.1,28.03,67.28,52.5,70.45,3.12.4,6.28.15,9.39.01l-9.7-5.97c-15.78-11.4-29.33-35.89-32.04-55Z"/>
    <path class="cls-1" d="M298.81,92.49c2.44,8.33,1.39,17.25-.47,25.62-3.93,17.58-16.51,39.62-31.37,50.1l-9.28,5.68h10.8c13.37,0,37.83-25.77,44.39-37.11,10.1-17.45,14.56-46.1-14.06-44.29Z"/>
    <path class="cls-1" d="M290.78,126.56c5.12-14,10.52-47.46-13.76-43.65-15.71,2.46-32.97,28.85-38,42.79-4.36,12.08-10.42,45.95,10.62,44.72,17.88-1.04,35.59-28.68,41.14-43.86Z"/>
    <path class="cls-1" d="M209.56,253.9h17.79c1.33,0,19.04-13.59,21.27-15.65,6.66-6.09,18.51-18.7,9.01-27.1-3.3-2.92-6.52-3.14-10.62-1.64-9.68,3.54-23.87,21.57-29.65,30.25-1.07,1.61-8.58,13.39-7.8,14.13Z"/>
    <path class="cls-1" d="M229.78,156.15c-.31-4.41,0-9.42,0-13.92,0-4.96,3.93-16.29,5.93-21.21,6.76-16.54,19.55-34.59,36.6-41.42-8.07-17.03-24.14-14.37-35.15-1.66-17.24,19.91-23.34,58.56-7.04,80.63,1.15-.58-.32-1.97-.35-2.43h0Z"/>
    <polygon class="cls-1" points="111.26 405.57 218.9 405.62 242.33 258.77 87.55 258.77 111.26 405.57"/>
    <path class="cls-1" d="M115.44,253.9c.24-1.07-.24-1.64-.65-2.48-5.07-10.53-24.42-36.19-34.88-41.04-4.17-1.93-7.91-2.67-11.84.08-10.95,7.67,1.56,20.9,7.99,26.72,3.2,2.9,20.59,16.09,23.69,16.72,4.27.86,11.1-.64,15.69,0Z"/>
  </g>
</svg>